{"glyphs":{"0":{"ha":740,"x_min":51,"x_max":679,"o":"m 51 431 q 78 240 51 322 q 150 101 106 157 q 251 15 194 44 q 365 -14 307 -14 q 481 15 424 -14 q 581 101 538 44 q 652 240 625 157 q 679 431 679 322 q 652 619 679 538 q 581 756 625 701 q 481 840 538 811 q 365 868 424 868 q 251 840 307 868 q 150 756 194 811 q 78 619 106 701 q 51 431 51 538 m 592 394 q 574 243 592 308 q 528 133 557 178 q 463 66 500 89 q 385 43 425 43 q 283 83 329 43 q 203 187 236 124 q 151 328 169 250 q 133 483 133 407 q 148 606 133 547 q 189 708 163 664 q 253 780 215 753 q 339 807 292 807 q 431 780 386 807 q 512 701 476 753 q 569 572 547 649 q 592 394 592 494 "},"1":{"ha":451,"x_min":8,"x_max":340,"o":"m 144 0 l 340 0 l 340 14 q 296 36 306 14 q 286 88 286 58 l 286 753 q 297 801 283 781 q 332 832 310 822 l 332 869 l 8 757 l 8 707 l 167 757 q 182 761 176 761 q 196 747 196 761 l 196 82 q 187 34 196 54 q 144 14 178 14 l 144 0 "},"2":{"ha":596,"x_min":32,"x_max":551,"o":"m 32 776 l 32 665 l 46 665 q 133 774 79 732 q 258 817 188 817 q 325 803 292 817 q 384 765 358 790 q 426 704 410 740 q 442 622 442 668 q 427 553 442 586 q 388 491 413 521 q 333 432 364 461 q 268 374 301 403 q 187 299 228 338 q 113 215 146 260 q 58 116 79 169 q 38 0 38 63 l 551 0 l 551 158 l 539 158 q 507 97 538 115 q 424 78 476 78 l 135 78 q 156 159 138 121 q 201 231 174 197 q 262 294 228 264 q 332 354 296 325 q 405 416 369 385 q 469 482 440 447 q 514 557 497 517 q 531 646 531 597 q 510 746 531 704 q 454 815 489 788 q 375 855 419 842 q 283 868 331 868 q 215 861 246 868 q 160 844 185 854 q 117 821 136 833 q 85 799 99 808 q 62 783 72 790 q 44 776 51 776 l 32 776 "},"3":{"ha":590,"x_min":13,"x_max":533,"o":"m 39 828 l 39 719 l 53 719 q 132 799 85 772 q 226 825 179 825 q 295 811 265 825 q 346 776 325 797 q 377 726 367 754 q 388 669 388 699 q 376 608 388 638 q 343 556 365 579 q 288 518 321 532 q 213 504 256 504 l 142 504 l 142 458 l 206 458 q 305 440 261 458 q 379 392 349 422 q 426 322 410 361 q 443 240 443 282 q 428 163 443 200 q 385 96 414 125 q 317 49 357 67 q 226 32 276 32 q 116 58 169 32 q 26 133 63 83 l 13 133 l 13 26 l 25 26 q 50 23 38 26 q 78 14 63 19 q 136 -4 101 6 q 224 -14 171 -14 q 351 7 294 -14 q 449 65 408 28 q 512 151 490 101 q 533 258 533 200 q 486 397 533 336 q 343 486 439 458 q 444 567 411 517 q 476 671 476 617 q 460 746 476 710 q 415 809 444 782 q 341 852 385 836 q 242 868 297 868 q 160 859 193 868 q 103 842 126 850 q 75 832 88 836 q 51 828 63 828 l 39 828 "},"4":{"ha":583,"x_min":4,"x_max":558,"o":"m 332 0 l 528 0 l 528 14 q 484 37 494 14 q 474 88 474 60 l 474 224 l 558 224 l 558 293 l 474 293 l 474 889 l 4 224 l 383 224 l 383 88 q 383 60 383 74 q 377 37 382 47 q 362 20 372 26 q 332 14 351 14 l 332 0 m 383 682 l 383 293 l 107 293 q 245 488 176 392 q 383 682 314 583 "},"5":{"ha":610,"x_min":24,"x_max":554,"o":"m 547 260 q 523 379 547 326 q 458 468 499 432 q 367 524 418 504 q 260 543 315 543 q 197 538 226 543 q 135 517 168 532 q 185 647 158 581 q 236 776 213 714 l 526 776 l 554 854 l 207 854 l 29 389 q 138 452 85 432 q 235 472 190 472 q 315 458 275 472 q 385 416 354 444 q 434 346 415 388 q 453 249 453 304 q 440 163 453 203 q 399 95 426 124 q 332 50 372 67 q 238 33 292 33 q 119 61 178 33 q 24 138 60 89 l 24 28 q 58 23 39 28 q 101 11 78 18 q 169 -6 133 3 q 243 -14 206 -14 q 377 10 319 -14 q 472 74 435 35 q 528 162 510 113 q 547 260 547 211 "},"6":{"ha":682,"x_min":44,"x_max":629,"o":"m 329 514 q 421 492 381 514 q 488 433 461 469 q 530 350 515 396 q 544 257 544 304 q 533 175 544 215 q 497 103 521 135 q 436 53 472 72 q 353 35 400 35 q 260 59 300 35 q 191 122 219 83 q 148 208 163 160 q 133 306 133 257 q 145 383 133 346 q 181 450 157 421 q 242 497 206 479 q 329 514 279 514 m 526 743 l 540 743 l 540 843 q 530 844 539 843 q 513 847 521 846 q 474 853 496 850 q 433 856 453 856 q 268 810 340 856 q 146 691 196 764 q 70 527 96 618 q 44 344 44 436 q 62 208 44 274 q 115 94 79 143 q 208 15 151 44 q 343 -14 265 -14 q 467 11 414 -14 q 557 77 521 36 q 611 171 593 118 q 629 278 629 224 q 612 383 629 332 q 559 474 594 435 q 470 538 524 514 q 346 563 417 563 q 242 548 292 563 q 151 497 192 533 q 175 597 157 543 q 224 696 193 650 q 303 773 256 742 q 414 804 350 804 q 473 788 442 804 q 526 743 504 771 "},"7":{"ha":613,"x_min":10,"x_max":579,"o":"m 251 0 l 579 854 l 10 854 l 10 699 l 24 699 q 33 741 24 725 q 56 765 42 757 q 88 774 71 772 q 122 776 106 776 l 485 776 l 186 0 l 251 0 "},"8":{"ha":699,"x_min":31,"x_max":633,"o":"m 633 226 q 578 376 633 318 q 436 458 522 433 q 544 540 503 486 q 586 657 586 594 q 563 749 586 710 q 504 815 540 789 q 422 855 468 842 q 328 868 375 868 q 235 855 281 868 q 153 815 189 842 q 97 751 118 789 q 75 661 75 713 q 112 544 75 592 q 228 460 149 496 q 78 366 125 429 q 31 224 31 303 q 56 119 31 164 q 125 45 82 75 q 222 1 168 15 q 333 -14 276 -14 q 449 1 394 -14 q 544 45 503 15 q 609 120 585 75 q 633 226 633 165 m 506 636 q 469 550 506 588 q 371 488 433 513 q 294 519 332 500 q 226 563 256 538 q 178 619 196 588 q 160 689 160 651 q 173 747 160 722 q 207 789 186 772 q 254 814 228 806 q 308 822 281 822 q 380 809 344 822 q 443 772 415 796 q 488 713 471 747 q 506 636 506 678 m 564 197 q 544 131 564 160 q 494 81 524 101 q 426 49 464 61 q 350 38 388 38 q 264 53 306 38 q 190 97 222 68 q 139 163 158 125 q 119 242 119 200 q 133 301 119 274 q 171 353 147 329 q 226 394 194 376 q 294 425 258 413 q 398 385 349 408 q 485 334 447 363 q 543 271 522 306 q 564 197 564 236 "},"9":{"ha":682,"x_min":44,"x_max":629,"o":"m 344 328 q 253 350 293 328 q 187 409 214 372 q 145 492 160 446 q 131 585 131 538 q 142 667 131 626 q 178 738 154 707 q 238 788 203 769 q 321 807 274 807 q 415 783 374 807 q 484 720 456 758 q 527 633 513 682 q 542 536 542 585 q 530 458 542 496 q 494 392 518 421 q 432 345 469 363 q 344 328 394 328 m 149 99 l 135 99 l 135 -1 q 142 -3 132 -1 q 163 -6 153 -4 q 208 -12 179 -8 q 257 -17 238 -17 q 431 29 360 -17 q 547 148 503 75 q 610 313 590 221 q 629 497 629 406 q 612 633 629 568 q 558 748 594 699 q 466 826 522 797 q 331 856 410 856 q 206 831 260 856 q 117 765 153 806 q 63 671 81 724 q 44 564 44 618 q 62 458 44 510 q 115 367 79 407 q 203 303 150 328 q 328 279 257 279 q 433 293 383 279 q 522 343 482 307 q 497 244 515 297 q 445 144 478 190 q 367 71 413 99 q 261 43 321 43 q 202 54 233 38 q 149 99 171 71 "}," ":{"ha":361,"x_min":0,"x_max":0,"o":""}," ":{"ha":361,"x_min":0,"x_max":0,"o":""},"Á":{"ha":819,"x_min":19,"x_max":799,"o":"m 593 14 l 593 0 l 799 0 l 799 14 l 792 14 q 747 40 764 14 q 719 94 729 67 l 408 933 l 90 86 q 62 35 79 57 q 26 14 44 14 l 19 14 l 19 0 l 174 0 l 174 14 l 167 14 q 146 24 156 14 q 136 53 136 35 q 140 74 136 63 l 261 406 l 504 406 l 629 68 q 633 44 633 56 q 600 14 633 14 l 593 14 m 275 453 l 382 743 l 489 453 l 275 453 m 294 956 l 299 947 l 528 1042 l 492 1104 l 294 956 "},"Â":{"ha":819,"x_min":19,"x_max":799,"o":"m 593 14 l 593 0 l 799 0 l 799 14 l 792 14 q 747 40 764 14 q 719 94 729 67 l 408 933 l 90 86 q 62 35 79 57 q 26 14 44 14 l 19 14 l 19 0 l 174 0 l 174 14 l 167 14 q 146 24 156 14 q 136 53 136 35 q 140 74 136 63 l 261 406 l 504 406 l 629 68 q 633 44 633 56 q 600 14 633 14 l 593 14 m 275 453 l 382 743 l 489 453 l 275 453 m 579 951 l 581 958 l 411 1101 l 242 958 l 244 951 l 411 1033 l 579 951 "},"Ä":{"ha":819,"x_min":19,"x_max":799,"o":"m 593 14 l 593 0 l 799 0 l 799 14 l 792 14 q 747 40 764 14 q 719 94 729 67 l 408 933 l 90 86 q 62 35 79 57 q 26 14 44 14 l 19 14 l 19 0 l 174 0 l 174 14 l 167 14 q 146 24 156 14 q 136 53 136 35 q 140 74 136 63 l 261 406 l 504 406 l 629 68 q 633 44 633 56 q 600 14 633 14 l 593 14 m 275 453 l 382 743 l 489 453 l 275 453 m 536 997 q 524 1029 536 1017 q 494 1042 511 1042 q 462 1029 475 1042 q 449 997 449 1017 q 462 965 449 978 q 494 953 475 953 q 524 965 511 953 q 536 997 536 978 m 376 997 q 364 1029 376 1017 q 332 1042 351 1042 q 300 1029 313 1042 q 288 997 288 1017 q 300 965 288 978 q 332 953 313 953 q 364 965 351 953 q 376 997 376 978 "},"À":{"ha":819,"x_min":19,"x_max":799,"o":"m 593 14 l 593 0 l 799 0 l 799 14 l 792 14 q 747 40 764 14 q 719 94 729 67 l 408 933 l 90 86 q 62 35 79 57 q 26 14 44 14 l 19 14 l 19 0 l 174 0 l 174 14 l 167 14 q 146 24 156 14 q 136 53 136 35 q 140 74 136 63 l 261 406 l 504 406 l 629 68 q 633 44 633 56 q 600 14 633 14 l 593 14 m 275 453 l 382 743 l 489 453 l 275 453 m 525 947 l 528 956 l 331 1104 l 294 1042 l 525 947 "},"Å":{"ha":819,"x_min":19,"x_max":799,"o":"m 593 14 l 593 0 l 799 0 l 799 14 l 792 14 q 747 40 764 14 q 719 94 729 67 l 408 933 l 90 86 q 62 35 79 57 q 26 14 44 14 l 19 14 l 19 0 l 174 0 l 174 14 l 167 14 q 146 24 156 14 q 136 53 136 35 q 140 74 136 63 l 261 406 l 504 406 l 629 68 q 633 44 633 56 q 600 14 633 14 l 593 14 m 275 453 l 382 743 l 489 453 l 275 453 m 311 1040 q 340 981 311 1004 q 411 958 368 958 q 483 981 454 958 q 513 1040 513 1004 q 483 1100 513 1076 q 411 1124 454 1124 q 340 1100 368 1124 q 311 1040 311 1076 m 350 1049 q 365 1087 350 1071 q 403 1103 381 1103 q 453 1082 431 1103 q 475 1036 475 1061 q 460 995 475 1011 q 421 979 444 979 q 371 999 392 979 q 350 1049 350 1019 "},"Ã":{"ha":819,"x_min":19,"x_max":799,"o":"m 593 14 l 593 0 l 799 0 l 799 14 l 792 14 q 747 40 764 14 q 719 94 729 67 l 408 933 l 90 86 q 62 35 79 57 q 26 14 44 14 l 19 14 l 19 0 l 174 0 l 174 14 l 167 14 q 146 24 156 14 q 136 53 136 35 q 140 74 136 63 l 261 406 l 504 406 l 629 68 q 633 44 633 56 q 600 14 633 14 l 593 14 m 275 453 l 382 743 l 489 453 l 275 453 m 569 1065 l 564 1067 q 538 1033 553 1047 q 500 1018 522 1018 q 464 1026 483 1018 q 426 1045 444 1035 q 388 1064 407 1056 q 351 1072 368 1072 q 298 1048 324 1072 q 253 965 272 1024 l 260 964 q 292 1004 278 989 q 328 1019 307 1019 q 367 1010 346 1019 q 411 991 389 1001 q 454 972 433 981 q 492 964 475 964 q 537 983 521 964 q 569 1065 553 1003 "},"B":{"ha":679,"x_min":60,"x_max":624,"o":"m 63 14 l 63 0 l 311 0 q 427 14 371 0 q 527 59 483 28 q 597 140 571 90 q 624 261 624 189 q 614 338 624 299 q 580 410 604 376 q 517 471 556 444 q 419 508 478 497 q 467 537 442 519 q 513 579 492 554 q 549 636 535 604 q 563 708 563 668 q 490 860 563 803 q 288 917 417 917 l 60 917 l 60 903 l 67 903 q 87 895 78 903 q 102 876 96 888 q 111 851 108 864 q 114 829 114 839 l 114 90 q 111 66 114 79 q 102 42 108 53 q 88 22 96 31 q 69 14 79 14 l 63 14 m 529 253 l 529 238 q 465 97 529 147 q 288 46 400 46 l 207 46 l 207 476 l 285 476 q 457 418 396 476 q 529 253 518 360 m 472 696 l 472 686 q 464 629 472 658 q 433 576 456 600 q 374 536 411 551 q 279 521 338 521 l 207 521 l 207 871 l 276 871 q 416 824 364 871 q 472 696 468 776 "},"C":{"ha":865,"x_min":54,"x_max":808,"o":"m 551 881 q 617 874 583 881 q 681 853 651 868 q 733 809 711 838 q 764 738 756 781 l 778 738 l 778 892 q 744 895 761 892 q 706 906 726 899 q 640 922 676 914 q 557 931 603 931 q 335 889 429 931 q 178 780 240 847 q 85 628 115 713 q 54 457 54 543 q 85 287 54 371 q 176 136 115 203 q 329 28 238 69 q 542 -14 421 -14 q 634 -6 590 -14 q 714 13 678 3 q 765 25 742 19 q 808 31 788 31 l 808 185 l 794 185 q 751 108 779 138 q 689 63 722 79 q 622 42 656 47 q 563 36 588 36 q 400 73 475 36 q 269 170 325 110 q 181 309 213 231 q 149 469 149 388 q 173 615 149 542 q 247 748 197 689 q 373 844 297 807 q 551 881 449 881 "},"Æ":{"ha":1111,"x_min":21,"x_max":1061,"o":"m 946 408 l 946 401 l 960 401 l 960 589 l 946 589 l 946 582 q 924 536 946 556 q 871 517 903 517 l 669 517 l 669 868 l 925 868 q 991 844 969 868 q 1013 788 1013 819 l 1013 781 l 1026 781 l 1026 917 l 522 917 l 522 903 l 529 903 q 560 887 544 903 q 575 851 575 871 l 111 89 q 71 38 93 61 q 28 14 49 14 l 21 14 l 21 0 l 175 0 l 175 14 l 168 14 q 143 39 143 14 q 149 60 143 49 q 160 79 154 71 l 399 471 l 576 471 l 576 88 q 573 64 576 76 q 563 40 569 51 q 549 22 557 29 q 529 14 540 14 l 522 14 l 522 0 l 1061 0 l 1061 179 l 1047 179 l 1047 172 q 1041 133 1047 154 q 1022 92 1035 111 q 990 61 1010 74 q 944 49 971 49 l 669 49 l 669 469 l 871 469 q 925 451 904 469 q 946 408 946 433 m 576 517 l 428 517 l 576 764 l 576 517 "},"Ç":{"ha":861,"x_min":50,"x_max":804,"o":"m 549 -14 q 633 -3 592 -11 q 708 13 675 4 q 760 25 736 19 q 804 31 783 31 l 804 185 l 790 185 q 744 110 774 138 q 683 67 715 83 q 617 46 650 51 q 558 40 583 40 q 396 75 471 40 q 265 170 321 110 q 176 309 208 231 q 144 469 144 388 q 169 615 144 542 q 243 748 193 689 q 369 844 293 807 q 547 881 444 881 q 613 874 579 881 q 677 853 647 868 q 729 809 707 838 q 760 738 751 781 l 774 738 l 774 892 q 740 895 757 892 q 701 906 722 899 q 635 922 672 914 q 553 931 599 931 q 331 889 425 931 q 174 780 236 847 q 81 628 111 713 q 50 457 50 543 q 78 292 50 374 q 164 144 107 210 q 306 35 221 78 q 504 -12 390 -7 l 460 -85 q 539 -113 511 -92 q 567 -158 567 -135 q 529 -210 567 -187 q 439 -233 492 -233 l 424 -233 l 424 -244 q 433 -245 428 -244 q 443 -246 439 -246 q 460 -248 451 -247 q 478 -249 468 -249 q 594 -218 553 -249 q 635 -151 635 -187 q 606 -99 635 -122 q 515 -69 578 -76 q 549 -14 531 -40 "},"D":{"ha":856,"x_min":61,"x_max":799,"o":"m 61 14 l 61 0 l 311 0 q 524 40 432 0 q 676 143 615 79 q 768 288 738 207 q 799 454 799 369 q 767 628 799 544 q 674 776 735 711 q 526 878 614 840 q 329 917 439 917 l 61 917 l 61 903 l 68 903 q 88 895 79 903 q 101 876 96 888 q 110 853 107 865 q 113 831 113 840 l 113 90 q 110 66 113 79 q 101 42 107 53 q 86 22 94 31 q 68 14 78 14 l 61 14 m 704 433 q 666 263 704 335 q 567 142 628 190 q 430 72 506 94 q 279 49 354 49 l 206 49 l 206 868 l 276 868 q 447 833 368 868 q 583 740 525 799 q 672 601 640 681 q 704 433 704 522 "},"E":{"ha":674,"x_min":63,"x_max":632,"o":"m 63 14 l 63 0 l 632 0 l 632 163 l 618 163 q 612 128 618 149 q 592 91 606 108 q 560 61 579 74 q 514 49 540 49 l 210 49 l 210 469 l 440 469 q 494 451 474 469 q 515 408 515 433 l 529 408 l 529 582 l 515 582 q 494 536 515 556 q 440 517 472 517 l 210 517 l 210 868 l 489 868 q 558 844 536 868 q 583 788 581 819 l 597 788 l 597 917 l 63 917 l 63 903 l 69 903 q 89 895 81 903 q 103 876 97 888 q 113 853 110 865 q 117 831 117 840 l 117 88 q 113 64 117 76 q 103 40 110 51 q 89 22 97 29 q 69 14 81 14 l 63 14 "},"É":{"ha":674,"x_min":63,"x_max":632,"o":"m 63 14 l 63 0 l 632 0 l 632 163 l 618 163 q 612 128 618 149 q 592 91 606 108 q 560 61 579 74 q 514 49 540 49 l 210 49 l 210 469 l 440 469 q 494 451 474 469 q 515 408 515 433 l 529 408 l 529 582 l 515 582 q 494 536 515 556 q 440 517 472 517 l 210 517 l 210 868 l 489 868 q 558 844 536 868 q 583 788 581 819 l 597 788 l 597 917 l 63 917 l 63 903 l 69 903 q 89 895 81 903 q 103 876 97 888 q 113 853 110 865 q 117 831 117 840 l 117 88 q 113 64 117 76 q 103 40 110 51 q 89 22 97 29 q 69 14 81 14 l 63 14 m 219 956 l 224 947 l 453 1042 l 417 1104 l 219 956 "},"Ê":{"ha":674,"x_min":63,"x_max":632,"o":"m 63 14 l 63 0 l 632 0 l 632 163 l 618 163 q 612 128 618 149 q 592 91 606 108 q 560 61 579 74 q 514 49 540 49 l 210 49 l 210 469 l 440 469 q 494 451 474 469 q 515 408 515 433 l 529 408 l 529 582 l 515 582 q 494 536 515 556 q 440 517 472 517 l 210 517 l 210 868 l 489 868 q 558 844 536 868 q 583 788 581 819 l 597 788 l 597 917 l 63 917 l 63 903 l 69 903 q 89 895 81 903 q 103 876 97 888 q 113 853 110 865 q 117 831 117 840 l 117 88 q 113 64 117 76 q 103 40 110 51 q 89 22 97 29 q 69 14 81 14 l 63 14 m 504 951 l 506 958 l 336 1101 l 167 958 l 169 951 l 336 1033 l 504 951 "},"Ë":{"ha":674,"x_min":63,"x_max":632,"o":"m 63 14 l 63 0 l 632 0 l 632 163 l 618 163 q 612 128 618 149 q 592 91 606 108 q 560 61 579 74 q 514 49 540 49 l 210 49 l 210 469 l 440 469 q 494 451 474 469 q 515 408 515 433 l 529 408 l 529 582 l 515 582 q 494 536 515 556 q 440 517 472 517 l 210 517 l 210 868 l 489 868 q 558 844 536 868 q 583 788 581 819 l 597 788 l 597 917 l 63 917 l 63 903 l 69 903 q 89 895 81 903 q 103 876 97 888 q 113 853 110 865 q 117 831 117 840 l 117 88 q 113 64 117 76 q 103 40 110 51 q 89 22 97 29 q 69 14 81 14 l 63 14 m 460 997 q 447 1029 460 1017 q 418 1042 435 1042 q 385 1029 399 1042 q 372 997 372 1017 q 385 965 372 978 q 418 953 399 953 q 447 965 435 953 q 460 997 460 978 m 300 997 q 288 1029 300 1017 q 256 1042 275 1042 q 224 1029 236 1042 q 211 997 211 1017 q 224 965 211 978 q 256 953 236 953 q 288 965 275 953 q 300 997 300 978 "},"È":{"ha":674,"x_min":63,"x_max":632,"o":"m 63 14 l 63 0 l 632 0 l 632 163 l 618 163 q 612 128 618 149 q 592 91 606 108 q 560 61 579 74 q 514 49 540 49 l 210 49 l 210 469 l 440 469 q 494 451 474 469 q 515 408 515 433 l 529 408 l 529 582 l 515 582 q 494 536 515 556 q 440 517 472 517 l 210 517 l 210 868 l 489 868 q 558 844 536 868 q 583 788 581 819 l 597 788 l 597 917 l 63 917 l 63 903 l 69 903 q 89 895 81 903 q 103 876 97 888 q 113 853 110 865 q 117 831 117 840 l 117 88 q 113 64 117 76 q 103 40 110 51 q 89 22 97 29 q 69 14 81 14 l 63 14 m 450 954 l 453 963 l 256 1104 l 219 1042 l 450 954 "},"Ð":{"ha":856,"x_min":43,"x_max":799,"o":"m 63 917 l 63 903 l 69 903 q 88 895 79 903 q 102 876 96 888 q 111 853 108 865 q 114 831 114 840 l 114 488 l 43 488 l 43 432 l 114 432 l 114 90 q 111 66 114 79 q 102 42 108 53 q 88 22 96 31 q 69 14 79 14 l 63 14 l 63 0 l 311 0 q 524 40 432 0 q 676 143 615 79 q 768 288 738 207 q 799 454 799 369 q 767 628 799 544 q 674 776 735 711 q 526 878 614 840 q 329 917 439 917 l 63 917 m 704 433 q 666 263 704 335 q 567 142 628 190 q 430 72 506 94 q 279 49 354 49 l 206 49 l 206 432 l 449 432 l 449 488 l 206 488 l 206 868 l 276 868 q 447 833 368 868 q 583 740 525 799 q 672 601 640 681 q 704 433 704 522 "},"€":{"ha":740,"x_min":17,"x_max":600,"o":"m 600 33 l 600 186 l 588 186 q 567 121 582 149 q 533 74 553 93 q 492 47 514 56 q 451 38 471 38 q 363 65 401 38 q 293 136 324 92 q 240 237 263 181 q 203 353 218 293 l 578 353 l 578 406 l 193 406 q 185 460 188 432 q 183 517 183 489 l 183 535 l 579 535 l 579 589 l 188 589 q 215 695 196 643 q 263 788 235 747 q 328 853 292 828 q 406 878 364 878 q 453 872 429 878 q 499 851 478 867 q 538 810 521 836 q 565 743 556 783 l 579 743 l 579 893 q 549 897 565 893 q 514 908 533 901 q 466 922 490 915 q 419 929 442 929 q 317 906 367 929 q 227 840 268 883 q 155 733 186 796 q 108 589 124 669 l 17 589 l 17 535 l 101 535 q 99 497 99 517 q 99 458 99 476 q 99 430 99 443 q 101 406 100 417 l 17 406 l 17 353 l 106 353 q 150 199 118 267 q 226 83 182 131 q 322 11 269 36 q 431 -14 375 -14 q 497 -4 468 -14 q 544 15 525 6 l 553 19 q 578 30 567 26 q 600 33 589 33 "},"F":{"ha":639,"x_min":64,"x_max":597,"o":"m 256 14 q 236 22 244 14 q 222 40 228 29 q 213 64 215 51 q 210 88 210 76 l 210 469 l 440 469 q 494 451 474 469 q 515 408 515 433 l 529 408 l 529 582 l 515 582 q 494 536 515 556 q 440 517 472 517 l 210 517 l 210 868 l 494 868 q 562 844 540 868 q 583 788 583 819 l 597 788 l 597 917 l 64 917 l 64 903 l 71 903 q 91 895 82 903 q 106 876 100 888 q 114 853 111 865 q 117 831 117 840 l 117 88 q 114 64 117 76 q 105 40 111 51 q 90 22 99 29 q 71 14 82 14 l 64 14 l 64 0 l 263 0 l 263 14 l 256 14 "},"G":{"ha":913,"x_min":51,"x_max":858,"o":"m 660 483 l 660 469 l 667 469 q 686 462 678 469 q 701 443 694 454 q 710 419 707 432 q 713 397 713 407 l 713 71 q 635 42 674 49 q 569 36 596 36 q 395 74 474 36 q 261 174 317 113 q 175 315 206 236 q 144 474 144 393 q 168 619 144 546 q 240 750 192 692 q 365 845 289 808 q 546 882 442 882 q 612 877 576 882 q 679 858 647 872 q 735 818 711 844 q 768 749 760 792 l 782 749 l 782 896 l 769 896 q 747 899 760 896 q 715 907 733 903 q 642 922 683 914 q 551 931 600 931 q 328 890 422 931 q 173 782 235 849 q 81 631 111 715 q 51 460 51 546 q 81 289 51 374 q 172 137 111 204 q 326 28 233 69 q 544 -14 419 -14 q 611 -11 575 -14 q 682 -3 647 -8 q 749 8 717 1 q 806 25 781 15 l 806 397 q 809 419 806 407 q 818 443 813 432 q 832 462 824 454 q 851 469 840 469 l 858 469 l 858 483 l 660 483 "},"H":{"ha":864,"x_min":79,"x_max":811,"o":"m 617 14 l 617 0 l 811 0 l 811 14 l 804 14 q 787 22 794 14 q 774 42 779 31 q 765 66 768 53 q 761 90 761 79 l 761 831 q 764 853 761 840 q 772 876 767 865 q 785 895 776 888 q 804 903 793 903 l 811 903 l 811 917 l 617 917 l 617 903 l 624 903 q 643 895 635 903 q 657 876 651 888 q 665 853 663 865 q 668 831 668 840 l 668 517 l 224 517 l 224 831 q 226 853 224 840 q 234 876 229 865 q 247 895 239 888 q 267 903 256 903 l 274 903 l 274 917 l 79 917 l 79 903 l 86 903 q 106 895 97 903 q 119 876 114 888 q 128 853 125 865 q 131 831 131 840 l 131 90 q 128 66 131 79 q 119 41 125 53 q 104 22 113 29 q 86 14 96 14 l 79 14 l 79 0 l 274 0 l 274 14 l 267 14 q 248 22 256 14 q 235 42 240 31 q 226 66 229 53 q 224 90 224 79 l 224 468 l 668 468 l 668 90 q 665 66 668 79 q 656 41 663 53 q 642 22 650 29 q 624 14 633 14 l 617 14 "},"I":{"ha":338,"x_min":68,"x_max":267,"o":"m 68 917 l 68 903 l 75 903 q 94 895 86 903 q 109 876 103 888 q 118 853 115 865 q 121 831 121 840 l 121 90 q 118 66 121 79 q 109 41 115 53 q 94 22 103 29 q 75 14 86 14 l 68 14 l 68 0 l 267 0 l 267 14 l 260 14 q 241 22 249 14 q 227 42 233 31 q 218 66 221 53 q 215 90 215 79 l 215 831 q 219 853 215 840 q 228 877 222 867 q 242 895 233 888 q 260 903 250 903 l 267 903 l 267 917 l 68 917 "},"Í":{"ha":338,"x_min":51,"x_max":285,"o":"m 68 917 l 68 903 l 75 903 q 94 895 86 903 q 109 876 103 888 q 118 853 115 865 q 121 831 121 840 l 121 90 q 118 66 121 79 q 109 41 115 53 q 94 22 103 29 q 75 14 86 14 l 68 14 l 68 0 l 267 0 l 267 14 l 260 14 q 241 22 249 14 q 227 42 233 31 q 218 66 221 53 q 215 90 215 79 l 215 831 q 219 853 215 840 q 228 877 222 867 q 242 895 233 888 q 260 903 250 903 l 267 903 l 267 917 l 68 917 m 51 956 l 56 947 l 285 1042 l 249 1104 l 51 956 "},"Î":{"ha":338,"x_min":-1,"x_max":338,"o":"m 68 917 l 68 903 l 75 903 q 94 895 86 903 q 109 876 103 888 q 118 853 115 865 q 121 831 121 840 l 121 90 q 118 66 121 79 q 109 41 115 53 q 94 22 103 29 q 75 14 86 14 l 68 14 l 68 0 l 267 0 l 267 14 l 260 14 q 241 22 249 14 q 227 42 233 31 q 218 66 221 53 q 215 90 215 79 l 215 831 q 219 853 215 840 q 228 877 222 867 q 242 895 233 888 q 260 903 250 903 l 267 903 l 267 917 l 68 917 m 336 951 l 338 958 l 168 1101 l -1 958 l 1 951 l 168 1033 l 336 951 "},"Ï":{"ha":338,"x_min":43,"x_max":292,"o":"m 68 917 l 68 903 l 75 903 q 94 895 86 903 q 109 876 103 888 q 118 853 115 865 q 121 831 121 840 l 121 90 q 118 66 121 79 q 109 41 115 53 q 94 22 103 29 q 75 14 86 14 l 68 14 l 68 0 l 267 0 l 267 14 l 260 14 q 241 22 249 14 q 227 42 233 31 q 218 66 221 53 q 215 90 215 79 l 215 831 q 219 853 215 840 q 228 877 222 867 q 242 895 233 888 q 260 903 250 903 l 267 903 l 267 917 l 68 917 m 292 997 q 279 1029 292 1017 q 250 1042 267 1042 q 217 1029 231 1042 q 204 997 204 1017 q 217 965 204 978 q 250 953 231 953 q 279 965 267 953 q 292 997 292 978 m 132 997 q 119 1029 132 1017 q 88 1042 107 1042 q 56 1029 68 1042 q 43 997 43 1017 q 56 965 43 978 q 88 953 68 953 q 119 965 107 953 q 132 997 132 978 "},"Ì":{"ha":338,"x_min":51,"x_max":285,"o":"m 68 917 l 68 903 l 75 903 q 94 895 86 903 q 109 876 103 888 q 118 853 115 865 q 121 831 121 840 l 121 90 q 118 66 121 79 q 109 41 115 53 q 94 22 103 29 q 75 14 86 14 l 68 14 l 68 0 l 267 0 l 267 14 l 260 14 q 241 22 249 14 q 227 42 233 31 q 218 66 221 53 q 215 90 215 79 l 215 831 q 219 853 215 840 q 228 877 222 867 q 242 895 233 888 q 260 903 250 903 l 267 903 l 267 917 l 68 917 m 282 947 l 285 956 l 88 1104 l 51 1042 l 282 947 "},"J":{"ha":375,"x_min":-18,"x_max":304,"o":"m 104 917 l 104 903 l 111 903 q 129 895 121 903 q 144 876 138 888 q 153 851 150 864 q 156 829 156 839 l 156 35 q 128 -100 156 -42 q 68 -199 100 -158 q -18 -281 31 -246 l -11 -292 q 119 -206 63 -257 q 167 -156 144 -183 q 209 -97 190 -129 q 239 -26 228 -64 q 250 56 250 11 l 250 829 q 253 851 250 839 q 263 876 257 864 q 278 895 269 888 q 297 903 286 903 l 304 903 l 304 917 l 104 917 "},"K":{"ha":786,"x_min":63,"x_max":758,"o":"m 254 14 q 235 22 243 14 q 221 42 226 31 q 212 67 215 54 q 208 90 208 79 l 208 438 l 267 497 l 536 90 q 569 49 553 65 q 606 21 585 32 q 655 5 626 10 q 725 0 683 0 l 758 0 l 758 14 q 717 26 738 14 q 681 53 697 38 q 654 82 665 68 q 642 99 643 96 l 335 564 l 626 854 q 668 889 647 875 q 708 903 689 903 l 715 903 l 715 917 l 546 917 l 546 903 l 553 903 q 569 881 569 903 q 561 858 569 868 l 208 508 l 208 831 q 212 853 208 840 q 222 876 215 865 q 236 895 228 888 q 256 903 244 903 l 263 903 l 263 917 l 64 917 l 64 903 l 71 903 q 89 895 81 903 q 103 876 97 888 q 113 853 110 865 q 115 831 115 840 l 115 90 q 113 66 115 79 q 103 42 110 53 q 89 22 97 31 q 69 14 81 14 l 63 14 l 63 0 l 261 0 l 261 14 l 254 14 "},"L":{"ha":646,"x_min":63,"x_max":632,"o":"m 63 14 l 63 0 l 632 0 l 632 175 l 618 175 q 612 135 618 157 q 592 95 606 114 q 560 64 579 76 q 514 51 540 51 l 210 51 l 210 831 q 213 853 210 840 q 222 876 217 865 q 236 895 228 888 q 256 903 244 903 l 263 903 l 263 917 l 63 917 l 63 903 l 69 903 q 89 895 81 903 q 103 876 97 888 q 113 853 110 865 q 117 831 117 840 l 117 88 q 113 64 117 76 q 103 40 110 51 q 89 22 97 29 q 69 14 81 14 l 63 14 "},"M":{"ha":1079,"x_min":64,"x_max":1007,"o":"m 810 14 l 810 0 l 1007 0 l 1007 14 l 1000 14 q 981 22 989 14 q 966 42 972 31 q 957 66 960 53 q 954 90 954 79 l 954 831 q 957 853 954 840 q 966 876 960 865 q 981 895 972 888 q 1000 903 989 903 l 1007 903 l 1007 917 l 850 917 l 528 157 l 206 917 l 64 917 l 64 903 l 71 903 q 89 895 81 903 q 103 876 97 888 q 111 853 108 865 q 114 831 114 840 l 114 90 q 111 66 114 79 q 103 42 108 53 q 89 22 97 31 q 71 14 81 14 l 64 14 l 64 0 l 215 0 l 215 14 l 208 14 q 189 22 197 14 q 174 42 181 31 q 165 66 168 53 q 163 90 163 79 l 163 778 l 503 -15 l 861 821 l 861 90 q 858 66 861 79 q 849 42 856 53 q 835 22 843 31 q 817 14 826 14 l 810 14 "},"N":{"ha":872,"x_min":58,"x_max":804,"o":"m 208 14 q 189 22 197 14 q 174 42 181 31 q 165 66 168 53 q 163 90 163 79 l 163 797 l 665 0 l 751 0 l 751 831 q 754 853 751 840 q 763 876 757 865 q 778 895 769 888 q 797 903 786 903 l 804 903 l 804 917 l 649 917 l 649 903 l 656 903 q 675 895 667 903 q 690 876 683 888 q 699 853 696 865 q 703 831 703 840 l 703 122 l 199 917 l 58 917 l 58 903 l 65 903 q 89 895 79 903 q 104 876 99 888 q 112 853 110 865 q 114 831 114 840 l 114 90 q 110 66 114 79 q 101 42 107 53 q 87 22 96 31 q 68 14 78 14 l 61 14 l 61 0 l 215 0 l 215 14 l 208 14 "},"A":{"ha":819,"x_min":19,"x_max":799,"o":"m 593 14 l 593 0 l 799 0 l 799 14 l 792 14 q 747 40 764 14 q 719 94 729 67 l 408 933 l 90 86 q 62 35 79 57 q 26 14 44 14 l 19 14 l 19 0 l 174 0 l 174 14 l 167 14 q 146 24 156 14 q 136 53 136 35 q 140 74 136 63 l 261 406 l 504 406 l 629 68 q 633 44 633 56 q 600 14 633 14 l 593 14 m 275 453 l 382 743 l 489 453 l 275 453 "},"Ñ":{"ha":872,"x_min":58,"x_max":804,"o":"m 208 14 q 189 22 197 14 q 174 42 181 31 q 165 66 168 53 q 163 90 163 79 l 163 797 l 665 0 l 751 0 l 751 831 q 754 853 751 840 q 763 876 757 865 q 778 895 769 888 q 797 903 786 903 l 804 903 l 804 917 l 649 917 l 649 903 l 656 903 q 675 895 667 903 q 690 876 683 888 q 699 853 696 865 q 703 831 703 840 l 703 122 l 199 917 l 58 917 l 58 903 l 65 903 q 89 895 79 903 q 104 876 99 888 q 112 853 110 865 q 114 831 114 840 l 114 90 q 110 66 114 79 q 101 42 107 53 q 87 22 96 31 q 68 14 78 14 l 61 14 l 61 0 l 215 0 l 215 14 l 208 14 m 593 1065 l 588 1067 q 561 1033 576 1047 q 524 1018 546 1018 q 488 1026 507 1018 q 449 1045 468 1035 q 411 1064 431 1056 q 375 1072 392 1072 q 322 1048 347 1072 q 276 965 296 1024 l 283 964 q 316 1004 301 989 q 351 1019 331 1019 q 391 1010 369 1019 q 435 991 413 1001 q 478 972 457 981 q 515 964 499 964 q 560 983 544 964 q 593 1065 576 1003 "},"O":{"ha":1057,"x_min":51,"x_max":997,"o":"m 531 931 q 328 889 417 931 q 177 779 239 847 q 83 624 115 711 q 51 449 51 538 q 83 275 51 358 q 174 128 115 192 q 319 25 233 64 q 511 -14 404 -14 q 699 22 611 -14 q 854 119 788 57 q 959 269 921 182 q 997 461 997 357 q 965 640 997 554 q 872 790 932 725 q 725 892 811 854 q 531 931 639 931 m 529 35 q 376 74 446 35 q 254 175 306 113 q 174 315 203 238 q 144 468 144 392 q 169 613 144 539 q 242 746 194 686 q 358 844 290 806 q 513 882 426 882 q 673 842 601 882 q 796 740 744 803 q 875 599 847 676 q 903 444 903 521 q 880 304 903 375 q 810 174 857 233 q 692 77 763 115 q 529 35 622 39 "},"Œ":{"ha":1240,"x_min":63,"x_max":1183,"o":"m 1183 171 l 1169 171 q 1163 131 1169 153 q 1144 91 1157 110 q 1111 60 1131 72 q 1065 47 1092 47 l 775 47 l 775 468 l 993 468 q 1046 450 1025 468 q 1067 407 1067 432 l 1081 407 l 1081 581 l 1067 581 q 1046 535 1067 554 q 993 515 1025 515 l 775 515 l 775 867 l 1046 867 q 1113 842 1092 867 q 1135 786 1135 818 l 1149 786 l 1149 915 l 646 915 q 588 926 618 922 q 528 929 558 929 q 327 888 414 929 q 181 778 240 846 q 92 624 122 711 q 63 447 63 538 q 92 274 63 357 q 178 126 121 190 q 318 24 235 63 q 508 -15 401 -15 q 636 1 574 -15 l 1183 1 l 1183 171 m 154 467 q 177 611 154 538 q 245 744 200 685 q 357 842 290 804 q 510 881 424 881 q 599 870 554 881 q 682 833 644 860 l 682 71 q 608 44 649 56 q 526 33 568 33 q 374 72 443 33 q 257 174 306 111 q 181 313 208 236 q 154 467 154 390 "},"Ó":{"ha":1057,"x_min":51,"x_max":997,"o":"m 531 931 q 328 889 417 931 q 177 779 239 847 q 83 624 115 711 q 51 449 51 538 q 83 275 51 358 q 174 128 115 192 q 319 25 233 64 q 511 -14 404 -14 q 699 22 611 -14 q 854 119 788 57 q 959 269 921 182 q 997 461 997 357 q 965 640 997 554 q 872 790 932 725 q 725 892 811 854 q 531 931 639 931 m 529 35 q 376 74 446 35 q 254 175 306 113 q 174 315 203 238 q 144 468 144 392 q 169 613 144 539 q 242 746 194 686 q 358 844 290 806 q 513 882 426 882 q 673 842 601 882 q 796 740 744 803 q 875 599 847 676 q 903 444 903 521 q 880 304 903 375 q 810 174 857 233 q 692 77 763 115 q 529 35 622 39 m 411 956 l 415 947 l 644 1042 l 608 1104 l 411 956 "},"Ô":{"ha":1057,"x_min":51,"x_max":997,"o":"m 531 931 q 328 889 417 931 q 177 779 239 847 q 83 624 115 711 q 51 449 51 538 q 83 275 51 358 q 174 128 115 192 q 319 25 233 64 q 511 -14 404 -14 q 699 22 611 -14 q 854 119 788 57 q 959 269 921 182 q 997 461 997 357 q 965 640 997 554 q 872 790 932 725 q 725 892 811 854 q 531 931 639 931 m 529 35 q 376 74 446 35 q 254 175 306 113 q 174 315 203 238 q 144 468 144 392 q 169 613 144 539 q 242 746 194 686 q 358 844 290 806 q 513 882 426 882 q 673 842 601 882 q 796 740 744 803 q 875 599 847 676 q 903 444 903 521 q 880 304 903 375 q 810 174 857 233 q 692 77 763 115 q 529 35 622 39 m 696 951 l 697 958 l 528 1101 l 358 958 l 361 951 l 528 1033 l 696 951 "},"Ö":{"ha":1057,"x_min":51,"x_max":997,"o":"m 531 931 q 328 889 417 931 q 177 779 239 847 q 83 624 115 711 q 51 449 51 538 q 83 275 51 358 q 174 128 115 192 q 319 25 233 64 q 511 -14 404 -14 q 699 22 611 -14 q 854 119 788 57 q 959 269 921 182 q 997 461 997 357 q 965 640 997 554 q 872 790 932 725 q 725 892 811 854 q 531 931 639 931 m 529 35 q 376 74 446 35 q 254 175 306 113 q 174 315 203 238 q 144 468 144 392 q 169 613 144 539 q 242 746 194 686 q 358 844 290 806 q 513 882 426 882 q 673 842 601 882 q 796 740 744 803 q 875 599 847 676 q 903 444 903 521 q 880 304 903 375 q 810 174 857 233 q 692 77 763 115 q 529 35 622 39 m 651 997 q 639 1029 651 1017 q 610 1042 626 1042 q 577 1029 590 1042 q 564 997 564 1017 q 577 965 564 978 q 610 953 590 953 q 639 965 626 953 q 651 997 651 978 m 492 997 q 479 1029 492 1017 q 447 1042 467 1042 q 415 1029 428 1042 q 403 997 403 1017 q 415 965 403 978 q 447 953 428 953 q 479 965 467 953 q 492 997 492 978 "},"Ò":{"ha":1057,"x_min":51,"x_max":997,"o":"m 531 931 q 328 889 417 931 q 177 779 239 847 q 83 624 115 711 q 51 449 51 538 q 83 275 51 358 q 174 128 115 192 q 319 25 233 64 q 511 -14 404 -14 q 699 22 611 -14 q 854 119 788 57 q 959 269 921 182 q 997 461 997 357 q 965 640 997 554 q 872 790 932 725 q 725 892 811 854 q 531 931 639 931 m 529 35 q 376 74 446 35 q 254 175 306 113 q 174 315 203 238 q 144 468 144 392 q 169 613 144 539 q 242 746 194 686 q 358 844 290 806 q 513 882 426 882 q 673 842 601 882 q 796 740 744 803 q 875 599 847 676 q 903 444 903 521 q 880 304 903 375 q 810 174 857 233 q 692 77 763 115 q 529 35 622 39 m 642 947 l 644 956 l 447 1104 l 411 1042 l 642 947 "},"Ø":{"ha":1057,"x_min":51,"x_max":997,"o":"m 531 931 q 328 889 417 931 q 177 779 239 847 q 83 624 115 711 q 51 449 51 538 q 71 314 51 379 q 128 191 90 249 q 218 88 165 133 q 338 17 271 43 l 300 -85 l 357 -85 l 389 1 q 511 -14 450 -14 q 699 22 611 -14 q 854 119 788 57 q 959 269 921 182 q 997 461 997 357 q 978 598 997 532 q 922 721 958 664 q 834 823 886 778 q 717 896 782 868 l 753 992 l 697 992 l 667 911 q 531 931 601 931 m 144 468 q 169 613 144 539 q 242 746 194 686 q 358 844 290 806 q 513 882 426 882 q 647 854 583 882 l 361 83 q 273 156 313 113 q 205 251 233 200 q 160 358 176 303 q 144 468 144 414 m 529 35 q 408 57 468 35 l 693 829 q 781 755 742 799 q 847 660 819 711 q 888 553 874 608 q 903 444 903 499 q 880 304 903 375 q 810 174 857 233 q 692 77 763 115 q 529 35 622 39 "},"Õ":{"ha":1057,"x_min":51,"x_max":997,"o":"m 531 931 q 328 889 417 931 q 177 779 239 847 q 83 624 115 711 q 51 449 51 538 q 83 275 51 358 q 174 128 115 192 q 319 25 233 64 q 511 -14 404 -14 q 699 22 611 -14 q 854 119 788 57 q 959 269 921 182 q 997 461 997 357 q 965 640 997 554 q 872 790 932 725 q 725 892 811 854 q 531 931 639 931 m 529 35 q 376 74 446 35 q 254 175 306 113 q 174 315 203 238 q 144 468 144 392 q 169 613 144 539 q 242 746 194 686 q 358 844 290 806 q 513 882 426 882 q 673 842 601 882 q 796 740 744 803 q 875 599 847 676 q 903 444 903 521 q 880 304 903 375 q 810 174 857 233 q 692 77 763 115 q 529 35 622 39 m 686 1065 l 681 1067 q 654 1033 669 1047 q 617 1018 639 1018 q 581 1026 600 1018 q 542 1045 561 1035 q 504 1064 524 1056 q 468 1072 485 1072 q 415 1048 440 1072 q 369 965 389 1024 l 376 964 q 409 1004 394 989 q 444 1019 424 1019 q 484 1010 463 1019 q 528 991 506 1001 q 571 972 550 981 q 608 964 592 964 q 653 983 638 964 q 686 1065 669 1003 "},"P":{"ha":628,"x_min":61,"x_max":572,"o":"m 61 917 l 61 903 l 68 903 q 100 875 89 900 q 111 831 111 850 l 111 90 q 108 66 111 79 q 100 42 106 53 q 86 22 94 31 q 68 14 78 14 l 61 14 l 61 0 l 257 0 l 257 14 l 250 14 q 231 22 239 14 q 217 42 224 31 q 208 66 211 53 q 206 90 206 79 l 206 444 l 258 444 q 370 461 314 444 q 472 509 426 478 q 544 586 517 540 q 572 690 572 632 q 492 858 572 799 q 258 917 413 917 l 61 917 m 206 868 l 225 868 q 344 852 296 868 q 423 809 393 836 q 466 747 453 782 q 479 671 479 711 q 464 606 479 638 q 419 549 449 574 q 347 508 390 524 q 247 493 303 493 l 206 493 l 206 868 "},"Q":{"ha":1071,"x_min":56,"x_max":1797,"o":"m 533 931 q 332 889 421 931 q 181 779 243 847 q 88 624 119 711 q 56 449 56 538 q 90 278 56 361 q 185 130 125 194 q 328 26 246 65 q 508 -14 411 -14 q 574 -10 539 -14 q 642 3 608 -6 q 705 23 675 11 q 758 50 735 35 l 806 0 q 933 -113 869 -68 q 1061 -185 997 -158 q 1189 -222 1125 -211 q 1317 -233 1253 -233 q 1447 -220 1381 -233 q 1575 -182 1513 -207 q 1694 -119 1638 -157 q 1797 -31 1751 -81 l 1789 -18 q 1689 -83 1742 -56 q 1583 -126 1636 -110 q 1477 -151 1529 -143 q 1379 -160 1425 -160 q 1263 -146 1326 -160 q 1133 -105 1199 -132 q 1004 -38 1068 -78 q 886 51 940 1 l 840 103 q 902 170 874 133 q 953 251 931 207 q 988 349 975 296 q 1000 464 1000 401 q 967 633 1000 550 q 874 783 935 717 q 728 890 814 849 q 533 931 642 931 m 532 35 q 378 74 449 35 q 257 175 308 113 q 177 315 206 238 q 149 469 149 393 q 174 613 149 540 q 246 746 199 686 q 362 844 293 806 q 517 882 431 882 q 676 842 604 882 q 799 740 749 803 q 878 598 850 676 q 907 443 907 519 q 883 304 907 375 q 813 174 860 233 q 696 77 767 115 q 532 35 625 39 "},"R":{"ha":750,"x_min":63,"x_max":729,"o":"m 251 14 q 233 22 240 14 q 219 42 225 31 q 210 66 213 53 q 207 90 207 79 l 207 471 q 240 466 222 468 q 272 463 257 464 q 395 276 333 371 q 519 90 457 182 q 578 27 543 54 q 669 0 614 0 l 729 0 l 729 14 q 699 22 714 14 q 672 42 685 29 q 647 69 658 54 q 625 99 635 85 q 551 209 589 156 q 478 318 514 263 l 378 471 q 462 497 422 479 q 531 542 501 514 q 577 610 560 571 q 594 703 594 650 q 519 863 594 808 q 304 917 443 917 l 63 917 l 63 903 l 69 903 q 88 895 79 903 q 102 876 96 888 q 111 853 108 865 q 114 831 114 840 l 114 90 q 111 66 114 79 q 102 42 108 53 q 88 22 96 31 q 69 14 79 14 l 63 14 l 63 0 l 258 0 l 258 14 l 251 14 m 207 869 l 228 869 q 338 863 288 869 q 423 836 388 856 q 478 783 458 817 q 499 697 499 750 q 480 610 499 644 q 433 553 461 575 q 372 523 404 532 q 310 514 339 514 q 249 515 274 514 q 214 517 225 515 l 207 517 l 207 869 "},"S":{"ha":681,"x_min":50,"x_max":625,"o":"m 625 246 q 601 354 625 310 q 538 429 576 399 q 451 481 500 460 q 356 519 403 501 q 276 551 314 535 q 208 589 238 568 q 162 638 179 610 q 144 704 144 665 q 152 759 144 728 q 181 817 160 790 q 237 863 201 844 q 328 882 272 882 q 478 856 424 882 q 535 758 532 831 l 549 758 l 549 901 q 506 905 528 901 q 460 914 483 908 q 399 926 431 921 q 331 931 367 931 q 227 916 278 931 q 137 872 176 901 q 74 798 97 843 q 50 692 50 753 q 72 594 50 633 q 131 526 94 554 q 213 478 167 497 q 306 440 258 458 q 388 407 347 424 q 459 367 428 390 q 510 312 490 343 q 529 235 529 281 q 516 164 529 199 q 475 101 503 129 q 404 55 447 72 q 301 38 361 38 q 249 42 285 38 q 176 64 213 47 q 113 112 140 81 q 86 196 86 143 l 72 196 l 72 38 q 108 33 90 38 q 149 21 126 28 q 222 0 182 11 q 318 -11 263 -11 q 427 3 372 -11 q 526 47 482 17 q 597 127 569 78 q 625 246 625 176 "},"Š":{"ha":681,"x_min":50,"x_max":625,"o":"m 625 246 q 601 354 625 310 q 538 429 576 399 q 451 481 500 460 q 356 519 403 501 q 276 551 314 535 q 208 589 238 568 q 162 638 179 610 q 144 704 144 665 q 152 759 144 728 q 181 817 160 790 q 237 863 201 844 q 328 882 272 882 q 478 856 424 882 q 535 758 532 831 l 549 758 l 549 901 q 506 905 528 901 q 460 914 483 908 q 399 926 431 921 q 331 931 367 931 q 227 916 278 931 q 137 872 176 901 q 74 798 97 843 q 50 692 50 753 q 72 594 50 633 q 131 526 94 554 q 213 478 167 497 q 306 440 258 458 q 388 407 347 424 q 459 367 428 390 q 510 312 490 343 q 529 235 529 281 q 516 164 529 199 q 475 101 503 129 q 404 55 447 72 q 301 38 361 38 q 249 42 285 38 q 176 64 213 47 q 113 112 140 81 q 86 196 86 143 l 72 196 l 72 38 q 108 33 90 38 q 149 21 126 28 q 222 0 182 11 q 318 -11 263 -11 q 427 3 372 -11 q 526 47 482 17 q 597 127 569 78 q 625 246 625 176 m 172 1097 l 168 1092 l 340 947 l 508 1092 l 506 1097 l 340 1018 l 172 1097 "},"T":{"ha":650,"x_min":13,"x_max":636,"o":"m 414 14 q 395 22 403 14 q 381 42 388 31 q 372 66 375 53 q 369 90 369 79 l 369 865 l 533 865 q 572 856 556 865 q 600 831 589 846 q 617 799 611 817 q 622 765 622 782 l 636 765 l 636 917 l 13 917 l 13 765 l 26 765 q 32 799 26 782 q 49 831 38 817 q 76 856 60 846 q 115 865 93 865 l 276 865 l 276 90 q 274 66 276 79 q 265 42 271 53 q 250 22 258 31 q 231 14 242 14 l 224 14 l 224 0 l 421 0 l 421 14 l 414 14 "},"Þ":{"ha":636,"x_min":61,"x_max":574,"o":"m 253 14 q 234 22 242 14 q 220 42 226 31 q 211 66 214 53 q 208 90 208 79 l 208 333 l 260 333 q 372 350 315 333 q 473 398 428 367 q 546 475 518 429 q 574 581 574 521 q 494 747 574 689 q 260 806 414 806 l 208 806 l 208 831 q 212 853 208 840 q 221 877 215 867 q 235 895 226 888 q 253 903 243 903 l 260 903 l 260 917 l 61 917 l 61 903 l 68 903 q 88 895 79 903 q 102 876 96 888 q 111 853 108 865 q 114 831 114 840 l 114 90 q 111 66 114 79 q 102 41 108 53 q 88 22 96 29 q 68 14 79 14 l 61 14 l 61 0 l 260 0 l 260 14 l 253 14 m 249 382 l 208 382 l 208 757 l 226 757 q 346 742 297 757 q 424 699 394 726 q 467 636 454 672 q 481 560 481 600 q 465 494 481 526 q 421 438 450 463 q 348 397 392 413 q 249 382 304 382 "},"U":{"ha":811,"x_min":63,"x_max":742,"o":"m 63 917 l 63 903 l 69 903 q 88 895 79 903 q 102 876 96 888 q 111 853 108 865 q 114 831 114 840 l 114 282 q 136 137 114 194 q 197 46 158 79 q 290 -1 236 13 q 406 -14 343 -14 q 516 -1 464 -14 q 607 44 568 11 q 668 135 646 78 q 690 283 690 193 l 690 831 q 693 853 690 840 q 702 876 696 865 q 716 895 708 888 q 735 903 724 903 l 742 903 l 742 917 l 590 917 l 590 903 l 597 903 q 615 895 607 903 q 630 876 624 888 q 639 853 636 865 q 642 831 642 840 l 642 279 q 635 192 642 236 q 606 112 628 147 q 542 54 583 76 q 431 32 500 32 q 325 51 368 32 q 256 103 282 69 q 218 182 229 136 q 207 282 207 228 l 207 831 q 210 853 207 840 q 219 876 213 865 q 233 895 225 888 q 253 903 242 903 l 260 903 l 260 917 l 63 917 "},"Ú":{"ha":811,"x_min":63,"x_max":742,"o":"m 63 917 l 63 903 l 69 903 q 88 895 79 903 q 102 876 96 888 q 111 853 108 865 q 114 831 114 840 l 114 282 q 136 137 114 194 q 197 46 158 79 q 290 -1 236 13 q 406 -14 343 -14 q 516 -1 464 -14 q 607 44 568 11 q 668 135 646 78 q 690 283 690 193 l 690 831 q 693 853 690 840 q 702 876 696 865 q 716 895 708 888 q 735 903 724 903 l 742 903 l 742 917 l 590 917 l 590 903 l 597 903 q 615 895 607 903 q 630 876 624 888 q 639 853 636 865 q 642 831 642 840 l 642 279 q 635 192 642 236 q 606 112 628 147 q 542 54 583 76 q 431 32 500 32 q 325 51 368 32 q 256 103 282 69 q 218 182 229 136 q 207 282 207 228 l 207 831 q 210 853 207 840 q 219 876 213 865 q 233 895 225 888 q 253 903 242 903 l 260 903 l 260 917 l 63 917 m 288 956 l 292 947 l 521 1042 l 485 1104 l 288 956 "},"Û":{"ha":811,"x_min":63,"x_max":742,"o":"m 63 917 l 63 903 l 69 903 q 88 895 79 903 q 102 876 96 888 q 111 853 108 865 q 114 831 114 840 l 114 282 q 136 137 114 194 q 197 46 158 79 q 290 -1 236 13 q 406 -14 343 -14 q 516 -1 464 -14 q 607 44 568 11 q 668 135 646 78 q 690 283 690 193 l 690 831 q 693 853 690 840 q 702 876 696 865 q 716 895 708 888 q 735 903 724 903 l 742 903 l 742 917 l 590 917 l 590 903 l 597 903 q 615 895 607 903 q 630 876 624 888 q 639 853 636 865 q 642 831 642 840 l 642 279 q 635 192 642 236 q 606 112 628 147 q 542 54 583 76 q 431 32 500 32 q 325 51 368 32 q 256 103 282 69 q 218 182 229 136 q 207 282 207 228 l 207 831 q 210 853 207 840 q 219 876 213 865 q 233 895 225 888 q 253 903 242 903 l 260 903 l 260 917 l 63 917 m 572 951 l 574 958 l 404 1101 l 235 958 l 238 951 l 404 1033 l 572 951 "},"Ü":{"ha":811,"x_min":63,"x_max":742,"o":"m 63 917 l 63 903 l 69 903 q 88 895 79 903 q 102 876 96 888 q 111 853 108 865 q 114 831 114 840 l 114 282 q 136 137 114 194 q 197 46 158 79 q 290 -1 236 13 q 406 -14 343 -14 q 516 -1 464 -14 q 607 44 568 11 q 668 135 646 78 q 690 283 690 193 l 690 831 q 693 853 690 840 q 702 876 696 865 q 716 895 708 888 q 735 903 724 903 l 742 903 l 742 917 l 590 917 l 590 903 l 597 903 q 615 895 607 903 q 630 876 624 888 q 639 853 636 865 q 642 831 642 840 l 642 279 q 635 192 642 236 q 606 112 628 147 q 542 54 583 76 q 431 32 500 32 q 325 51 368 32 q 256 103 282 69 q 218 182 229 136 q 207 282 207 228 l 207 831 q 210 853 207 840 q 219 876 213 865 q 233 895 225 888 q 253 903 242 903 l 260 903 l 260 917 l 63 917 m 529 997 q 517 1029 529 1017 q 488 1042 504 1042 q 455 1029 468 1042 q 442 997 442 1017 q 455 965 442 978 q 488 953 468 953 q 517 965 504 953 q 529 997 529 978 m 369 997 q 357 1029 369 1017 q 325 1042 344 1042 q 293 1029 306 1042 q 281 997 281 1017 q 293 965 281 978 q 325 953 306 953 q 357 965 344 953 q 369 997 369 978 "},"Ù":{"ha":811,"x_min":63,"x_max":742,"o":"m 63 917 l 63 903 l 69 903 q 88 895 79 903 q 102 876 96 888 q 111 853 108 865 q 114 831 114 840 l 114 282 q 136 137 114 194 q 197 46 158 79 q 290 -1 236 13 q 406 -14 343 -14 q 516 -1 464 -14 q 607 44 568 11 q 668 135 646 78 q 690 283 690 193 l 690 831 q 693 853 690 840 q 702 876 696 865 q 716 895 708 888 q 735 903 724 903 l 742 903 l 742 917 l 590 917 l 590 903 l 597 903 q 615 895 607 903 q 630 876 624 888 q 639 853 636 865 q 642 831 642 840 l 642 279 q 635 192 642 236 q 606 112 628 147 q 542 54 583 76 q 431 32 500 32 q 325 51 368 32 q 256 103 282 69 q 218 182 229 136 q 207 282 207 228 l 207 831 q 210 853 207 840 q 219 876 213 865 q 233 895 225 888 q 253 903 242 903 l 260 903 l 260 917 l 63 917 m 518 947 l 521 956 l 324 1104 l 288 1042 l 518 947 "},"V":{"ha":818,"x_min":15,"x_max":788,"o":"m 176 868 q 188 894 176 885 q 213 903 200 903 l 213 917 l 15 917 l 15 903 q 55 886 39 901 q 79 850 71 871 l 404 -17 l 722 854 q 749 892 732 881 q 788 903 767 903 l 788 917 l 636 917 l 636 903 q 660 895 647 903 q 674 871 674 888 q 672 863 674 868 q 669 854 671 857 l 425 189 l 181 847 q 176 868 176 860 "},"W":{"ha":1119,"x_min":21,"x_max":1099,"o":"m 1099 903 l 1099 917 l 947 917 l 947 903 q 969 891 958 903 q 981 860 981 879 q 978 845 981 854 q 976 833 976 836 l 793 246 l 581 925 l 360 244 l 179 833 q 176 851 176 844 q 188 888 176 874 q 218 903 200 903 l 218 917 l 21 917 l 21 903 q 60 878 43 903 q 85 826 78 853 l 339 -7 l 556 678 l 772 -6 l 1025 828 q 1051 879 1032 856 q 1099 903 1071 903 "},"X":{"ha":714,"x_min":15,"x_max":688,"o":"m 301 460 l 104 82 q 86 58 97 71 q 63 36 75 46 q 38 20 50 26 q 15 14 25 14 l 15 0 l 167 0 l 167 14 q 146 36 146 14 q 149 57 146 46 q 157 76 153 68 l 331 407 l 507 76 q 515 51 515 61 q 507 25 515 36 q 490 14 499 14 l 490 0 l 688 0 l 688 14 q 663 22 675 14 q 640 42 651 29 q 619 68 629 54 q 603 94 610 82 l 386 503 l 556 826 q 590 877 568 851 q 635 903 611 903 l 635 917 l 481 917 l 481 903 q 500 897 485 903 q 515 868 515 890 q 512 853 515 861 q 506 839 508 846 q 501 831 501 835 l 358 553 l 201 844 q 196 864 196 854 q 206 892 196 881 q 225 903 217 903 l 225 917 l 28 917 l 28 903 q 52 894 40 903 q 74 874 64 886 q 92 847 83 861 q 108 821 101 832 l 301 460 "},"Y":{"ha":735,"x_min":4,"x_max":708,"o":"m 4 917 l 4 903 l 11 903 q 35 894 22 903 q 58 872 47 885 q 79 846 69 860 q 96 821 89 832 l 319 438 l 319 90 q 317 66 319 79 q 308 41 314 53 q 293 22 301 29 q 274 14 285 14 l 267 14 l 267 0 l 465 0 l 465 14 l 458 14 q 439 22 447 14 q 425 42 431 31 q 416 67 419 54 q 413 90 413 79 l 413 450 l 629 825 q 666 877 644 851 q 708 903 688 903 l 708 917 l 560 917 l 560 903 q 576 897 563 903 q 592 869 589 892 q 590 856 592 861 q 582 839 588 850 l 382 493 l 174 858 q 169 874 169 867 q 178 894 169 888 q 196 903 186 901 l 196 917 l 4 917 "},"Ý":{"ha":735,"x_min":4,"x_max":708,"o":"m 4 917 l 4 903 l 11 903 q 35 894 22 903 q 58 872 47 885 q 79 846 69 860 q 96 821 89 832 l 319 438 l 319 90 q 317 66 319 79 q 308 41 314 53 q 293 22 301 29 q 274 14 285 14 l 267 14 l 267 0 l 465 0 l 465 14 l 458 14 q 439 22 447 14 q 425 42 431 31 q 416 67 419 54 q 413 90 413 79 l 413 450 l 629 825 q 666 877 644 851 q 708 903 688 903 l 708 917 l 560 917 l 560 903 q 576 897 563 903 q 592 869 589 892 q 590 856 592 861 q 582 839 588 850 l 382 493 l 174 858 q 169 874 169 867 q 178 894 169 888 q 196 903 186 901 l 196 917 l 4 917 m 250 956 l 254 947 l 483 1042 l 447 1104 l 250 956 "},"Ÿ":{"ha":735,"x_min":4,"x_max":708,"o":"m 4 917 l 4 903 l 11 903 q 35 894 22 903 q 58 872 47 885 q 79 846 69 860 q 96 821 89 832 l 319 438 l 319 90 q 317 66 319 79 q 308 41 314 53 q 293 22 301 29 q 274 14 285 14 l 267 14 l 267 0 l 465 0 l 465 14 l 458 14 q 439 22 447 14 q 425 42 431 31 q 416 67 419 54 q 413 90 413 79 l 413 450 l 629 825 q 666 877 644 851 q 708 903 688 903 l 708 917 l 560 917 l 560 903 q 576 897 563 903 q 592 869 589 892 q 590 856 592 861 q 582 839 588 850 l 382 493 l 174 858 q 169 874 169 867 q 178 894 169 888 q 196 903 186 901 l 196 917 l 4 917 m 490 997 q 478 1029 490 1017 q 449 1042 465 1042 q 416 1029 429 1042 q 403 997 403 1017 q 416 965 403 978 q 449 953 429 953 q 478 965 465 953 q 490 997 490 978 m 331 997 q 318 1029 331 1017 q 286 1042 306 1042 q 254 1029 267 1042 q 242 997 242 1017 q 254 965 242 978 q 286 953 267 953 q 318 965 306 953 q 331 997 331 978 "},"Z":{"ha":653,"x_min":24,"x_max":619,"o":"m 24 0 l 618 0 l 618 157 l 604 157 q 599 122 604 140 q 582 86 593 103 q 554 59 571 69 q 515 49 538 49 l 158 49 l 619 917 l 60 917 l 60 761 l 74 761 q 79 797 74 778 q 96 831 85 815 q 124 858 107 847 q 163 868 140 868 l 485 868 l 24 0 "},"Ž":{"ha":653,"x_min":24,"x_max":619,"o":"m 24 0 l 618 0 l 618 157 l 604 157 q 599 122 604 140 q 582 86 593 103 q 554 59 571 69 q 515 49 538 49 l 158 49 l 619 917 l 60 917 l 60 761 l 74 761 q 79 797 74 778 q 96 831 85 815 q 124 858 107 847 q 163 868 140 868 l 485 868 l 24 0 m 158 1097 l 154 1092 l 326 947 l 494 1092 l 492 1097 l 326 1018 l 158 1097 "},"a":{"ha":635,"x_min":50,"x_max":564,"o":"m 429 0 l 564 0 l 564 14 q 531 38 543 14 q 518 90 518 63 l 518 365 q 510 449 518 408 q 476 522 501 490 q 403 574 450 554 q 279 593 356 593 q 178 577 214 593 q 121 553 142 561 q 97 542 107 547 q 76 535 88 536 l 76 433 l 89 433 q 111 472 97 451 q 145 509 125 492 q 192 538 165 526 q 256 549 219 549 q 306 542 276 549 q 361 517 335 536 q 407 465 388 499 q 429 378 426 432 q 269 333 339 356 q 150 282 199 310 q 76 218 101 254 q 50 135 50 182 q 60 79 50 106 q 93 33 71 53 q 150 1 115 13 q 233 -10 185 -10 q 342 10 297 -10 q 422 64 388 29 l 429 71 l 429 0 m 429 132 l 414 115 q 350 63 385 83 q 269 43 315 43 q 175 72 211 43 q 139 146 139 101 q 169 217 139 186 q 243 269 200 247 q 334 306 286 292 q 415 328 382 319 l 429 331 l 429 132 "},"á":{"ha":635,"x_min":50,"x_max":564,"o":"m 429 0 l 564 0 l 564 14 q 531 38 543 14 q 518 90 518 63 l 518 365 q 510 449 518 408 q 476 522 501 490 q 403 574 450 554 q 279 593 356 593 q 178 577 214 593 q 121 553 142 561 q 97 542 107 547 q 76 535 88 536 l 76 433 l 89 433 q 111 472 97 451 q 145 509 125 492 q 192 538 165 526 q 256 549 219 549 q 306 542 276 549 q 361 517 335 536 q 407 465 388 499 q 429 378 426 432 q 269 333 339 356 q 150 282 199 310 q 76 218 101 254 q 50 135 50 182 q 60 79 50 106 q 93 33 71 53 q 150 1 115 13 q 233 -10 185 -10 q 342 10 297 -10 q 422 64 388 29 l 429 71 l 429 0 m 429 132 l 414 115 q 350 63 385 83 q 269 43 315 43 q 175 72 211 43 q 139 146 139 101 q 169 217 139 186 q 243 269 200 247 q 334 306 286 292 q 415 328 382 319 l 429 331 l 429 132 m 200 622 l 204 614 l 433 708 l 397 771 l 200 622 "},"â":{"ha":635,"x_min":50,"x_max":564,"o":"m 429 0 l 564 0 l 564 14 q 531 38 543 14 q 518 90 518 63 l 518 365 q 510 449 518 408 q 476 522 501 490 q 403 574 450 554 q 279 593 356 593 q 178 577 214 593 q 121 553 142 561 q 97 542 107 547 q 76 535 88 536 l 76 433 l 89 433 q 111 472 97 451 q 145 509 125 492 q 192 538 165 526 q 256 549 219 549 q 306 542 276 549 q 361 517 335 536 q 407 465 388 499 q 429 378 426 432 q 269 333 339 356 q 150 282 199 310 q 76 218 101 254 q 50 135 50 182 q 60 79 50 106 q 93 33 71 53 q 150 1 115 13 q 233 -10 185 -10 q 342 10 297 -10 q 422 64 388 29 l 429 71 l 429 0 m 429 132 l 414 115 q 350 63 385 83 q 269 43 315 43 q 175 72 211 43 q 139 146 139 101 q 169 217 139 186 q 243 269 200 247 q 334 306 286 292 q 415 328 382 319 l 429 331 l 429 132 m 443 618 l 444 625 l 275 768 l 106 625 l 108 618 l 275 700 l 443 618 "},"´":{"ha":308,"x_min":33,"x_max":267,"o":"m 33 622 l 38 614 l 267 708 l 231 771 l 33 622 "},"ä":{"ha":635,"x_min":50,"x_max":564,"o":"m 429 0 l 564 0 l 564 14 q 531 38 543 14 q 518 90 518 63 l 518 365 q 510 449 518 408 q 476 522 501 490 q 403 574 450 554 q 279 593 356 593 q 178 577 214 593 q 121 553 142 561 q 97 542 107 547 q 76 535 88 536 l 76 433 l 89 433 q 111 472 97 451 q 145 509 125 492 q 192 538 165 526 q 256 549 219 549 q 306 542 276 549 q 361 517 335 536 q 407 465 388 499 q 429 378 426 432 q 269 333 339 356 q 150 282 199 310 q 76 218 101 254 q 50 135 50 182 q 60 79 50 106 q 93 33 71 53 q 150 1 115 13 q 233 -10 185 -10 q 342 10 297 -10 q 422 64 388 29 l 429 71 l 429 0 m 429 132 l 414 115 q 350 63 385 83 q 269 43 315 43 q 175 72 211 43 q 139 146 139 101 q 169 217 139 186 q 243 269 200 247 q 334 306 286 292 q 415 328 382 319 l 429 331 l 429 132 m 401 683 q 389 715 401 703 q 360 728 376 728 q 327 715 340 728 q 314 683 314 703 q 327 651 314 664 q 360 639 340 639 q 389 651 376 639 q 401 683 401 664 m 242 683 q 229 715 242 703 q 197 728 217 728 q 165 715 178 728 q 153 683 153 703 q 165 651 153 664 q 197 639 178 639 q 229 651 217 639 q 242 683 242 664 "},"æ":{"ha":1054,"x_min":63,"x_max":996,"o":"m 758 39 q 665 58 704 39 q 597 108 625 76 q 551 182 568 140 q 529 269 535 224 l 529 282 l 996 282 q 981 407 996 350 q 935 506 967 464 q 854 571 904 547 q 735 594 804 594 q 599 565 656 594 q 506 493 542 536 q 433 566 482 538 q 290 594 383 594 q 185 580 224 594 q 132 554 147 565 q 110 542 121 547 q 89 536 100 538 l 89 435 l 101 435 q 124 473 110 453 q 157 510 138 493 q 203 539 176 528 q 267 550 231 550 q 317 544 289 550 q 372 519 346 538 q 418 467 399 500 q 440 379 438 433 q 280 334 350 357 q 161 283 210 311 q 88 219 113 256 q 63 136 63 183 q 73 81 63 107 q 105 34 83 54 q 161 3 126 14 q 244 -8 196 -8 q 355 11 310 -8 q 433 65 400 31 q 459 92 444 76 q 485 118 474 107 q 592 23 525 54 q 739 -8 658 -8 q 864 10 817 -8 q 939 46 911 29 q 963 60 953 54 q 983 65 974 65 l 983 169 l 969 169 q 938 115 961 139 q 886 74 915 90 q 823 48 857 57 q 758 39 789 39 m 729 549 q 810 530 776 549 q 865 481 843 511 q 898 411 888 450 q 910 332 908 372 l 529 332 l 529 344 q 549 419 535 382 q 588 484 564 456 q 648 531 613 513 q 729 549 683 549 m 467 154 l 425 114 q 361 65 394 86 q 281 44 328 44 q 186 73 222 44 q 150 146 150 101 q 181 218 150 188 q 255 271 211 249 q 346 307 299 293 q 426 329 393 321 l 442 335 q 440 317 440 326 q 440 300 440 308 q 467 154 440 219 "},"à":{"ha":635,"x_min":50,"x_max":564,"o":"m 429 0 l 564 0 l 564 14 q 531 38 543 14 q 518 90 518 63 l 518 365 q 510 449 518 408 q 476 522 501 490 q 403 574 450 554 q 279 593 356 593 q 178 577 214 593 q 121 553 142 561 q 97 542 107 547 q 76 535 88 536 l 76 433 l 89 433 q 111 472 97 451 q 145 509 125 492 q 192 538 165 526 q 256 549 219 549 q 306 542 276 549 q 361 517 335 536 q 407 465 388 499 q 429 378 426 432 q 269 333 339 356 q 150 282 199 310 q 76 218 101 254 q 50 135 50 182 q 60 79 50 106 q 93 33 71 53 q 150 1 115 13 q 233 -10 185 -10 q 342 10 297 -10 q 422 64 388 29 l 429 71 l 429 0 m 429 132 l 414 115 q 350 63 385 83 q 269 43 315 43 q 175 72 211 43 q 139 146 139 101 q 169 217 139 186 q 243 269 200 247 q 334 306 286 292 q 415 328 382 319 l 429 331 l 429 132 m 431 614 l 433 622 l 236 771 l 200 708 l 431 614 "},"&":{"ha":1067,"x_min":54,"x_max":1036,"o":"m 888 103 l 828 151 q 765 203 797 176 q 706 256 733 229 q 757 367 736 303 q 790 489 778 431 q 814 629 806 557 q 831 662 817 649 q 860 675 846 675 l 860 689 l 717 689 l 717 675 q 747 660 733 675 q 761 628 761 646 q 758 578 761 613 q 744 497 754 543 q 716 394 733 450 q 671 283 699 339 q 536 393 604 336 q 404 503 468 450 q 515 604 483 549 q 547 711 547 660 q 533 788 547 750 q 492 856 519 826 q 424 903 464 885 q 331 921 383 921 q 249 905 286 921 q 185 862 213 889 q 142 799 157 835 q 126 722 126 763 q 163 610 126 664 q 265 500 199 556 q 103 378 151 446 q 54 215 54 311 q 72 129 54 171 q 124 56 90 88 q 208 6 158 25 q 319 -12 257 -12 q 497 31 417 -12 q 651 176 576 75 l 789 68 q 865 20 825 40 q 958 0 906 0 l 1036 0 l 1036 14 q 992 28 1017 14 q 943 58 967 42 q 888 103 917 78 m 213 726 q 210 740 210 733 q 210 754 210 747 q 237 840 210 804 q 310 876 264 876 q 383 860 351 876 q 434 819 414 844 q 465 761 454 793 q 475 696 475 729 q 446 608 475 653 q 363 540 417 563 q 267 631 311 583 q 213 726 222 678 m 360 36 q 274 56 314 38 q 204 104 233 75 q 158 169 175 133 q 142 243 142 206 q 182 364 142 304 q 307 464 222 424 q 463 335 383 401 q 618 206 542 269 q 495 83 563 131 q 360 36 428 36 "},"å":{"ha":635,"x_min":50,"x_max":564,"o":"m 429 0 l 564 0 l 564 14 q 531 38 543 14 q 518 90 518 63 l 518 365 q 510 449 518 408 q 476 522 501 490 q 403 574 450 554 q 279 593 356 593 q 178 577 214 593 q 121 553 142 561 q 97 542 107 547 q 76 535 88 536 l 76 433 l 89 433 q 111 472 97 451 q 145 509 125 492 q 192 538 165 526 q 256 549 219 549 q 306 542 276 549 q 361 517 335 536 q 407 465 388 499 q 429 378 426 432 q 269 333 339 356 q 150 282 199 310 q 76 218 101 254 q 50 135 50 182 q 60 79 50 106 q 93 33 71 53 q 150 1 115 13 q 233 -10 185 -10 q 342 10 297 -10 q 422 64 388 29 l 429 71 l 429 0 m 429 132 l 414 115 q 350 63 385 83 q 269 43 315 43 q 175 72 211 43 q 139 146 139 101 q 169 217 139 186 q 243 269 200 247 q 334 306 286 292 q 415 328 382 319 l 429 331 l 429 132 m 176 740 q 205 681 176 704 q 276 658 233 658 q 349 681 319 658 q 378 740 378 704 q 349 800 378 776 q 276 824 319 824 q 205 800 233 824 q 176 740 176 776 m 215 749 q 231 787 215 771 q 268 803 246 803 q 318 782 296 803 q 340 736 340 761 q 325 695 340 711 q 286 679 310 679 q 236 699 257 679 q 215 749 215 719 "},"^":{"ha":560,"x_min":31,"x_max":522,"o":"m 522 668 l 276 913 l 31 668 l 83 615 l 276 808 l 467 615 l 522 668 "},"~":{"ha":772,"x_min":51,"x_max":711,"o":"m 711 529 l 697 532 q 670 486 686 504 q 634 458 654 468 q 592 443 614 447 q 550 439 571 439 q 477 455 511 439 q 408 490 443 471 q 329 531 369 513 q 238 549 289 549 q 194 544 218 549 q 144 522 169 539 q 96 474 119 506 q 51 392 72 443 l 65 389 q 94 435 75 417 q 134 463 113 453 q 179 476 156 472 q 224 479 203 479 q 292 464 260 479 q 358 431 325 449 q 440 390 397 408 q 532 372 482 372 q 644 413 599 372 q 711 529 689 454 "},"*":{"ha":449,"x_min":60,"x_max":378,"o":"m 218 922 l 188 793 l 61 832 l 60 829 l 156 739 l 60 651 l 61 649 l 188 686 l 218 558 l 221 558 l 251 686 l 376 649 l 378 651 l 282 739 l 378 829 l 376 832 l 251 793 l 221 922 l 218 922 "},"@":{"ha":1226,"x_min":68,"x_max":1143,"o":"m 1143 410 q 1116 568 1143 496 q 1033 693 1089 640 q 893 776 978 746 q 694 806 808 806 q 453 754 567 806 q 254 615 340 703 q 118 413 168 528 q 68 171 68 297 q 105 -31 68 54 q 204 -172 142 -117 q 350 -255 267 -228 q 528 -282 433 -282 q 663 -268 599 -282 q 781 -232 726 -254 q 877 -182 835 -210 q 949 -126 919 -154 l 940 -114 q 774 -196 865 -167 q 592 -225 683 -225 q 431 -201 508 -225 q 293 -128 353 -178 q 197 -1 233 -78 q 161 182 161 75 q 207 408 161 303 q 327 591 253 513 q 497 714 401 669 q 690 758 592 758 q 856 724 786 758 q 972 633 926 689 q 1038 508 1017 578 q 1060 369 1060 439 q 1044 251 1060 307 q 999 151 1029 194 q 927 81 969 107 q 831 56 885 56 q 783 99 797 56 q 769 206 769 142 q 776 309 769 254 q 793 416 782 364 q 817 513 804 468 q 846 590 831 558 l 782 599 q 769 576 774 586 q 760 557 764 567 q 759 555 760 556 q 758 553 758 554 q 755 544 756 550 q 751 535 754 539 q 706 549 728 544 q 660 554 683 554 q 536 525 596 554 q 431 442 476 496 q 357 313 385 389 q 329 143 329 236 q 338 78 329 106 q 360 35 346 51 q 391 10 374 18 q 426 3 408 3 q 488 17 454 3 q 553 57 521 32 q 616 114 586 82 q 667 181 646 146 l 667 154 q 672 99 667 126 q 690 49 678 71 q 725 13 703 26 q 781 -1 747 -1 q 928 36 861 -1 q 1042 133 994 74 q 1117 265 1090 192 q 1143 410 1143 338 m 676 283 q 634 228 660 260 q 580 167 608 196 q 524 117 551 138 q 478 96 497 96 q 450 113 463 96 q 438 171 438 129 q 451 274 438 217 q 492 381 465 331 q 556 467 518 432 q 643 501 594 501 q 683 495 661 501 q 725 476 706 489 q 698 384 708 428 q 676 283 688 340 "},"ã":{"ha":635,"x_min":50,"x_max":564,"o":"m 429 0 l 564 0 l 564 14 q 531 38 543 14 q 518 90 518 63 l 518 365 q 510 449 518 408 q 476 522 501 490 q 403 574 450 554 q 279 593 356 593 q 178 577 214 593 q 121 553 142 561 q 97 542 107 547 q 76 535 88 536 l 76 433 l 89 433 q 111 472 97 451 q 145 509 125 492 q 192 538 165 526 q 256 549 219 549 q 306 542 276 549 q 361 517 335 536 q 407 465 388 499 q 429 378 426 432 q 269 333 339 356 q 150 282 199 310 q 76 218 101 254 q 50 135 50 182 q 60 79 50 106 q 93 33 71 53 q 150 1 115 13 q 233 -10 185 -10 q 342 10 297 -10 q 422 64 388 29 l 429 71 l 429 0 m 429 132 l 414 115 q 350 63 385 83 q 269 43 315 43 q 175 72 211 43 q 139 146 139 101 q 169 217 139 186 q 243 269 200 247 q 334 306 286 292 q 415 328 382 319 l 429 331 l 429 132 m 449 757 l 443 758 q 417 724 432 739 q 379 710 401 710 q 343 718 363 710 q 305 737 324 726 q 267 756 286 747 q 231 764 247 764 q 177 740 203 764 q 132 657 151 715 l 139 656 q 172 696 157 681 q 207 711 186 711 q 247 702 225 711 q 290 683 268 693 q 333 664 313 672 q 371 656 354 656 q 416 675 400 656 q 449 757 432 694 "},"b":{"ha":714,"x_min":61,"x_max":653,"o":"m 360 593 q 276 575 319 593 q 200 525 232 557 l 200 922 l 61 879 l 61 865 q 101 843 94 864 q 108 799 108 822 l 108 90 q 106 66 108 79 q 97 42 103 53 q 82 22 90 31 q 64 14 74 14 l 64 0 l 200 0 l 200 64 q 268 12 225 33 q 364 -10 311 -10 q 489 17 435 -10 q 580 87 543 43 q 635 185 617 131 q 653 297 653 240 q 635 406 653 353 q 581 501 617 460 q 490 568 544 543 q 360 593 435 593 m 374 38 q 312 49 343 38 q 256 83 281 61 q 215 138 231 106 q 200 210 200 169 l 200 382 q 213 445 200 415 q 248 497 226 475 q 297 531 269 518 q 354 544 325 544 q 446 522 406 544 q 513 461 486 499 q 554 376 540 424 q 568 279 568 329 q 556 192 568 235 q 520 117 544 150 q 460 62 496 83 q 374 38 424 40 "},"\\":{"ha":463,"x_min":7,"x_max":450,"o":"m 7 978 l 399 -85 l 450 -68 l 58 992 l 7 978 "},"|":{"ha":217,"x_min":63,"x_max":153,"o":"m 63 -122 l 153 -122 l 153 1032 l 63 1032 l 63 -122 "},"{":{"ha":357,"x_min":13,"x_max":346,"o":"m 332 -122 l 346 -122 l 346 -108 q 285 -97 307 -107 q 253 -67 264 -86 q 239 -22 242 -49 q 236 39 236 6 l 236 200 q 234 298 236 256 q 219 371 232 340 q 181 421 207 401 q 107 453 154 440 q 176 488 150 467 q 215 542 201 510 q 232 618 228 575 q 236 718 236 661 l 236 882 q 239 938 236 913 q 253 980 242 963 q 285 1008 264 997 q 346 1018 307 1018 l 346 1031 l 329 1031 q 232 1021 267 1031 q 181 987 197 1011 q 161 922 164 963 q 158 818 158 881 l 158 650 q 155 570 158 604 q 137 514 151 536 q 93 479 122 492 q 13 463 64 467 l 13 449 q 93 432 64 444 q 137 397 122 419 q 155 342 151 375 q 158 261 158 308 l 158 111 q 161 -3 158 42 q 181 -74 164 -47 q 232 -112 197 -101 q 332 -122 267 -122 "},"}":{"ha":357,"x_min":7,"x_max":340,"o":"m 7 -122 l 21 -122 q 122 -112 86 -122 q 174 -74 157 -101 q 193 -3 190 -47 q 196 111 196 42 l 196 261 q 199 342 196 308 q 217 397 203 375 q 260 432 232 419 q 340 449 289 444 l 340 463 q 260 479 289 467 q 217 514 232 492 q 199 570 203 536 q 196 650 196 604 l 196 818 q 193 922 196 881 q 174 987 190 963 q 122 1021 157 1011 q 24 1031 88 1031 l 7 1031 l 7 1018 q 67 1008 46 1018 q 100 980 89 997 q 114 938 111 963 q 117 882 117 913 l 117 718 q 120 617 117 661 q 137 542 124 574 q 176 488 150 510 q 246 453 201 465 q 172 421 197 440 q 133 371 146 401 q 119 298 121 340 q 117 200 117 256 l 117 39 q 114 -22 117 6 q 100 -67 111 -49 q 67 -97 89 -86 q 7 -108 46 -107 l 7 -122 "},"[":{"ha":233,"x_min":46,"x_max":217,"o":"m 46 -122 l 217 -122 l 217 -78 l 122 -78 l 122 986 l 217 986 l 217 1031 l 46 1031 l 46 -122 "},"]":{"ha":242,"x_min":19,"x_max":193,"o":"m 19 -122 l 193 -122 l 193 1031 l 19 1031 l 19 986 l 117 986 l 117 -78 l 19 -78 l 19 -122 "},"¦":{"ha":221,"x_min":63,"x_max":153,"o":"m 63 511 l 153 511 l 153 1031 l 63 1031 l 63 511 m 153 397 l 63 397 l 63 -122 l 153 -122 l 153 397 "},"•":{"ha":288,"x_min":78,"x_max":219,"o":"m 78 206 l 219 206 l 219 331 l 78 331 l 78 206 "},"c":{"ha":606,"x_min":50,"x_max":575,"o":"m 575 50 l 575 158 l 561 158 q 544 117 558 139 q 508 78 531 96 q 452 49 485 60 q 381 38 419 38 q 281 61 325 38 q 205 124 236 85 q 157 212 174 163 q 140 313 140 261 q 154 399 140 357 q 196 473 168 440 q 267 526 224 506 q 367 546 310 546 q 421 539 393 546 q 472 518 449 532 q 514 484 496 504 q 539 438 532 464 l 553 438 l 553 543 q 528 547 540 543 q 504 558 517 551 q 450 581 482 569 q 367 593 418 593 q 233 568 292 593 q 133 501 174 543 q 72 406 93 460 q 50 292 50 351 q 74 173 50 228 q 142 77 99 118 q 247 13 186 36 q 378 -10 307 -10 q 472 5 436 -10 q 532 33 508 19 q 554 45 544 40 q 575 50 564 50 "},"ç":{"ha":606,"x_min":50,"x_max":575,"o":"m 364 -69 l 400 -8 q 478 8 447 -6 q 531 33 508 22 q 553 45 543 40 q 575 50 564 50 l 575 158 l 561 158 q 545 117 558 139 q 510 78 532 96 q 457 49 488 60 q 392 38 426 38 l 381 38 q 281 61 325 38 q 205 124 236 85 q 157 212 174 163 q 140 313 140 261 q 154 399 140 357 q 196 473 168 440 q 267 526 224 506 q 367 546 310 546 q 421 539 393 546 q 472 518 449 532 q 514 484 496 504 q 539 438 532 464 l 553 438 l 553 543 q 528 547 540 543 q 504 558 517 551 q 450 581 482 569 q 367 593 418 593 q 233 568 292 593 q 133 501 174 543 q 72 406 93 460 q 50 292 50 351 q 73 176 50 229 q 136 83 96 124 q 232 19 176 43 q 354 -8 288 -4 l 307 -85 q 386 -113 358 -92 q 414 -157 414 -135 q 403 -185 414 -172 q 376 -210 393 -199 q 335 -227 358 -221 q 286 -233 313 -233 l 271 -233 l 271 -244 q 281 -245 275 -244 q 290 -246 286 -246 q 307 -248 299 -247 q 325 -249 315 -249 q 441 -217 400 -249 q 482 -150 482 -186 q 454 -99 482 -122 q 364 -69 426 -76 "},"¸":{"ha":322,"x_min":54,"x_max":265,"o":"m 149 -69 l 192 3 l 146 3 l 92 -85 q 171 -113 143 -92 q 199 -157 199 -135 q 188 -185 199 -172 q 160 -210 178 -199 q 119 -227 143 -221 q 69 -233 96 -233 l 54 -233 l 54 -244 q 103 -250 76 -250 q 164 -242 135 -250 q 216 -220 193 -233 q 252 -189 239 -207 q 265 -150 265 -171 q 238 -99 265 -122 q 149 -69 210 -76 "},"¢":{"ha":606,"x_min":50,"x_max":575,"o":"m 321 -122 l 375 -122 l 375 -10 q 470 6 432 -8 q 532 33 508 19 l 533 33 q 556 45 546 40 q 575 50 565 50 l 575 158 l 561 158 q 545 117 558 139 q 510 78 532 96 q 457 49 488 60 q 392 38 426 38 l 375 38 l 375 546 q 426 536 400 544 q 475 515 453 528 q 515 482 497 501 q 539 438 532 463 l 553 438 l 553 543 q 528 548 540 543 q 503 560 517 553 q 451 581 483 571 q 375 593 419 590 l 375 700 l 321 700 l 321 590 q 207 555 257 582 q 122 488 157 528 q 69 397 88 447 q 50 292 50 346 q 70 185 50 235 q 126 95 90 135 q 213 30 163 56 q 321 -6 263 4 l 321 -122 m 140 313 q 151 389 140 351 q 185 458 163 426 q 242 511 208 489 q 321 542 276 533 l 321 44 q 248 86 281 58 q 191 150 215 114 q 153 228 167 186 q 140 313 140 271 "},"ˆ":{"ha":372,"x_min":19,"x_max":358,"o":"m 357 618 l 358 625 l 189 768 l 19 625 l 22 618 l 189 700 l 357 618 "},":":{"ha":279,"x_min":72,"x_max":204,"o":"m 72 471 q 91 424 72 443 q 138 406 110 406 q 185 424 165 406 q 204 471 204 443 q 185 518 204 499 q 138 538 165 538 q 91 518 110 538 q 72 471 72 499 m 72 60 q 91 13 72 32 q 138 -6 110 -6 q 185 13 165 -6 q 204 60 204 32 q 185 107 204 88 q 138 126 165 126 q 91 107 110 126 q 72 60 72 88 "},",":{"ha":168,"x_min":-6,"x_max":153,"o":"m 75 129 q 35 113 51 129 q 18 69 18 96 q 29 38 18 47 q 51 22 40 29 q 67 10 60 17 q 74 -7 74 4 q 72 -36 74 -22 q 62 -66 69 -50 q 38 -102 54 -82 q -6 -147 22 -122 l 1 -160 q 80 -112 50 -137 q 126 -60 110 -86 q 147 -9 142 -35 q 153 38 153 17 q 134 101 153 74 q 75 129 115 129 "},"©":{"ha":1036,"x_min":57,"x_max":968,"o":"m 57 453 q 92 276 57 358 q 190 131 128 193 q 335 34 251 69 q 513 -1 418 -1 q 690 34 607 -1 q 835 131 774 69 q 933 276 897 193 q 968 453 968 358 q 933 632 968 549 q 835 777 897 715 q 690 874 774 839 q 513 910 607 910 q 335 874 418 910 q 190 777 251 839 q 92 632 128 715 q 57 453 57 549 m 114 453 q 146 610 114 536 q 232 739 178 683 q 358 826 286 794 q 513 858 431 858 q 667 826 594 858 q 793 739 739 794 q 879 610 847 683 q 911 453 911 536 q 879 298 911 371 q 793 170 847 225 q 667 83 739 115 q 513 51 594 51 q 358 83 431 51 q 232 170 286 115 q 146 298 178 225 q 114 453 114 371 m 714 233 l 714 332 l 700 333 q 685 294 697 314 q 651 259 672 275 q 601 233 631 243 q 535 222 571 222 q 445 244 485 222 q 378 302 406 267 q 338 383 351 338 q 324 474 324 428 q 335 554 324 515 q 370 623 346 593 q 432 672 394 653 q 522 690 469 690 q 571 683 546 690 q 618 664 596 676 q 656 633 640 651 q 679 590 672 614 l 693 590 l 693 689 q 671 693 682 689 q 647 704 660 697 q 597 724 626 715 q 522 733 568 733 q 399 710 453 733 q 307 649 344 688 q 250 561 269 611 q 231 456 231 511 q 253 347 231 397 q 317 258 276 296 q 412 199 357 221 q 532 178 467 178 q 622 191 590 178 q 675 217 654 204 q 695 228 686 224 q 714 233 704 233 "},"¤":{"ha":1019,"x_min":135,"x_max":871,"o":"m 221 224 l 135 139 l 196 79 l 282 164 q 392 103 333 122 q 503 85 450 85 q 615 103 556 85 q 724 164 674 122 l 810 79 l 871 139 l 785 224 q 838 307 813 253 q 864 444 864 361 q 838 584 864 529 q 785 668 813 639 l 871 751 l 810 813 l 724 728 q 615 788 674 769 q 503 807 556 807 q 392 788 450 807 q 282 728 333 769 l 196 813 l 135 751 l 221 668 q 167 584 193 639 q 142 444 142 529 q 167 307 142 361 q 221 224 193 253 m 210 444 q 233 559 210 506 q 296 652 256 613 q 389 715 336 692 q 503 738 442 738 q 617 715 564 738 q 710 652 671 692 q 773 559 750 613 q 796 444 796 506 q 773 331 796 383 q 710 238 750 278 q 617 176 671 199 q 503 153 564 153 q 389 176 442 153 q 296 238 336 199 q 233 331 256 278 q 210 444 210 383 "},"d":{"ha":713,"x_min":51,"x_max":640,"o":"m 504 0 l 640 0 l 640 14 q 621 22 629 14 q 607 42 613 31 q 599 66 601 53 q 596 90 596 79 l 596 925 l 457 882 l 457 868 q 497 846 490 867 q 504 801 504 825 l 504 531 q 432 576 478 558 q 339 593 386 593 q 214 567 268 593 q 124 497 160 540 q 69 399 88 454 q 51 289 51 344 q 69 178 51 232 q 122 83 86 125 q 213 16 158 42 q 342 -10 268 -10 q 441 13 401 -10 q 504 61 481 35 l 504 0 m 351 36 q 261 63 300 38 q 195 126 222 88 q 154 212 168 164 q 140 308 140 260 q 153 392 140 350 q 190 469 165 435 q 251 524 215 503 q 333 546 288 546 q 391 534 361 546 q 446 500 421 522 q 488 447 471 478 q 504 376 504 415 l 504 186 q 491 127 504 154 q 457 80 478 100 q 408 48 436 60 q 351 36 381 36 "},"†":{"ha":649,"x_min":51,"x_max":590,"o":"m 354 688 l 354 922 l 286 922 l 286 688 l 51 688 l 51 618 l 286 618 l 286 -122 l 354 -122 l 354 618 l 590 618 l 590 688 l 354 688 "},"‡":{"ha":649,"x_min":51,"x_max":590,"o":"m 354 688 l 354 922 l 286 922 l 286 688 l 51 688 l 51 618 l 286 618 l 286 181 l 51 181 l 51 113 l 286 113 l 286 -122 l 354 -122 l 354 113 l 590 113 l 590 181 l 354 181 l 354 618 l 590 618 l 590 688 l 354 688 "},"°":{"ha":339,"x_min":35,"x_max":303,"o":"m 35 793 q 73 698 35 736 q 168 660 111 660 q 263 698 224 660 q 303 793 303 736 q 292 846 303 821 q 263 889 282 871 q 220 917 244 907 q 168 928 196 928 q 73 889 111 928 q 35 793 35 850 m 82 793 q 107 856 82 829 q 168 882 132 882 q 228 856 203 882 q 254 793 254 829 q 228 732 254 757 q 168 707 203 707 q 107 732 132 707 q 82 793 82 757 "},"¨":{"ha":249,"x_min":0,"x_max":249,"o":"m 249 664 q 236 696 249 683 q 207 708 224 708 q 174 696 188 708 q 161 664 161 683 q 174 632 161 644 q 207 619 188 619 q 236 632 224 619 q 249 664 249 644 m 89 664 q 76 696 89 683 q 44 708 64 708 q 13 696 25 708 q 0 664 0 683 q 13 632 0 644 q 44 619 25 619 q 76 632 64 619 q 89 664 89 644 "},"÷":{"ha":688,"x_min":31,"x_max":618,"o":"m 31 419 l 618 419 l 618 488 l 31 488 l 31 419 m 249 667 q 267 619 249 639 q 313 600 286 600 q 360 619 340 600 q 379 667 379 639 q 360 713 379 694 q 313 732 340 732 q 267 713 286 732 q 249 667 249 694 m 249 254 q 267 208 249 226 q 313 189 286 189 q 360 208 340 189 q 379 254 379 226 q 360 301 379 282 q 313 321 340 321 q 267 301 286 321 q 249 254 249 282 "},"$":{"ha":681,"x_min":50,"x_max":624,"o":"m 310 -122 l 357 -122 l 357 -8 q 455 14 407 -3 q 540 62 503 31 q 601 138 578 93 q 624 246 624 183 q 600 351 624 308 q 538 426 576 394 q 452 478 500 457 q 357 517 404 499 l 357 879 q 485 849 438 876 q 535 757 532 822 l 549 757 l 549 900 q 506 903 528 900 q 460 913 483 907 q 357 928 411 924 l 357 1032 l 310 1032 l 310 928 q 213 909 260 925 q 130 864 167 893 q 72 792 93 835 q 50 692 50 749 q 73 592 50 633 q 133 523 96 551 q 217 474 171 494 q 310 438 264 454 l 310 38 l 301 38 q 249 42 285 38 q 176 64 213 47 q 113 111 140 81 q 86 194 86 142 l 72 194 l 72 38 q 108 33 89 38 q 149 21 128 28 q 220 1 179 10 q 310 -11 261 -8 l 310 -122 m 529 235 q 519 173 529 204 q 487 115 508 142 q 433 69 465 89 q 357 42 400 50 l 357 421 q 420 390 389 407 q 476 350 451 372 q 515 299 500 328 q 529 235 529 271 m 144 704 q 153 755 144 726 q 181 809 161 783 q 231 855 200 835 q 310 879 263 875 l 310 535 q 247 564 276 549 q 194 599 217 579 q 158 645 171 619 q 144 704 144 671 "},"e":{"ha":674,"x_min":51,"x_max":621,"o":"m 139 281 l 621 281 q 604 406 621 349 q 553 504 588 463 q 467 569 519 546 q 346 593 415 593 q 213 567 268 593 q 122 498 157 540 q 69 403 86 456 q 51 299 51 350 q 77 160 51 218 q 146 64 103 101 q 245 8 189 26 q 364 -10 301 -10 q 489 9 442 -10 q 564 44 536 28 q 588 58 578 53 q 607 64 599 64 l 607 168 l 594 168 q 563 113 586 138 q 511 72 540 89 q 448 47 482 56 q 383 38 414 38 q 283 58 326 38 q 210 111 240 78 q 163 188 181 144 q 139 281 144 232 m 340 547 q 424 528 388 547 q 483 479 460 510 q 520 410 507 449 q 535 331 533 371 l 139 331 q 157 408 143 369 q 196 478 171 447 q 256 528 221 508 q 340 547 292 547 "},"é":{"ha":674,"x_min":51,"x_max":621,"o":"m 139 281 l 621 281 q 604 406 621 349 q 553 504 588 463 q 467 569 519 546 q 346 593 415 593 q 213 567 268 593 q 122 498 157 540 q 69 403 86 456 q 51 299 51 350 q 77 160 51 218 q 146 64 103 101 q 245 8 189 26 q 364 -10 301 -10 q 489 9 442 -10 q 564 44 536 28 q 588 58 578 53 q 607 64 599 64 l 607 168 l 594 168 q 563 113 586 138 q 511 72 540 89 q 448 47 482 56 q 383 38 414 38 q 283 58 326 38 q 210 111 240 78 q 163 188 181 144 q 139 281 144 232 m 340 547 q 424 528 388 547 q 483 479 460 510 q 520 410 507 449 q 535 331 533 371 l 139 331 q 157 408 143 369 q 196 478 171 447 q 256 528 221 508 q 340 547 292 547 m 233 668 l 238 660 l 467 754 l 431 817 l 233 668 "},"ê":{"ha":674,"x_min":51,"x_max":621,"o":"m 139 281 l 621 281 q 604 406 621 349 q 553 504 588 463 q 467 569 519 546 q 346 593 415 593 q 213 567 268 593 q 122 498 157 540 q 69 403 86 456 q 51 299 51 350 q 77 160 51 218 q 146 64 103 101 q 245 8 189 26 q 364 -10 301 -10 q 489 9 442 -10 q 564 44 536 28 q 588 58 578 53 q 607 64 599 64 l 607 168 l 594 168 q 563 113 586 138 q 511 72 540 89 q 448 47 482 56 q 383 38 414 38 q 283 58 326 38 q 210 111 240 78 q 163 188 181 144 q 139 281 144 232 m 340 547 q 424 528 388 547 q 483 479 460 510 q 520 410 507 449 q 535 331 533 371 l 139 331 q 157 408 143 369 q 196 478 171 447 q 256 528 221 508 q 340 547 292 547 m 519 667 l 521 674 l 351 817 l 182 674 l 185 667 l 351 749 l 519 667 "},"ë":{"ha":674,"x_min":51,"x_max":621,"o":"m 139 281 l 621 281 q 604 406 621 349 q 553 504 588 463 q 467 569 519 546 q 346 593 415 593 q 213 567 268 593 q 122 498 157 540 q 69 403 86 456 q 51 299 51 350 q 77 160 51 218 q 146 64 103 101 q 245 8 189 26 q 364 -10 301 -10 q 489 9 442 -10 q 564 44 536 28 q 588 58 578 53 q 607 64 599 64 l 607 168 l 594 168 q 563 113 586 138 q 511 72 540 89 q 448 47 482 56 q 383 38 414 38 q 283 58 326 38 q 210 111 240 78 q 163 188 181 144 q 139 281 144 232 m 340 547 q 424 528 388 547 q 483 479 460 510 q 520 410 507 449 q 535 331 533 371 l 139 331 q 157 408 143 369 q 196 478 171 447 q 256 528 221 508 q 340 547 292 547 m 471 710 q 458 742 471 729 q 429 754 446 754 q 397 742 410 754 q 383 710 383 729 q 397 678 383 690 q 429 665 410 665 q 458 678 446 665 q 471 710 471 690 m 311 710 q 299 742 311 729 q 267 754 286 754 q 235 742 247 754 q 222 710 222 729 q 235 678 222 690 q 267 665 247 665 q 299 678 286 665 q 311 710 311 690 "},"è":{"ha":674,"x_min":51,"x_max":621,"o":"m 139 281 l 621 281 q 604 406 621 349 q 553 504 588 463 q 467 569 519 546 q 346 593 415 593 q 213 567 268 593 q 122 498 157 540 q 69 403 86 456 q 51 299 51 350 q 77 160 51 218 q 146 64 103 101 q 245 8 189 26 q 364 -10 301 -10 q 489 9 442 -10 q 564 44 536 28 q 588 58 578 53 q 607 64 599 64 l 607 168 l 594 168 q 563 113 586 138 q 511 72 540 89 q 448 47 482 56 q 383 38 414 38 q 283 58 326 38 q 210 111 240 78 q 163 188 181 144 q 139 281 144 232 m 340 547 q 424 528 388 547 q 483 479 460 510 q 520 410 507 449 q 535 331 533 371 l 139 331 q 157 408 143 369 q 196 478 171 447 q 256 528 221 508 q 340 547 292 547 m 457 644 l 460 653 l 263 801 l 226 739 l 457 644 "},"…":{"ha":850,"x_min":72,"x_max":767,"o":"m 72 60 q 91 13 72 32 q 138 -6 110 -6 q 185 13 165 -6 q 204 60 204 32 q 185 107 204 88 q 138 126 165 126 q 91 107 110 126 q 72 60 72 88 m 351 60 q 369 13 351 32 q 415 -6 388 -6 q 463 13 443 -6 q 482 60 482 32 q 463 107 482 88 q 415 126 443 126 q 369 107 388 126 q 351 60 351 88 m 636 60 q 654 13 636 32 q 700 -6 672 -6 q 747 13 728 -6 q 767 60 767 32 q 747 107 767 88 q 700 126 728 126 q 654 107 672 126 q 636 60 636 88 "},"—":{"ha":1238,"x_min":42,"x_max":1206,"o":"m 42 286 l 1206 286 l 1206 356 l 42 356 l 42 286 "},"–":{"ha":742,"x_min":69,"x_max":657,"o":"m 69 286 l 657 286 l 657 356 l 69 356 l 69 286 "},"=":{"ha":649,"x_min":49,"x_max":590,"o":"m 49 528 l 590 528 l 590 597 l 49 597 l 49 528 m 49 319 l 590 319 l 590 386 l 49 386 l 49 319 "},"ð":{"ha":724,"x_min":54,"x_max":667,"o":"m 399 799 l 489 915 l 415 915 l 349 828 q 219 880 289 860 q 82 900 150 900 l 56 900 l 56 888 q 196 851 129 879 q 318 786 263 822 l 199 631 l 271 631 q 316 692 293 660 q 363 751 339 724 q 449 665 414 711 q 517 553 485 618 q 365 588 451 588 q 242 565 299 588 q 143 503 185 543 q 78 406 101 463 q 54 282 54 350 q 76 164 54 218 q 137 70 97 110 q 232 8 176 31 q 357 -15 288 -15 q 501 12 442 -15 q 597 84 560 39 q 650 186 633 129 q 667 303 667 243 q 647 453 667 382 q 592 588 628 525 q 508 704 557 651 q 399 799 458 757 m 371 31 q 278 53 319 31 q 206 113 236 75 q 160 198 176 150 q 144 297 144 246 q 158 385 144 342 q 197 464 171 429 q 260 520 222 499 q 349 542 299 542 q 451 518 407 542 q 524 456 494 494 q 567 372 553 418 q 581 279 581 325 q 567 190 581 235 q 528 110 554 146 q 462 53 501 75 q 371 31 422 31 "},"!":{"ha":349,"x_min":81,"x_max":260,"o":"m 81 915 l 81 901 q 100 894 92 901 q 114 875 108 886 q 123 851 119 864 q 126 829 126 839 l 168 158 l 185 158 l 221 829 q 232 876 222 850 q 260 901 242 901 l 260 915 l 81 915 m 111 53 q 130 6 111 25 q 176 -12 149 -12 q 223 6 204 -12 q 242 53 242 25 q 223 100 242 81 q 176 119 204 119 q 130 100 149 119 q 111 53 111 81 "},"¡":{"ha":349,"x_min":81,"x_max":264,"o":"m 183 733 l 169 733 l 126 86 q 123 64 126 76 q 114 40 119 51 q 100 22 108 29 q 81 14 92 14 l 81 0 l 264 0 l 264 14 q 246 22 254 14 q 232 40 238 29 q 224 63 226 50 q 221 86 221 75 l 183 733 m 111 863 q 130 815 111 835 q 176 796 149 796 q 223 815 204 796 q 242 863 242 835 q 223 909 242 890 q 176 928 204 928 q 130 909 149 928 q 111 863 111 890 "},"f":{"ha":389,"x_min":31,"x_max":364,"o":"m 192 536 l 349 536 l 349 583 l 192 583 l 192 715 q 204 833 192 790 q 257 875 217 875 q 315 848 286 875 q 351 781 344 821 l 364 781 l 364 882 q 347 888 357 882 q 323 902 338 894 q 288 916 308 910 q 240 922 268 922 q 162 903 190 922 q 119 851 133 883 q 103 779 106 819 q 100 696 100 739 l 100 583 l 31 583 l 31 536 l 100 536 l 100 90 q 97 66 100 79 q 88 42 94 53 q 74 22 82 31 q 56 14 65 14 l 56 0 l 236 0 l 236 14 q 217 22 225 14 q 203 42 210 31 q 194 66 197 53 q 192 90 192 79 l 192 536 "},"ƒ":{"ha":717,"x_min":25,"x_max":710,"o":"m 597 922 q 515 903 547 922 q 461 851 482 883 q 428 778 440 819 q 406 696 415 738 q 391 640 399 668 q 376 583 383 611 l 240 583 l 229 536 l 365 536 l 233 3 q 193 -115 214 -72 q 132 -157 172 -157 q 82 -132 104 -157 q 60 -71 60 -107 l 60 -64 l 47 -64 l 25 -164 q 38 -168 32 -164 q 50 -176 43 -172 q 82 -195 63 -186 q 138 -204 101 -204 q 219 -185 188 -204 q 272 -133 251 -165 q 306 -60 293 -100 q 329 22 318 -19 l 457 536 l 615 536 l 625 583 l 468 583 l 501 715 q 542 833 521 790 q 603 875 563 875 q 651 849 631 875 q 672 788 672 824 l 672 781 l 685 781 l 710 882 q 697 885 703 882 q 685 893 692 889 l 683 894 q 651 913 671 904 q 597 922 632 922 "},"g":{"ha":688,"x_min":51,"x_max":628,"o":"m 351 -258 q 272 -250 308 -258 q 208 -225 235 -242 q 165 -185 181 -208 q 149 -133 149 -162 q 161 -85 149 -112 q 206 -32 174 -57 l 276 -44 q 383 -63 332 -54 q 474 -85 435 -72 q 535 -114 513 -97 q 558 -154 558 -131 q 542 -196 558 -176 q 497 -229 525 -215 q 431 -251 468 -243 q 351 -258 393 -258 m 428 19 l 254 47 q 151 81 192 57 q 111 150 111 106 q 117 180 111 165 q 138 204 122 194 q 224 160 175 175 q 324 144 272 144 q 428 162 379 144 q 515 209 478 179 q 572 278 551 239 q 593 363 593 318 q 583 422 593 393 q 564 471 574 450 l 628 471 l 628 521 l 528 521 q 439 573 492 553 q 328 593 386 593 q 224 575 272 593 q 139 525 175 557 q 82 450 103 493 q 61 357 61 407 q 71 297 61 325 q 104 242 81 269 q 64 194 76 219 q 51 142 51 168 q 77 55 51 97 q 151 -12 103 13 q 79 -77 101 -44 q 57 -146 57 -110 q 79 -217 57 -186 q 139 -269 101 -249 q 225 -301 176 -290 q 326 -311 274 -311 q 433 -300 381 -311 q 526 -266 485 -289 q 592 -208 567 -243 q 618 -126 618 -174 q 610 -77 618 -100 q 579 -35 601 -54 q 520 -3 557 -17 q 428 19 483 11 m 311 544 q 381 531 346 544 q 442 494 415 518 q 486 435 469 469 q 503 358 503 400 q 492 294 503 325 q 460 241 481 264 q 410 205 439 218 q 347 192 382 192 q 280 204 315 192 q 215 240 244 217 q 167 300 186 264 q 149 382 149 336 q 162 449 149 419 q 197 500 175 479 q 249 533 219 521 q 311 544 278 544 "},"ß":{"ha":726,"x_min":61,"x_max":669,"o":"m 628 700 q 606 799 628 757 q 547 868 583 840 q 465 909 511 896 q 372 922 419 922 q 273 906 321 922 q 188 859 225 890 q 128 781 150 828 q 106 672 106 733 l 106 90 q 103 66 106 79 q 94 41 100 53 q 79 22 88 29 q 61 14 71 14 l 61 0 l 244 0 l 244 14 q 225 22 233 14 q 211 42 217 31 q 202 66 206 53 q 199 90 199 79 l 199 661 q 248 817 199 763 q 372 872 297 872 q 489 826 443 872 q 535 694 535 781 q 517 621 535 653 q 471 567 500 589 q 404 533 442 544 q 325 521 367 521 l 289 521 l 289 472 l 318 472 q 416 453 369 472 q 497 403 463 435 q 553 328 532 371 q 574 239 574 286 q 557 158 574 199 q 509 86 540 118 q 433 34 478 54 q 335 14 389 14 l 335 0 q 477 19 415 0 q 582 74 539 39 q 647 155 625 108 q 669 256 669 201 q 626 394 669 331 q 490 499 583 458 q 592 584 556 535 q 628 700 628 633 "},"`":{"ha":308,"x_min":33,"x_max":267,"o":"m 264 614 l 267 622 l 69 771 l 33 708 l 264 614 "},">":{"ha":649,"x_min":49,"x_max":593,"o":"m 49 193 l 593 417 l 593 490 l 49 714 l 49 631 q 270 542 160 586 q 493 453 381 497 l 49 278 l 49 193 "},"«":{"ha":542,"x_min":68,"x_max":464,"o":"m 463 60 l 356 301 l 464 542 l 456 549 l 263 300 l 451 53 l 463 60 m 271 60 l 165 301 l 274 540 l 263 547 l 68 300 l 260 53 l 271 60 "},"»":{"ha":542,"x_min":71,"x_max":467,"o":"m 179 304 l 74 63 l 85 56 l 276 303 l 82 549 l 71 543 l 179 304 m 371 304 l 267 63 l 278 56 l 467 303 l 276 549 l 265 543 l 371 304 "},"‹":{"ha":346,"x_min":67,"x_max":271,"o":"m 268 64 l 164 307 l 271 547 l 263 553 l 67 306 l 260 57 l 268 64 "},"›":{"ha":346,"x_min":69,"x_max":274,"o":"m 179 307 l 72 65 l 83 58 l 274 306 l 81 551 l 69 546 l 179 307 "},"h":{"ha":739,"x_min":61,"x_max":665,"o":"m 621 90 l 621 358 q 608 441 621 399 q 565 519 594 483 q 490 576 536 554 q 379 599 444 599 q 312 591 340 599 q 262 572 283 583 q 225 547 240 560 q 200 522 210 533 l 200 924 l 61 881 l 61 867 q 101 844 94 865 q 108 800 108 824 l 108 90 q 106 66 108 79 q 97 42 103 53 q 82 22 90 31 q 64 14 74 14 l 64 0 l 244 0 l 244 14 q 226 22 233 14 q 212 42 218 31 q 203 66 206 53 q 200 90 200 79 l 200 386 q 215 452 200 422 q 252 503 229 482 q 305 535 275 524 q 365 547 335 547 q 426 535 396 547 q 479 499 456 524 q 517 436 503 474 q 531 349 531 399 l 531 90 q 528 66 531 79 q 519 42 525 53 q 504 22 513 31 q 486 14 496 14 l 486 0 l 665 0 l 665 14 q 647 22 654 14 q 633 42 639 31 q 624 66 626 53 q 621 90 621 79 "},"-":{"ha":414,"x_min":40,"x_max":356,"o":"m 40 286 l 356 286 l 356 356 l 40 356 l 40 286 "},"i":{"ha":349,"x_min":79,"x_max":263,"o":"m 82 0 l 263 0 l 263 14 q 243 22 251 14 q 229 42 235 31 q 221 66 224 53 q 218 90 218 79 l 218 600 l 79 556 l 79 543 q 119 520 113 542 q 126 475 126 499 l 126 90 q 124 66 126 79 q 115 42 121 53 q 101 22 110 31 q 82 14 93 14 l 82 0 m 89 733 q 108 688 89 706 q 154 669 126 669 q 201 688 182 669 q 221 733 221 706 q 201 781 221 761 q 154 800 182 800 q 108 781 126 800 q 89 733 89 761 "},"í":{"ha":349,"x_min":35,"x_max":268,"o":"m 85 3 l 260 3 l 260 11 q 240 21 249 13 q 226 42 232 29 q 218 67 221 54 q 215 90 215 81 l 215 597 l 82 553 l 82 546 q 122 521 114 543 q 129 475 129 499 l 129 90 q 126 67 129 81 q 118 42 124 54 q 104 21 113 29 q 85 11 96 13 l 85 3 m 35 622 l 39 614 l 268 708 l 232 771 l 35 622 "},"î":{"ha":349,"x_min":4,"x_max":343,"o":"m 82 0 l 263 0 l 263 14 q 243 22 251 14 q 229 42 235 31 q 221 66 224 53 q 218 90 218 79 l 218 600 l 79 556 l 79 543 q 119 520 113 542 q 126 475 126 499 l 126 90 q 124 66 126 79 q 115 42 121 53 q 101 22 110 31 q 82 14 93 14 l 82 0 m 342 618 l 343 625 l 174 768 l 4 625 l 7 618 l 174 700 l 342 618 "},"ï":{"ha":349,"x_min":49,"x_max":297,"o":"m 85 3 l 260 3 l 260 11 q 241 21 249 13 q 227 42 233 29 q 218 67 221 54 q 215 90 215 81 l 215 597 l 82 553 l 82 546 q 122 521 114 543 q 129 475 129 499 l 129 90 q 126 67 129 81 q 118 42 124 54 q 104 21 113 29 q 85 11 96 13 l 85 3 m 297 664 q 285 696 297 683 q 254 708 272 708 q 222 696 235 708 q 210 664 210 683 q 222 632 210 644 q 254 619 235 619 q 285 632 272 619 q 297 664 297 644 m 138 664 q 125 696 138 683 q 93 708 113 708 q 61 696 74 708 q 49 664 49 683 q 61 632 49 644 q 93 619 74 619 q 125 632 113 619 q 138 664 138 644 "},"ì":{"ha":349,"x_min":46,"x_max":279,"o":"m 82 0 l 263 0 l 263 14 q 243 22 251 14 q 229 42 235 31 q 221 66 224 53 q 218 90 218 79 l 218 600 l 79 556 l 79 543 q 119 520 113 542 q 126 475 126 499 l 126 90 q 124 66 126 79 q 115 42 121 53 q 101 22 110 31 q 82 14 93 14 l 82 0 m 276 614 l 279 622 l 82 771 l 46 708 l 276 614 "},"j":{"ha":290,"x_min":-32,"x_max":219,"o":"m 210 599 l 72 554 l 72 542 q 113 519 106 540 q 119 474 119 497 l 119 8 q 95 -120 119 -67 q 43 -208 71 -174 q -32 -276 10 -250 l -26 -289 q 92 -215 39 -261 q 135 -172 114 -196 q 172 -117 156 -147 q 199 -50 189 -86 q 210 29 210 -14 l 210 599 m 88 733 q 107 688 88 706 q 154 669 126 669 q 201 688 182 669 q 219 733 219 706 q 201 781 219 761 q 154 800 182 800 q 107 781 126 800 q 88 733 88 761 "},"k":{"ha":639,"x_min":67,"x_max":604,"o":"m 525 0 l 604 0 l 604 14 q 574 27 592 14 q 542 56 557 40 q 506 99 524 74 l 300 358 l 497 542 q 517 556 507 550 q 534 565 525 561 q 551 569 543 569 l 551 583 l 426 583 l 426 569 q 436 560 436 569 q 429 543 436 550 l 204 332 l 204 911 l 67 868 l 67 854 q 100 833 88 853 q 113 794 113 814 l 113 88 q 110 64 113 76 q 101 40 107 51 q 88 22 96 29 q 69 14 79 14 l 69 0 l 250 0 l 250 14 q 231 22 239 14 q 216 41 222 29 q 207 65 210 53 q 204 88 204 78 l 204 268 l 233 297 l 413 67 q 446 33 428 49 q 481 10 461 21 q 525 0 501 0 "},"l":{"ha":321,"x_min":65,"x_max":250,"o":"m 68 0 l 250 0 l 250 14 q 231 22 239 14 q 217 42 224 31 q 208 66 211 53 q 206 90 206 79 l 206 925 l 65 882 l 65 868 q 107 846 100 867 q 114 801 114 825 l 114 90 q 111 66 114 79 q 102 42 108 53 q 88 22 96 31 q 68 14 79 14 l 68 0 "},"<":{"ha":649,"x_min":49,"x_max":593,"o":"m 49 417 l 593 193 l 593 278 q 370 366 481 322 q 147 453 260 410 l 593 631 l 593 714 l 49 490 l 49 417 "},"¬":{"ha":649,"x_min":51,"x_max":589,"o":"m 528 158 l 589 158 l 589 386 l 51 386 l 51 319 l 528 319 l 528 158 "},"m":{"ha":1074,"x_min":64,"x_max":994,"o":"m 951 90 l 951 350 q 946 422 951 379 q 919 503 940 464 q 853 569 897 542 q 731 597 808 597 q 660 586 690 597 q 609 557 631 575 q 572 517 588 539 q 546 475 557 496 q 518 518 535 496 q 478 558 501 540 q 425 586 456 575 q 356 597 394 597 q 259 575 296 597 q 201 529 222 553 l 201 600 l 64 554 l 64 542 q 90 533 81 542 q 104 513 100 525 q 110 486 108 500 q 111 461 111 472 l 111 90 q 108 66 111 79 q 99 42 106 53 q 85 22 93 31 q 67 14 76 14 l 67 0 l 246 0 l 246 14 q 227 22 235 14 q 213 42 219 31 q 204 66 207 53 q 201 90 201 79 l 201 410 q 210 456 201 432 q 237 501 219 481 q 281 536 254 522 q 344 550 308 550 q 397 539 371 550 q 442 508 422 528 q 474 460 463 489 q 486 399 486 432 l 486 90 q 483 66 486 79 q 474 42 481 53 q 460 22 468 31 q 442 14 451 14 l 442 0 l 621 0 l 621 14 q 602 22 610 14 q 588 42 594 31 q 579 66 582 53 q 576 90 576 79 l 576 397 q 585 440 576 414 q 610 490 593 465 q 655 533 628 515 q 719 550 682 550 q 779 537 753 550 q 824 502 806 524 q 851 451 842 481 q 860 390 860 422 l 860 90 q 857 66 860 79 q 848 42 854 53 q 833 22 842 31 q 814 14 825 14 l 814 0 l 994 0 l 994 14 q 976 22 983 14 q 963 42 968 31 q 954 66 957 53 q 951 90 951 79 "},"¯":{"ha":369,"x_min":40,"x_max":318,"o":"m 40 713 l 40 657 l 318 657 l 318 713 l 40 713 "},"×":{"ha":649,"x_min":106,"x_max":539,"o":"m 371 454 l 539 622 l 489 672 l 321 504 l 154 672 l 106 624 q 139 589 115 613 q 189 540 163 565 q 239 490 215 514 q 274 456 263 465 l 107 290 l 156 240 l 322 407 l 489 240 l 538 289 l 371 454 "},"n":{"ha":739,"x_min":61,"x_max":665,"o":"m 621 90 l 621 358 q 608 441 621 399 q 565 519 594 483 q 490 576 536 554 q 379 599 444 599 q 312 591 340 599 q 262 572 283 583 q 225 547 240 560 q 200 522 210 533 l 200 599 l 61 554 l 61 542 q 101 519 94 540 q 108 474 108 497 l 108 90 q 106 66 108 79 q 97 42 103 53 q 82 22 90 31 q 64 14 74 14 l 64 0 l 244 0 l 244 14 q 226 22 233 14 q 212 42 218 31 q 203 66 206 53 q 200 90 200 79 l 200 399 q 215 455 200 428 q 252 502 229 482 q 305 535 275 522 q 365 547 335 547 q 426 535 396 547 q 479 499 456 524 q 517 436 503 474 q 531 349 531 399 l 531 90 q 528 66 531 79 q 519 42 525 53 q 504 22 513 31 q 486 14 496 14 l 486 0 l 665 0 l 665 14 q 647 22 654 14 q 633 42 639 31 q 624 66 626 53 q 621 90 621 79 "},"ñ":{"ha":739,"x_min":61,"x_max":665,"o":"m 621 90 l 621 358 q 608 441 621 399 q 565 519 594 483 q 490 576 536 554 q 379 599 444 599 q 312 591 340 599 q 262 572 283 583 q 225 547 240 560 q 200 522 210 533 l 200 599 l 61 554 l 61 542 q 101 519 94 540 q 108 474 108 497 l 108 90 q 106 66 108 79 q 97 42 103 53 q 82 22 90 31 q 64 14 74 14 l 64 0 l 244 0 l 244 14 q 226 22 233 14 q 212 42 218 31 q 203 66 206 53 q 200 90 200 79 l 200 399 q 215 455 200 428 q 252 502 229 482 q 305 535 275 522 q 365 547 335 547 q 426 535 396 547 q 479 499 456 524 q 517 436 503 474 q 531 349 531 399 l 531 90 q 528 66 531 79 q 519 42 525 53 q 504 22 513 31 q 486 14 496 14 l 486 0 l 665 0 l 665 14 q 647 22 654 14 q 633 42 639 31 q 624 66 626 53 q 621 90 621 79 m 526 767 l 521 768 q 494 734 510 749 q 457 719 479 719 q 421 728 440 719 q 383 747 401 736 q 344 765 364 757 q 308 774 325 774 q 255 749 281 774 q 210 667 229 725 l 217 665 q 249 706 235 690 q 285 721 264 721 q 324 712 303 721 q 368 692 346 703 q 411 674 390 682 q 449 665 432 665 q 494 685 478 665 q 526 767 510 704 "},"#":{"ha":699,"x_min":38,"x_max":651,"o":"m 299 628 l 340 910 l 272 910 l 228 628 l 75 628 l 75 546 l 215 546 l 190 365 l 38 365 l 38 285 l 178 285 l 138 0 l 206 0 l 247 285 l 399 285 l 358 0 l 429 0 l 468 285 l 614 285 l 614 365 l 478 365 l 504 546 l 651 546 l 651 628 l 517 628 l 560 910 l 490 910 l 447 628 l 299 628 m 258 365 l 286 546 l 438 546 l 413 365 l 258 365 "},"o":{"ha":726,"x_min":51,"x_max":665,"o":"m 354 -10 q 488 17 431 -10 q 585 86 546 43 q 645 185 625 129 q 665 301 665 242 q 643 419 665 365 q 581 511 621 472 q 485 572 540 550 q 363 593 429 593 q 239 571 296 593 q 140 508 182 549 q 75 412 99 468 q 51 288 51 356 q 73 169 51 224 q 134 76 94 115 q 229 13 174 36 q 354 -10 285 -10 m 346 547 q 448 524 404 547 q 521 462 492 500 q 564 377 550 424 q 578 285 578 331 q 565 196 578 240 q 525 116 551 151 q 459 58 499 81 q 368 36 419 36 q 275 58 317 36 q 203 118 233 81 q 158 203 174 156 q 142 303 142 251 q 155 390 142 347 q 194 467 168 433 q 258 523 219 501 q 346 547 296 544 "},"ó":{"ha":726,"x_min":51,"x_max":665,"o":"m 354 -10 q 488 17 431 -10 q 585 86 546 43 q 645 185 625 129 q 665 301 665 242 q 643 419 665 365 q 581 511 621 472 q 485 572 540 550 q 363 593 429 593 q 239 571 296 593 q 140 508 182 549 q 75 412 99 468 q 51 288 51 356 q 73 169 51 224 q 134 76 94 115 q 229 13 174 36 q 354 -10 285 -10 m 346 547 q 448 524 404 547 q 521 462 492 500 q 564 377 550 424 q 578 285 578 331 q 565 196 578 240 q 525 116 551 151 q 459 58 499 81 q 368 36 419 36 q 275 58 317 36 q 203 118 233 81 q 158 203 174 156 q 142 303 142 251 q 155 390 142 347 q 194 467 168 433 q 258 523 219 501 q 346 547 296 544 m 246 685 l 250 676 l 479 771 l 443 833 l 246 685 "},"ô":{"ha":726,"x_min":51,"x_max":665,"o":"m 354 -10 q 488 17 431 -10 q 585 86 546 43 q 645 185 625 129 q 665 301 665 242 q 643 419 665 365 q 581 511 621 472 q 485 572 540 550 q 363 593 429 593 q 239 571 296 593 q 140 508 182 549 q 75 412 99 468 q 51 288 51 356 q 73 169 51 224 q 134 76 94 115 q 229 13 174 36 q 354 -10 285 -10 m 346 547 q 448 524 404 547 q 521 462 492 500 q 564 377 550 424 q 578 285 578 331 q 565 196 578 240 q 525 116 551 151 q 459 58 499 81 q 368 36 419 36 q 275 58 317 36 q 203 118 233 81 q 158 203 174 156 q 142 303 142 251 q 155 390 142 347 q 194 467 168 433 q 258 523 219 501 q 346 547 296 544 m 531 667 l 532 674 l 363 817 l 193 674 l 196 667 l 363 749 l 531 667 "},"ö":{"ha":726,"x_min":51,"x_max":665,"o":"m 354 -10 q 488 17 431 -10 q 585 86 546 43 q 645 185 625 129 q 665 301 665 242 q 643 419 665 365 q 581 511 621 472 q 485 572 540 550 q 363 593 429 593 q 239 571 296 593 q 140 508 182 549 q 75 412 99 468 q 51 288 51 356 q 73 169 51 224 q 134 76 94 115 q 229 13 174 36 q 354 -10 285 -10 m 346 547 q 448 524 404 547 q 521 462 492 500 q 564 377 550 424 q 578 285 578 331 q 565 196 578 240 q 525 116 551 151 q 459 58 499 81 q 368 36 419 36 q 275 58 317 36 q 203 118 233 81 q 158 203 174 156 q 142 303 142 251 q 155 390 142 347 q 194 467 168 433 q 258 523 219 501 q 346 547 296 544 m 486 713 q 474 744 486 732 q 444 757 461 757 q 412 744 425 757 q 399 713 399 732 q 412 681 399 693 q 444 668 425 668 q 474 681 461 668 q 486 713 486 693 m 326 713 q 314 744 326 732 q 282 757 301 757 q 250 744 263 757 q 238 713 238 732 q 250 681 238 693 q 282 668 263 668 q 314 681 301 668 q 326 713 326 693 "},"œ":{"ha":1167,"x_min":63,"x_max":1101,"o":"m 878 38 q 785 57 826 38 q 715 110 744 76 q 669 187 686 143 q 647 281 651 231 l 1101 281 q 1087 406 1101 349 q 1040 504 1072 463 q 959 569 1008 546 q 840 593 910 593 q 692 556 747 593 q 603 461 638 519 q 504 557 564 522 q 360 592 444 592 q 238 569 293 592 q 144 507 183 547 q 84 410 106 467 q 63 286 63 354 q 81 168 63 222 q 137 74 100 114 q 228 12 174 35 q 351 -11 282 -11 q 503 30 443 -11 q 601 129 564 71 q 709 24 643 57 q 858 -10 775 -10 q 979 9 936 -10 q 1046 44 1022 28 q 1068 58 1058 53 q 1088 64 1078 64 l 1088 168 l 1074 168 q 1045 113 1065 138 q 998 72 1025 89 q 940 47 971 56 q 878 38 908 38 m 835 547 q 915 528 882 547 q 971 479 949 510 q 1003 410 993 449 q 1015 331 1014 371 l 647 331 q 663 413 649 374 q 700 481 676 451 q 758 529 724 511 q 835 547 792 547 m 365 35 q 274 57 314 35 q 206 117 233 79 q 165 202 179 154 q 151 301 151 250 q 163 390 151 346 q 197 468 174 433 q 256 524 219 503 q 343 546 293 546 q 442 522 401 546 q 510 460 483 499 q 548 376 536 422 q 560 283 560 329 q 549 194 560 239 q 514 115 538 150 q 453 57 490 79 q 365 35 417 35 "},"ò":{"ha":726,"x_min":51,"x_max":665,"o":"m 354 -10 q 488 17 431 -10 q 585 86 546 43 q 645 185 625 129 q 665 301 665 242 q 643 419 665 365 q 581 511 621 472 q 485 572 540 550 q 363 593 429 593 q 239 571 296 593 q 140 508 182 549 q 75 412 99 468 q 51 288 51 356 q 73 169 51 224 q 134 76 94 115 q 229 13 174 36 q 354 -10 285 -10 m 346 547 q 448 524 404 547 q 521 462 492 500 q 564 377 550 424 q 578 285 578 331 q 565 196 578 240 q 525 116 551 151 q 459 58 499 81 q 368 36 419 36 q 275 58 317 36 q 203 118 233 81 q 158 203 174 156 q 142 303 142 251 q 155 390 142 347 q 194 467 168 433 q 258 523 219 501 q 346 547 296 544 m 476 672 l 479 681 l 282 829 l 246 767 l 476 672 "},"ø":{"ha":726,"x_min":51,"x_max":665,"o":"m 354 -10 q 488 17 431 -10 q 585 86 546 43 q 645 185 625 129 q 665 301 665 242 q 632 438 665 376 q 547 539 599 500 l 583 597 l 513 597 l 493 567 q 431 585 465 578 q 363 593 397 593 q 239 571 296 593 q 140 508 182 549 q 75 412 99 468 q 51 288 51 356 q 81 151 51 213 q 164 49 111 89 l 125 -14 l 196 -14 q 206 3 201 -7 q 217 19 211 13 q 282 -2 247 6 q 354 -10 317 -10 m 578 285 q 565 196 578 240 q 525 116 551 151 q 459 58 499 81 q 368 36 419 36 q 251 74 304 36 q 379 275 314 174 q 507 476 444 376 q 560 385 543 438 q 578 285 578 333 m 346 547 q 407 539 378 547 q 460 517 436 531 q 333 316 397 418 q 207 115 269 214 q 159 201 176 151 q 142 303 142 251 q 155 390 142 347 q 194 467 168 433 q 258 523 219 501 q 346 547 296 544 "},"õ":{"ha":726,"x_min":51,"x_max":665,"o":"m 354 -10 q 488 17 431 -10 q 585 86 546 43 q 645 185 625 129 q 665 301 665 242 q 643 419 665 365 q 581 511 621 472 q 485 572 540 550 q 363 593 429 593 q 239 571 296 593 q 140 508 182 549 q 75 412 99 468 q 51 288 51 356 q 73 169 51 224 q 134 76 94 115 q 229 13 174 36 q 354 -10 285 -10 m 346 547 q 448 524 404 547 q 521 462 492 500 q 564 377 550 424 q 578 285 578 331 q 565 196 578 240 q 525 116 551 151 q 459 58 499 81 q 368 36 419 36 q 275 58 317 36 q 203 118 233 81 q 158 203 174 156 q 142 303 142 251 q 155 390 142 347 q 194 467 168 433 q 258 523 219 501 q 346 547 296 544 m 521 771 l 515 772 q 489 738 504 753 q 451 724 474 724 q 415 732 435 724 q 377 751 396 740 q 339 769 358 761 q 303 778 319 778 q 249 753 275 778 q 204 671 224 729 l 211 669 q 244 710 229 694 q 279 725 258 725 q 319 716 297 725 q 363 697 340 707 q 406 678 385 686 q 443 669 426 669 q 488 689 472 669 q 521 771 504 708 "},"p":{"ha":715,"x_min":64,"x_max":653,"o":"m 358 593 q 267 574 307 593 q 200 522 228 556 l 200 583 l 64 583 l 64 569 q 90 562 81 568 q 103 547 99 556 q 108 526 107 538 q 108 501 108 514 l 108 -201 q 106 -226 108 -212 q 97 -250 103 -239 q 82 -269 90 -261 q 64 -278 74 -278 l 64 -292 l 244 -292 l 244 -278 q 226 -269 233 -278 q 212 -250 218 -261 q 203 -226 206 -239 q 200 -201 200 -212 l 200 71 q 281 13 236 36 q 369 -10 326 -10 q 494 17 442 -10 q 583 86 547 43 q 635 183 618 129 q 653 293 653 238 q 635 404 653 350 q 580 500 617 458 q 488 567 543 542 q 358 593 433 593 m 371 38 q 310 50 340 38 q 255 85 279 63 q 215 140 231 108 q 200 208 200 171 l 200 390 q 213 453 200 425 q 248 503 226 482 q 298 535 269 524 q 356 546 326 546 q 442 522 404 546 q 507 459 481 497 q 547 372 533 421 q 561 274 561 324 q 550 188 561 229 q 515 114 539 147 q 456 60 492 81 q 371 38 419 39 "},"¶":{"ha":663,"x_min":26,"x_max":565,"o":"m 565 901 l 565 917 l 257 917 q 156 896 199 917 q 84 842 113 875 q 41 765 56 808 q 26 679 26 722 q 41 593 26 635 q 85 518 56 551 q 156 465 114 485 q 256 443 199 444 l 256 -118 q 253 -142 256 -129 q 244 -165 250 -154 q 231 -184 239 -176 q 213 -193 222 -192 l 213 -207 l 565 -207 l 565 -193 q 547 -185 554 -193 q 533 -166 539 -178 q 524 -142 526 -154 q 521 -118 521 -129 l 521 829 q 524 852 521 839 q 534 876 528 865 q 548 894 540 886 q 565 901 556 901 m 436 829 l 436 -118 q 433 -142 436 -129 q 423 -166 429 -154 q 408 -185 417 -178 q 388 -193 399 -193 q 370 -185 379 -193 q 355 -166 361 -178 q 344 -142 349 -154 q 340 -118 340 -129 l 340 829 q 344 851 340 839 q 353 875 347 864 q 368 894 360 886 q 388 901 376 901 q 408 894 399 901 q 423 875 417 886 q 433 851 429 864 q 436 829 436 839 "},"(":{"ha":306,"x_min":13,"x_max":251,"o":"m 239 -126 l 251 -119 q 177 13 206 -57 q 133 155 149 82 q 111 303 117 228 q 106 453 106 378 q 111 607 106 531 q 133 756 117 683 q 176 896 149 828 q 249 1026 204 964 l 236 1033 q 140 904 182 969 q 69 768 97 839 q 27 619 42 697 q 13 454 13 542 q 70 143 13 283 q 239 -126 128 3 "},")":{"ha":306,"x_min":11,"x_max":250,"o":"m 24 1033 l 11 1026 q 85 895 57 964 q 131 753 114 826 q 153 605 147 681 q 158 454 158 529 q 153 301 158 376 q 131 153 147 225 q 87 12 115 81 q 14 -119 58 -57 l 26 -126 q 193 140 136 1 q 250 453 250 278 q 193 765 250 625 q 24 1033 136 906 "},"%":{"ha":1067,"x_min":47,"x_max":1007,"o":"m 318 -35 l 799 910 l 728 910 l 250 -35 l 318 -35 m 679 199 q 707 323 679 278 q 782 368 735 368 q 874 321 838 368 q 911 196 911 274 q 883 78 911 125 q 807 32 856 32 q 758 45 781 32 q 717 81 735 58 q 690 133 700 103 q 679 199 679 164 m 374 661 q 345 537 374 583 q 269 490 317 490 q 178 540 217 490 q 140 667 140 589 q 168 784 140 738 q 244 831 196 831 q 293 817 269 831 q 335 781 317 804 q 363 728 353 758 q 374 661 374 697 m 47 664 q 64 581 47 619 q 108 515 81 543 q 174 469 136 486 q 257 453 213 453 q 340 469 301 453 q 406 515 378 486 q 451 581 435 543 q 468 664 468 619 q 451 745 468 707 q 406 813 435 783 q 340 858 378 842 q 257 875 301 875 q 174 858 213 875 q 108 813 136 842 q 64 745 81 783 q 47 664 47 707 m 586 194 q 603 113 586 151 q 647 47 619 75 q 713 1 675 18 q 796 -15 751 -15 q 878 1 839 -15 q 945 47 917 18 q 990 113 974 75 q 1007 194 1007 151 q 990 278 1007 239 q 945 345 974 317 q 878 390 917 374 q 796 407 839 407 q 713 390 751 407 q 647 345 675 374 q 603 278 619 317 q 586 194 586 239 "},".":{"ha":279,"x_min":72,"x_max":204,"o":"m 72 60 q 91 13 72 32 q 138 -6 110 -6 q 185 13 165 -6 q 204 60 204 32 q 185 107 204 88 q 138 126 165 126 q 91 107 110 126 q 72 60 72 88 "},"·":{"ha":228,"x_min":57,"x_max":189,"o":"m 57 267 q 76 220 57 239 q 122 201 94 201 q 169 220 150 201 q 189 267 189 239 q 169 314 189 294 q 122 333 150 333 q 76 314 94 333 q 57 267 57 294 "},"‰":{"ha":1601,"x_min":50,"x_max":1532,"o":"m 321 -35 l 803 910 l 731 910 l 253 -35 l 321 -35 m 682 199 q 710 323 682 278 q 786 368 739 368 q 877 321 840 368 q 914 196 914 274 q 886 78 914 125 q 810 32 858 32 q 760 45 783 32 q 720 81 738 58 q 692 133 703 103 q 682 199 682 164 m 375 661 q 347 537 375 583 q 272 490 319 490 q 224 503 247 490 q 183 540 200 517 q 155 596 165 564 q 144 667 144 628 q 172 784 144 738 q 249 831 200 831 q 297 817 274 831 q 337 781 319 804 q 365 728 354 758 q 375 661 375 697 m 50 664 q 67 581 50 619 q 112 515 83 543 q 178 469 140 486 q 260 453 217 453 q 342 469 303 453 q 410 515 381 486 q 456 581 439 543 q 472 664 472 619 q 456 745 472 707 q 410 813 439 783 q 342 858 381 842 q 260 875 303 875 q 178 858 217 875 q 112 813 140 842 q 67 745 83 783 q 50 664 50 707 m 588 194 q 604 113 588 151 q 649 47 621 75 q 717 1 678 18 q 800 -15 756 -15 q 881 1 843 -15 q 949 47 919 18 q 994 113 978 75 q 1011 194 1011 151 q 994 278 1011 239 q 949 345 978 317 q 881 390 919 374 q 800 407 843 407 q 717 390 756 407 q 649 345 678 374 q 604 278 621 317 q 588 194 588 239 m 1204 199 q 1232 323 1204 278 q 1307 368 1260 368 q 1399 321 1363 368 q 1436 196 1436 274 q 1408 78 1436 125 q 1332 32 1381 32 q 1283 45 1306 32 q 1242 81 1260 58 q 1215 133 1225 103 q 1204 199 1204 164 m 1111 194 q 1128 113 1111 151 q 1172 47 1144 75 q 1238 1 1200 18 q 1321 -15 1276 -15 q 1403 1 1364 -15 q 1470 47 1442 18 q 1515 113 1499 75 q 1532 194 1532 151 q 1515 278 1532 239 q 1470 345 1499 317 q 1403 390 1442 374 q 1321 407 1364 407 q 1238 390 1276 407 q 1172 345 1200 374 q 1128 278 1144 317 q 1111 194 1111 239 "},"+":{"ha":649,"x_min":49,"x_max":590,"o":"m 354 489 l 354 726 l 286 726 l 286 489 l 49 489 l 49 422 l 286 422 l 286 186 l 354 186 l 354 422 l 590 422 l 590 489 l 354 489 "},"±":{"ha":649,"x_min":49,"x_max":593,"o":"m 49 128 l 593 128 l 593 194 l 49 194 l 49 128 m 354 576 l 354 813 l 286 813 l 286 576 l 49 576 l 49 508 l 286 508 l 286 274 l 354 274 l 354 508 l 593 508 l 593 576 l 354 576 "},"q":{"ha":714,"x_min":56,"x_max":642,"o":"m 461 -278 l 461 -292 l 642 -292 l 642 -278 q 622 -269 631 -278 q 608 -250 614 -261 q 600 -226 603 -239 q 597 -201 597 -212 l 597 604 l 515 517 q 440 570 488 547 q 343 593 392 593 q 223 567 276 593 q 133 499 169 542 q 76 403 96 457 q 56 293 56 349 q 73 182 56 236 q 126 85 90 128 q 217 16 163 42 q 346 -10 272 -10 q 444 10 408 -10 q 506 61 481 29 l 506 -201 q 503 -226 506 -212 q 494 -250 500 -239 q 481 -269 489 -261 q 461 -278 472 -278 m 354 38 q 266 64 304 39 q 201 127 228 89 q 160 214 174 165 q 146 311 146 263 q 158 396 146 354 q 195 471 171 438 q 255 524 219 504 q 336 544 290 544 q 397 533 367 544 q 451 501 428 522 q 490 448 475 479 q 506 376 506 417 l 506 188 q 493 128 506 156 q 459 81 481 101 q 410 49 438 61 q 354 38 383 38 "},"?":{"ha":568,"x_min":35,"x_max":532,"o":"m 532 692 q 515 778 532 736 q 465 851 499 819 q 378 903 431 883 q 253 922 325 922 q 166 916 215 922 q 81 900 117 910 q 68 899 75 899 l 35 899 l 35 753 l 49 753 q 104 849 51 822 q 256 875 157 875 q 389 826 340 875 q 438 700 438 776 q 401 620 438 651 q 318 561 364 589 q 267 527 293 544 q 221 488 242 510 q 188 440 200 467 q 175 376 175 413 q 175 357 175 368 q 178 338 175 346 l 199 182 l 211 182 q 228 307 211 247 q 273 406 246 367 q 334 467 300 444 q 401 508 368 489 q 451 538 428 522 q 493 574 475 553 q 522 622 511 594 q 532 692 532 650 m 274 42 q 255 89 274 69 q 208 108 236 108 q 160 89 179 108 q 140 42 140 69 q 160 -6 140 14 q 208 -26 179 -26 q 255 -6 236 -26 q 274 42 274 14 "},"¿":{"ha":568,"x_min":35,"x_max":532,"o":"m 35 217 q 51 131 35 172 q 102 57 68 89 q 189 6 136 25 q 314 -14 242 -14 q 401 -8 351 -14 q 486 8 450 -1 q 499 10 492 10 l 532 10 l 532 154 l 518 154 q 463 59 515 85 q 311 33 411 33 q 178 83 226 33 q 129 208 129 132 q 166 288 129 257 q 249 347 203 319 q 299 381 274 364 q 346 420 325 399 q 379 469 367 442 q 392 532 392 496 q 392 551 392 540 q 389 571 392 563 l 368 732 l 356 732 q 338 600 356 660 q 294 502 321 540 q 233 441 267 464 q 165 400 199 418 q 115 370 139 385 q 74 335 92 356 q 45 286 56 314 q 35 217 35 258 m 293 854 q 312 807 293 826 q 358 788 331 788 q 407 807 388 788 q 426 854 426 826 q 407 902 426 882 q 358 922 388 922 q 312 902 331 922 q 293 854 293 882 "},"\"":{"ha":360,"x_min":69,"x_max":286,"o":"m 69 922 l 69 583 l 139 583 l 139 922 l 69 922 m 217 922 l 217 583 l 286 583 l 286 922 l 217 922 "},"„":{"ha":375,"x_min":-6,"x_max":360,"o":"m 76 129 q 36 113 53 129 q 19 69 19 96 q 31 38 19 47 q 53 21 42 28 q 67 10 60 17 q 75 -7 75 4 q 73 -36 75 -22 q 63 -66 71 -50 q 38 -102 54 -82 q -6 -147 22 -122 l 3 -160 q 80 -112 50 -137 q 126 -60 110 -86 q 149 -8 143 -33 q 154 38 154 17 q 135 101 154 74 q 76 129 117 129 m 282 129 q 242 113 258 129 q 225 69 225 96 q 236 38 225 47 q 258 21 247 28 q 273 10 265 17 q 281 -7 281 4 q 278 -36 281 -22 q 268 -66 276 -50 q 244 -102 260 -82 q 200 -147 228 -122 l 208 -160 q 285 -112 256 -137 q 332 -60 315 -86 q 354 -8 349 -33 q 360 38 360 17 q 341 101 360 74 q 282 129 322 129 "},"“":{"ha":364,"x_min":-6,"x_max":338,"o":"m 256 635 q 296 652 279 635 q 313 694 313 669 q 302 726 313 718 q 279 742 292 733 q 264 753 271 749 q 257 769 257 758 q 259 799 257 785 q 269 829 261 813 q 294 865 278 846 q 338 911 310 885 l 329 924 q 251 874 281 900 q 206 823 222 849 q 185 772 190 797 q 179 726 179 747 q 197 663 179 690 q 256 635 215 635 m 72 635 q 113 652 97 635 q 129 694 129 669 q 117 727 129 718 q 94 743 106 736 q 80 753 86 747 q 74 769 74 758 q 76 799 74 785 q 86 829 78 813 q 110 865 94 846 q 154 911 126 885 l 146 924 q 68 874 97 900 q 22 822 39 849 q 0 772 6 796 q -6 726 -6 747 q 13 663 -6 690 q 72 635 32 635 "},"”":{"ha":364,"x_min":-6,"x_max":338,"o":"m 76 922 q 36 906 53 922 q 19 863 19 889 q 31 830 19 839 q 53 814 42 821 q 69 803 63 808 q 75 786 75 797 q 73 757 75 771 q 63 727 71 743 q 38 692 54 711 q -6 646 22 672 l 3 633 q 80 683 50 657 q 126 734 110 708 q 149 785 143 760 q 154 832 154 810 q 135 895 154 868 q 76 922 117 922 m 260 922 q 219 906 236 922 q 203 863 203 889 q 214 831 203 840 q 236 814 225 821 q 252 803 246 808 q 258 786 258 797 q 256 757 258 771 q 246 727 254 743 q 222 692 238 711 q 179 646 206 672 l 188 633 q 264 683 235 657 q 310 734 293 708 q 332 785 326 760 q 338 832 338 810 q 319 895 338 868 q 260 922 300 922 "},"‘":{"ha":176,"x_min":7,"x_max":167,"o":"m 85 633 q 126 651 110 633 q 143 693 143 668 q 131 726 143 717 q 108 742 119 735 q 92 752 99 747 q 86 768 86 757 q 88 797 86 783 q 99 828 90 811 q 123 864 107 844 q 167 910 139 883 l 158 922 q 81 873 110 899 q 35 821 51 847 q 13 770 18 794 q 7 725 7 746 q 26 661 7 689 q 85 633 44 633 "},"’":{"ha":176,"x_min":7,"x_max":167,"o":"m 89 921 q 49 904 65 921 q 32 861 32 888 q 43 828 32 838 q 65 813 54 819 q 81 801 75 807 q 88 785 88 796 q 85 756 88 769 q 75 726 83 742 q 51 690 67 710 q 7 644 35 671 l 15 632 q 94 680 64 654 q 140 732 124 706 q 161 783 156 758 q 167 831 167 808 q 148 894 167 867 q 89 921 129 921 "},"‚":{"ha":168,"x_min":-6,"x_max":153,"o":"m 75 129 q 35 113 51 129 q 18 69 18 96 q 26 40 18 49 q 45 25 35 31 q 65 13 56 19 q 74 -7 74 7 q 72 -36 74 -22 q 62 -66 69 -50 q 38 -102 54 -82 q -6 -147 22 -122 l 1 -160 q 80 -112 50 -137 q 126 -60 110 -86 q 147 -9 142 -35 q 153 38 153 17 q 134 101 153 74 q 75 129 115 129 "},"'":{"ha":210,"x_min":69,"x_max":139,"o":"m 69 922 l 69 583 l 139 583 l 139 922 l 69 922 "},"r":{"ha":468,"x_min":58,"x_max":443,"o":"m 401 482 l 443 567 q 393 585 424 576 q 343 593 363 593 q 294 585 315 593 q 256 566 274 578 q 225 540 239 554 q 199 510 211 525 l 199 593 l 58 551 l 58 540 q 94 515 82 535 q 107 476 107 496 l 107 89 q 104 65 107 78 q 95 41 101 53 q 81 22 89 29 q 63 14 72 14 l 63 0 l 243 0 l 243 14 q 224 22 232 14 q 210 41 217 29 q 201 65 204 53 q 199 89 199 78 l 199 450 q 226 474 210 461 q 258 499 242 488 q 292 517 275 510 q 325 524 310 524 q 367 517 349 524 q 401 482 385 510 "},"®":{"ha":1036,"x_min":57,"x_max":968,"o":"m 57 453 q 92 276 57 358 q 190 131 128 193 q 335 34 251 69 q 513 -1 418 -1 q 690 34 607 -1 q 835 131 774 69 q 933 276 897 193 q 968 453 968 358 q 933 632 968 549 q 835 777 897 715 q 690 874 774 839 q 513 910 607 910 q 335 874 418 910 q 190 777 251 839 q 92 632 128 715 q 57 453 57 549 m 114 453 q 146 610 114 536 q 232 739 178 683 q 358 826 286 794 q 513 858 431 858 q 667 826 594 858 q 793 739 739 794 q 879 610 847 683 q 911 453 911 536 q 879 298 911 371 q 793 170 847 225 q 667 83 739 115 q 513 51 594 51 q 358 83 431 51 q 232 170 286 115 q 146 298 178 225 q 114 453 114 371 m 635 271 l 519 449 q 594 467 560 453 q 652 501 628 481 q 690 547 676 522 q 704 600 704 572 q 691 649 704 625 q 651 691 678 672 q 580 721 624 710 q 476 732 536 732 l 285 732 l 285 719 q 302 713 294 719 q 315 695 310 706 q 324 673 321 685 q 326 651 326 661 l 326 263 q 324 240 326 253 q 315 217 321 228 q 302 198 310 206 q 285 190 294 190 l 285 178 l 446 178 l 446 190 q 428 198 436 190 q 415 217 421 206 q 407 240 410 228 q 404 263 404 253 l 404 447 l 436 447 q 453 417 436 446 q 493 354 471 389 l 551 263 q 617 199 583 219 q 700 178 650 178 l 729 178 l 729 190 q 676 217 701 190 q 635 271 651 244 m 404 489 l 404 690 l 479 690 q 592 660 553 690 q 632 593 632 629 q 625 556 632 574 q 601 522 618 538 q 552 498 583 507 q 472 489 521 489 l 404 489 "},"s":{"ha":571,"x_min":50,"x_max":514,"o":"m 514 158 q 494 227 514 199 q 444 276 475 256 q 375 312 414 297 q 297 339 336 326 q 237 360 265 349 q 185 383 208 371 q 149 413 163 396 q 136 453 136 429 q 144 486 136 469 q 167 516 151 503 q 208 538 183 529 q 268 547 233 547 q 374 524 322 547 q 450 454 425 500 l 461 454 l 461 551 q 433 555 446 551 q 408 565 421 558 q 359 584 389 575 q 275 593 329 593 q 171 580 214 593 q 101 545 128 567 q 62 494 74 524 q 50 433 50 465 q 68 369 50 396 q 115 323 86 342 q 181 290 144 304 q 254 265 218 276 q 315 244 285 256 q 369 219 346 233 q 408 185 393 204 q 424 139 424 165 q 409 94 424 113 q 373 63 394 75 q 325 44 351 50 q 274 39 299 39 q 205 52 239 39 q 142 85 171 65 q 94 127 114 104 q 69 169 74 150 l 56 169 l 56 64 q 89 56 74 64 q 122 38 104 49 q 186 5 149 21 q 283 -11 224 -11 q 374 2 332 -11 q 447 38 415 15 q 496 92 478 61 q 514 158 514 122 "},"š":{"ha":571,"x_min":50,"x_max":514,"o":"m 514 158 q 494 227 514 199 q 444 276 475 256 q 375 312 414 297 q 297 339 336 326 q 237 360 265 349 q 185 383 208 371 q 149 413 163 396 q 136 453 136 429 q 144 486 136 469 q 167 516 151 503 q 208 538 183 529 q 268 547 233 547 q 374 524 322 547 q 450 454 425 500 l 461 454 l 461 551 q 433 555 446 551 q 408 565 421 558 q 359 584 389 575 q 275 593 329 593 q 171 580 214 593 q 101 545 128 567 q 62 494 74 524 q 50 433 50 465 q 68 369 50 396 q 115 323 86 342 q 181 290 144 304 q 254 265 218 276 q 315 244 285 256 q 369 219 346 233 q 408 185 393 204 q 424 139 424 165 q 409 94 424 113 q 373 63 394 75 q 325 44 351 50 q 274 39 299 39 q 205 52 239 39 q 142 85 171 65 q 94 127 114 104 q 69 169 74 150 l 56 169 l 56 64 q 89 56 74 64 q 122 38 104 49 q 186 5 149 21 q 283 -11 224 -11 q 374 2 332 -11 q 447 38 415 15 q 496 92 478 61 q 514 158 514 122 m 118 840 l 114 835 l 286 690 l 454 835 l 451 840 l 286 761 l 118 840 "},"§":{"ha":524,"x_min":58,"x_max":476,"o":"m 453 118 q 424 205 453 167 q 364 271 396 243 q 443 331 410 292 q 476 435 476 369 q 460 505 476 472 q 419 566 444 538 q 361 619 393 594 q 297 668 329 644 q 247 706 272 686 q 203 744 222 725 q 172 785 183 764 q 160 826 160 806 q 191 898 160 867 q 271 929 222 929 q 323 920 296 929 q 372 897 350 911 q 410 862 394 882 q 428 819 425 842 l 442 819 l 442 931 q 385 947 415 931 q 335 967 363 958 q 275 975 307 975 q 197 960 232 975 q 138 920 163 946 q 99 860 113 894 q 85 788 85 826 q 93 744 85 765 q 115 703 101 722 q 144 665 128 683 q 176 633 160 647 q 94 572 131 611 q 58 468 58 532 q 74 403 58 433 q 113 348 89 374 q 168 299 138 322 q 229 254 199 276 q 281 215 254 235 q 328 172 307 194 q 364 127 350 150 q 378 79 378 104 q 347 7 378 39 q 267 -25 317 -25 q 213 -16 240 -25 q 161 8 185 -7 q 122 44 138 24 q 103 85 106 64 l 90 85 l 90 -28 q 136 -33 113 -28 q 175 -49 160 -39 q 217 -63 194 -57 q 263 -69 239 -69 q 340 -54 306 -69 q 400 -13 375 -39 q 439 47 425 13 q 453 118 453 81 m 146 504 q 169 567 146 540 q 218 607 193 593 q 281 565 250 586 q 335 518 311 543 q 375 465 360 493 q 390 401 390 436 q 367 341 390 367 q 318 301 343 315 q 251 349 282 326 q 196 396 219 372 q 159 446 172 419 q 146 504 146 472 "},";":{"ha":282,"x_min":39,"x_max":207,"o":"m 129 135 q 89 118 106 135 q 72 75 72 101 q 82 47 72 56 q 104 31 92 38 l 103 31 q 120 17 113 24 q 128 -1 128 11 q 125 -30 128 -17 q 113 -60 122 -43 q 85 -97 103 -76 q 39 -143 68 -117 l 53 -157 q 131 -106 101 -132 q 178 -54 161 -81 q 201 -3 194 -28 q 207 43 207 22 q 188 107 207 79 q 129 135 169 135 m 72 472 q 91 426 72 444 q 138 407 110 407 q 185 426 165 407 q 204 472 204 444 q 185 519 204 500 q 138 539 165 539 q 91 519 110 539 q 72 472 72 500 "},"/":{"ha":463,"x_min":7,"x_max":450,"o":"m 58 -85 l 450 978 l 399 992 l 7 -68 l 58 -85 "},"£":{"ha":646,"x_min":72,"x_max":568,"o":"m 568 101 l 557 111 q 474 58 511 58 q 429 67 450 58 q 389 89 408 76 q 342 112 365 101 q 296 122 319 122 q 263 117 281 122 q 231 107 246 113 q 297 247 268 156 q 326 465 326 339 l 326 536 l 483 536 l 483 583 l 326 583 l 326 715 q 351 834 326 794 q 408 874 376 874 q 459 851 432 874 q 501 781 486 828 l 515 781 l 515 882 q 488 894 507 882 q 450 914 472 904 q 396 924 428 924 q 282 864 328 924 q 236 696 236 804 l 236 583 l 129 583 l 129 536 l 236 536 l 236 454 q 210 226 236 314 q 154 92 185 139 q 72 11 118 36 l 79 -3 l 103 11 q 176 42 143 31 q 232 54 208 54 q 282 45 258 54 q 324 28 306 36 q 332 24 328 24 q 376 5 351 14 q 425 -4 400 -4 q 506 22 469 -4 q 568 101 542 49 "},"t":{"ha":396,"x_min":29,"x_max":354,"o":"m 199 536 l 354 536 l 354 583 l 199 583 l 199 831 l 60 786 l 60 772 q 101 751 94 771 q 107 707 107 731 l 107 583 l 29 583 l 29 536 l 107 536 l 107 221 q 109 142 107 181 q 124 71 111 103 q 164 19 136 39 q 242 0 192 0 q 302 11 282 0 q 333 32 322 22 q 354 40 342 40 l 354 142 l 342 142 q 309 75 335 103 q 254 47 283 47 q 224 58 235 47 q 207 88 213 68 q 200 136 201 107 q 199 201 199 165 l 199 536 "},"þ":{"ha":754,"x_min":64,"x_max":653,"o":"m 358 594 q 267 576 307 594 q 200 524 228 557 l 200 924 l 64 882 l 64 868 q 90 860 81 867 q 103 845 99 854 q 108 824 107 836 q 108 800 108 813 l 108 -200 q 106 -224 108 -211 q 97 -249 103 -237 q 82 -268 90 -260 q 64 -276 74 -276 l 64 -290 l 244 -290 l 244 -276 q 226 -268 233 -276 q 212 -249 218 -260 q 203 -224 206 -237 q 200 -200 200 -211 l 200 72 q 281 15 236 38 q 369 -8 326 -8 q 494 18 442 -8 q 583 88 547 44 q 635 185 618 131 q 653 294 653 239 q 635 406 653 351 q 580 501 617 460 q 488 569 543 543 q 358 594 433 594 m 371 39 q 310 51 340 39 q 255 87 279 64 q 215 141 231 110 q 200 210 200 172 l 200 392 q 213 455 200 426 q 248 504 226 483 q 298 536 269 525 q 356 547 326 547 q 442 523 404 547 q 507 460 481 499 q 547 374 533 422 q 561 275 561 325 q 550 190 561 231 q 515 115 539 149 q 456 61 492 82 q 371 39 419 40 "},"˜":{"ha":394,"x_min":39,"x_max":356,"o":"m 356 732 l 350 733 q 324 699 339 714 q 286 685 308 685 q 250 693 269 685 q 212 712 231 701 q 174 731 193 722 q 138 739 154 739 q 84 715 110 739 q 39 632 58 690 l 46 631 q 78 671 64 656 q 114 686 93 686 q 153 677 132 686 q 197 658 175 668 q 240 639 219 647 q 278 631 261 631 q 323 650 307 631 q 356 732 339 669 "},"™":{"ha":1022,"x_min":21,"x_max":956,"o":"m 931 557 l 931 847 q 938 883 931 863 q 956 903 944 903 l 956 917 l 856 917 l 710 622 l 560 917 l 469 917 l 469 903 q 492 883 489 901 q 496 847 496 864 l 496 557 q 494 542 496 551 q 489 522 492 532 q 481 506 486 513 q 469 499 475 499 l 469 485 l 568 485 l 568 499 q 556 506 561 499 q 548 522 551 513 q 542 542 544 532 q 540 557 540 551 l 540 774 l 693 475 l 853 793 l 853 557 q 851 540 853 550 q 845 522 849 531 q 836 506 842 513 q 825 499 831 499 l 825 485 l 956 485 l 956 499 q 945 506 950 499 q 938 522 940 513 q 933 542 935 532 q 931 557 931 551 m 400 804 l 414 804 l 414 917 l 21 917 l 21 804 l 35 804 q 54 848 38 826 q 99 869 71 869 l 176 869 l 176 557 q 174 540 176 550 q 169 521 172 531 q 161 504 167 511 q 150 497 156 497 l 150 483 l 282 483 l 282 497 q 270 505 275 497 q 262 522 265 513 q 256 540 258 531 q 254 557 254 550 l 254 869 l 336 869 q 381 848 364 869 q 400 804 399 826 "},"u":{"ha":728,"x_min":68,"x_max":656,"o":"m 613 90 l 613 599 l 472 554 l 472 542 q 500 535 490 542 q 515 519 510 529 q 520 498 519 510 q 521 474 521 486 l 521 178 q 510 139 521 163 q 480 93 500 115 q 431 55 460 71 q 367 39 403 39 q 254 89 300 39 q 208 244 208 139 l 208 599 l 68 554 l 68 542 q 96 535 86 542 q 110 519 106 529 q 116 498 115 510 q 117 474 117 486 l 117 275 q 124 180 117 231 q 156 86 131 129 q 228 15 181 43 q 356 -12 275 -12 q 460 17 419 -12 q 521 76 500 46 l 521 0 l 656 0 l 656 14 q 636 22 644 14 q 623 42 628 31 q 615 67 618 54 q 613 90 613 81 "},"ú":{"ha":728,"x_min":68,"x_max":656,"o":"m 613 90 l 613 599 l 472 554 l 472 542 q 500 535 490 542 q 515 519 510 529 q 520 498 519 510 q 521 474 521 486 l 521 178 q 510 139 521 163 q 480 93 500 115 q 431 55 460 71 q 367 39 403 39 q 254 89 300 39 q 208 244 208 139 l 208 599 l 68 554 l 68 542 q 96 535 86 542 q 110 519 106 529 q 116 498 115 510 q 117 474 117 486 l 117 275 q 124 180 117 231 q 156 86 131 129 q 228 15 181 43 q 356 -12 275 -12 q 460 17 419 -12 q 521 76 500 46 l 521 0 l 656 0 l 656 14 q 636 22 644 14 q 623 42 628 31 q 615 67 618 54 q 613 90 613 81 m 246 703 l 250 694 l 479 789 l 443 851 l 246 703 "},"û":{"ha":728,"x_min":68,"x_max":656,"o":"m 613 90 l 613 599 l 472 554 l 472 542 q 500 535 490 542 q 515 519 510 529 q 520 498 519 510 q 521 474 521 486 l 521 178 q 510 139 521 163 q 480 93 500 115 q 431 55 460 71 q 367 39 403 39 q 254 89 300 39 q 208 244 208 139 l 208 599 l 68 554 l 68 542 q 96 535 86 542 q 110 519 106 529 q 116 498 115 510 q 117 474 117 486 l 117 275 q 124 180 117 231 q 156 86 131 129 q 228 15 181 43 q 356 -12 275 -12 q 460 17 419 -12 q 521 76 500 46 l 521 0 l 656 0 l 656 14 q 636 22 644 14 q 623 42 628 31 q 615 67 618 54 q 613 90 613 81 m 531 671 l 532 678 l 363 821 l 193 678 l 196 671 l 363 753 l 531 671 "},"ü":{"ha":728,"x_min":68,"x_max":656,"o":"m 613 90 l 613 599 l 472 554 l 472 542 q 500 535 490 542 q 515 519 510 529 q 520 498 519 510 q 521 474 521 486 l 521 178 q 510 139 521 163 q 480 93 500 115 q 431 55 460 71 q 367 39 403 39 q 254 89 300 39 q 208 244 208 139 l 208 599 l 68 554 l 68 542 q 96 535 86 542 q 110 519 106 529 q 116 498 115 510 q 117 474 117 486 l 117 275 q 124 180 117 231 q 156 86 131 129 q 228 15 181 43 q 356 -12 275 -12 q 460 17 419 -12 q 521 76 500 46 l 521 0 l 656 0 l 656 14 q 636 22 644 14 q 623 42 628 31 q 615 67 618 54 q 613 90 613 81 m 488 735 q 475 767 488 754 q 446 779 463 779 q 413 767 426 779 q 400 735 400 754 q 413 703 400 715 q 446 690 426 690 q 475 703 463 690 q 488 735 488 715 m 328 735 q 315 767 328 754 q 283 779 303 779 q 251 767 264 779 q 239 735 239 754 q 251 703 239 715 q 283 690 264 690 q 315 703 303 690 q 328 735 328 715 "},"ù":{"ha":728,"x_min":68,"x_max":656,"o":"m 613 90 l 613 599 l 472 554 l 472 542 q 500 535 490 542 q 515 519 510 529 q 520 498 519 510 q 521 474 521 486 l 521 178 q 510 139 521 163 q 480 93 500 115 q 431 55 460 71 q 367 39 403 39 q 254 89 300 39 q 208 244 208 139 l 208 599 l 68 554 l 68 542 q 96 535 86 542 q 110 519 106 529 q 116 498 115 510 q 117 474 117 486 l 117 275 q 124 180 117 231 q 156 86 131 129 q 228 15 181 43 q 356 -12 275 -12 q 460 17 419 -12 q 521 76 500 46 l 521 0 l 656 0 l 656 14 q 636 22 644 14 q 623 42 628 31 q 615 67 618 54 q 613 90 613 81 m 476 667 l 479 675 l 282 824 l 246 761 l 476 667 "},"_":{"ha":589,"x_min":-3,"x_max":585,"o":"m -3 -256 l 585 -256 l 585 -211 l -3 -211 l -3 -256 "},"­":{"ha":406,"x_min":50,"x_max":364,"o":"m 50 275 l 364 275 l 364 342 l 50 342 l 50 275 "},"v":{"ha":647,"x_min":15,"x_max":624,"o":"m 624 583 l 488 583 l 488 569 q 508 562 496 569 q 519 542 519 554 q 514 521 519 535 l 342 146 l 182 506 q 171 538 171 531 q 184 561 171 553 q 206 569 197 569 l 206 583 l 15 583 l 15 569 q 54 547 39 569 q 79 501 69 524 l 317 -24 l 556 496 q 569 520 561 507 q 585 544 576 533 q 604 563 594 556 q 624 569 614 569 l 624 583 "},"w":{"ha":936,"x_min":17,"x_max":914,"o":"m 914 569 l 914 583 l 776 583 l 776 569 q 800 558 793 568 q 807 538 807 549 q 800 508 807 529 l 663 167 l 486 599 l 311 167 l 175 503 q 170 519 172 510 q 168 531 168 528 q 183 560 168 551 q 207 569 197 569 l 207 583 l 17 583 l 17 569 q 55 546 40 569 q 79 499 69 522 l 285 -10 l 463 428 l 642 -11 l 851 514 q 876 556 863 542 q 914 569 889 569 "},"x":{"ha":647,"x_min":15,"x_max":624,"o":"m 419 14 l 419 0 l 624 0 l 624 14 q 578 33 603 14 q 535 76 553 51 l 349 328 l 483 507 q 518 548 499 526 q 560 569 538 569 l 560 583 l 426 583 l 426 569 q 441 563 436 569 q 446 547 446 556 q 443 532 446 540 q 429 510 440 524 l 322 368 l 210 524 q 201 543 201 533 q 210 564 201 558 q 228 569 219 569 l 228 583 l 25 583 l 25 569 q 47 563 35 569 q 70 547 58 557 q 91 526 82 538 q 107 507 100 515 l 263 296 l 94 68 q 57 30 79 46 q 15 14 35 14 l 15 0 l 146 0 l 146 14 q 131 28 131 14 q 136 44 131 35 q 146 60 142 54 l 290 256 l 429 64 q 446 33 446 40 q 419 14 446 14 "},"y":{"ha":658,"x_min":22,"x_max":635,"o":"m 285 -199 l 571 508 q 597 551 581 532 q 635 569 613 569 l 635 583 l 500 583 l 500 569 q 519 561 510 569 q 528 539 528 553 q 524 521 528 531 l 360 119 l 189 513 q 183 535 183 522 q 192 560 183 550 q 206 569 200 569 l 206 583 l 22 583 l 22 569 q 66 548 50 569 q 89 510 82 526 l 313 4 l 244 -167 q 192 -215 225 -215 q 161 -204 174 -215 q 142 -179 149 -193 q 128 -142 135 -167 l 82 -254 q 90 -265 83 -258 q 109 -280 97 -272 q 137 -293 121 -287 q 174 -299 153 -299 q 235 -278 206 -299 q 285 -199 265 -257 "},"ý":{"ha":658,"x_min":22,"x_max":635,"o":"m 285 -199 l 571 508 q 597 551 581 532 q 635 569 613 569 l 635 583 l 500 583 l 500 569 q 519 561 510 569 q 528 539 528 553 q 524 521 528 531 l 360 119 l 189 513 q 183 535 183 522 q 192 560 183 550 q 206 569 200 569 l 206 583 l 22 583 l 22 569 q 66 548 50 569 q 89 510 82 526 l 313 4 l 244 -167 q 192 -215 225 -215 q 161 -204 174 -215 q 142 -179 149 -193 q 128 -142 135 -167 l 82 -254 q 90 -265 83 -258 q 109 -280 97 -272 q 137 -293 121 -287 q 174 -299 153 -299 q 235 -278 206 -299 q 285 -199 265 -257 m 238 710 l 242 701 l 471 796 l 435 858 l 238 710 "},"ÿ":{"ha":658,"x_min":22,"x_max":635,"o":"m 285 -199 l 571 508 q 597 551 581 532 q 635 569 613 569 l 635 583 l 500 583 l 500 569 q 519 561 510 569 q 528 539 528 553 q 524 521 528 531 l 360 119 l 189 513 q 183 535 183 522 q 192 560 183 550 q 206 569 200 569 l 206 583 l 22 583 l 22 569 q 66 548 50 569 q 89 510 82 526 l 313 4 l 244 -167 q 192 -215 225 -215 q 161 -204 174 -215 q 142 -179 149 -193 q 128 -142 135 -167 l 82 -254 q 90 -265 83 -258 q 109 -280 97 -272 q 137 -293 121 -287 q 174 -299 153 -299 q 235 -278 206 -299 q 285 -199 265 -257 m 482 764 q 469 796 482 783 q 440 808 457 808 q 408 796 421 808 q 394 764 394 783 q 408 732 394 744 q 440 719 421 719 q 469 732 457 719 q 482 764 482 744 m 322 764 q 310 796 322 783 q 278 808 297 808 q 246 796 258 808 q 233 764 233 783 q 246 732 233 744 q 278 719 258 719 q 310 732 297 719 q 322 764 322 744 "},"¥":{"ha":735,"x_min":15,"x_max":707,"o":"m 85 486 l 85 433 l 319 433 l 319 317 l 85 317 l 85 263 l 319 263 l 319 90 q 317 66 319 79 q 308 41 314 53 q 293 22 301 29 q 274 14 285 14 l 274 0 l 458 0 l 458 14 q 439 22 447 14 q 425 42 431 31 q 416 67 419 54 q 413 90 413 79 l 413 263 l 646 263 l 646 317 l 413 317 l 413 433 l 646 433 l 646 486 l 433 486 l 628 825 q 665 876 643 851 q 707 901 686 901 l 707 915 l 560 915 l 560 901 q 576 896 563 901 q 592 868 589 890 q 590 854 592 860 q 582 838 588 849 l 381 490 l 169 857 q 165 871 165 861 q 178 894 165 886 q 197 901 190 901 l 197 915 l 15 915 l 15 901 q 38 892 26 901 q 61 871 50 883 q 81 844 72 858 q 97 819 90 831 l 290 486 l 85 486 "},"z":{"ha":596,"x_min":18,"x_max":544,"o":"m 18 0 l 544 0 l 544 150 l 532 150 q 526 117 532 135 q 508 84 521 99 q 474 60 494 69 q 422 50 453 50 l 164 50 l 544 583 l 54 583 l 54 435 l 68 435 q 75 467 68 450 q 95 500 82 485 q 128 525 108 515 q 171 535 147 535 l 399 535 l 18 0 "},"ž":{"ha":596,"x_min":18,"x_max":544,"o":"m 18 0 l 544 0 l 544 150 l 532 150 q 526 117 532 135 q 508 84 521 99 q 474 60 494 69 q 422 50 453 50 l 164 50 l 544 583 l 54 583 l 54 435 l 68 435 q 75 467 68 450 q 95 500 82 485 q 128 525 108 515 q 171 535 147 535 l 399 535 l 18 0 m 131 843 l 126 838 l 299 693 l 467 838 l 464 843 l 299 764 l 131 843 "},"Ă":{"ha":819,"x_min":19,"x_max":799,"o":"m 593 14 l 593 0 l 799 0 l 799 14 l 792 14 q 747 40 764 14 q 719 94 729 67 l 408 933 l 90 86 q 62 35 79 57 q 26 14 44 14 l 19 14 l 19 0 l 174 0 l 174 14 l 167 14 q 146 24 156 14 q 136 53 136 35 q 140 74 136 63 l 261 406 l 504 406 l 629 68 q 633 44 633 56 q 600 14 633 14 l 593 14 m 275 453 l 382 743 l 489 453 l 275 453 m 567 1104 l 558 1104 q 549 1081 556 1096 q 525 1051 542 1067 q 481 1025 508 1036 q 411 1014 454 1014 q 342 1025 369 1014 q 297 1051 314 1036 q 273 1081 281 1067 q 264 1104 265 1096 l 256 1104 q 268 1053 256 1079 q 301 1007 281 1028 q 351 973 322 986 q 413 960 379 960 q 476 974 447 960 q 524 1009 504 988 q 556 1056 544 1031 q 567 1104 567 1082 "},"Ā":{"ha":819,"x_min":19,"x_max":799,"o":"m 593 14 l 593 0 l 799 0 l 799 14 l 792 14 q 747 40 764 14 q 719 94 729 67 l 408 933 l 90 86 q 62 35 79 57 q 26 14 44 14 l 19 14 l 19 0 l 174 0 l 174 14 l 167 14 q 146 24 156 14 q 136 53 136 35 q 140 74 136 63 l 261 406 l 504 406 l 629 68 q 633 44 633 56 q 600 14 633 14 l 593 14 m 275 453 l 382 743 l 489 453 l 275 453 m 272 1046 l 272 990 l 550 990 l 550 1046 l 272 1046 "},"Ą":{"ha":819,"x_min":19,"x_max":799,"o":"m 699 0 l 799 0 l 799 14 l 792 14 q 750 41 769 14 q 719 94 731 68 l 408 933 l 90 86 q 62 36 79 58 q 26 14 44 14 l 19 14 l 19 0 l 174 0 l 174 14 l 167 14 q 146 24 156 14 q 136 53 136 35 q 140 74 136 63 l 261 406 l 504 406 l 629 68 q 633 44 633 56 q 600 14 633 14 l 593 14 l 593 0 l 653 0 q 597 -51 621 -21 q 572 -115 572 -82 q 601 -170 572 -147 q 692 -193 629 -193 q 747 -187 721 -193 q 792 -171 774 -182 l 789 -164 q 732 -174 765 -174 q 659 -153 679 -174 q 639 -106 639 -132 q 657 -49 639 -78 q 699 0 675 -21 m 275 453 l 382 743 l 489 453 l 275 453 "},"Ć":{"ha":865,"x_min":54,"x_max":808,"o":"m 551 881 q 617 874 583 881 q 681 853 651 868 q 733 809 711 838 q 764 738 756 781 l 778 738 l 778 892 q 744 895 761 892 q 706 906 726 899 q 640 922 676 914 q 557 931 603 931 q 335 889 429 931 q 178 780 240 847 q 85 628 115 713 q 54 457 54 543 q 85 287 54 371 q 176 136 115 203 q 329 28 238 69 q 542 -14 421 -14 q 634 -6 590 -14 q 714 13 678 3 q 765 25 742 19 q 808 31 788 31 l 808 185 l 794 185 q 751 108 779 138 q 689 63 722 79 q 622 42 656 47 q 563 36 588 36 q 400 73 475 36 q 269 170 325 110 q 181 309 213 231 q 149 469 149 388 q 173 615 149 542 q 247 748 197 689 q 373 844 297 807 q 551 881 449 881 m 315 956 l 319 947 l 549 1042 l 513 1104 l 315 956 "},"Č":{"ha":861,"x_min":50,"x_max":804,"o":"m 547 881 q 613 874 579 881 q 677 853 647 868 q 729 809 707 838 q 760 738 751 781 l 774 738 l 774 892 q 740 895 757 892 q 701 906 722 899 q 635 922 672 914 q 553 931 599 931 q 331 889 425 931 q 174 780 236 847 q 81 628 111 713 q 50 457 50 543 q 81 287 50 371 q 172 136 111 203 q 325 28 233 69 q 538 -14 417 -14 q 630 -6 586 -14 q 710 13 674 3 q 760 25 738 19 q 804 31 783 31 l 804 185 l 790 185 q 747 108 775 138 q 685 63 718 79 q 617 42 651 47 q 558 36 583 36 q 396 73 471 36 q 265 170 321 110 q 176 309 208 231 q 144 469 144 388 q 169 615 144 542 q 243 748 193 689 q 369 844 293 807 q 547 881 444 881 m 357 1097 l 353 1092 l 525 947 l 693 1092 l 690 1097 l 525 1018 l 357 1097 "},"Ĉ":{"ha":865,"x_min":54,"x_max":808,"o":"m 551 881 q 617 874 583 881 q 681 853 651 868 q 733 809 711 838 q 764 738 756 781 l 778 738 l 778 892 q 744 895 761 892 q 706 906 726 899 q 640 922 676 914 q 557 931 603 931 q 335 889 429 931 q 178 780 240 847 q 85 628 115 713 q 54 457 54 543 q 85 287 54 371 q 176 136 115 203 q 329 28 238 69 q 542 -14 421 -14 q 634 -6 590 -14 q 714 13 678 3 q 765 25 742 19 q 808 31 788 31 l 808 185 l 794 185 q 751 108 779 138 q 689 63 722 79 q 622 42 656 47 q 563 36 588 36 q 400 73 475 36 q 269 170 325 110 q 181 309 213 231 q 149 469 149 388 q 173 615 149 542 q 247 748 197 689 q 373 844 297 807 q 551 881 449 881 m 694 951 l 696 958 l 526 1101 l 357 958 l 360 951 l 526 1033 l 694 951 "},"Ċ":{"ha":865,"x_min":54,"x_max":808,"o":"m 551 881 q 617 874 583 881 q 681 853 651 868 q 733 809 711 838 q 764 738 756 781 l 778 738 l 778 892 q 744 895 761 892 q 706 906 726 899 q 640 922 676 914 q 557 931 603 931 q 335 889 429 931 q 178 780 240 847 q 85 628 115 713 q 54 457 54 543 q 85 287 54 371 q 176 136 115 203 q 329 28 238 69 q 542 -14 421 -14 q 634 -6 590 -14 q 714 13 678 3 q 765 25 742 19 q 808 31 788 31 l 808 185 l 794 185 q 751 108 779 138 q 689 63 722 79 q 622 42 656 47 q 563 36 588 36 q 400 73 475 36 q 269 170 325 110 q 181 309 213 231 q 149 469 149 388 q 173 615 149 542 q 247 748 197 689 q 373 844 297 807 q 551 881 449 881 m 476 1029 q 491 991 476 1006 q 529 976 506 976 q 568 991 553 976 q 583 1029 583 1006 q 568 1067 583 1053 q 529 1082 553 1082 q 491 1067 506 1082 q 476 1029 476 1053 "},"Ď":{"ha":856,"x_min":61,"x_max":799,"o":"m 61 14 l 61 0 l 311 0 q 524 40 432 0 q 676 143 615 79 q 768 288 738 207 q 799 454 799 369 q 767 628 799 544 q 674 776 735 711 q 526 878 614 840 q 329 917 439 917 l 61 917 l 61 903 l 68 903 q 88 895 79 903 q 101 876 96 888 q 110 853 107 865 q 113 831 113 840 l 113 90 q 110 66 113 79 q 101 42 107 53 q 86 22 94 31 q 68 14 78 14 l 61 14 m 704 433 q 666 263 704 335 q 567 142 628 190 q 430 72 506 94 q 279 49 354 49 l 206 49 l 206 868 l 276 868 q 447 833 368 868 q 583 740 525 799 q 672 601 640 681 q 704 433 704 522 m 100 1097 l 96 1092 l 268 947 l 436 1092 l 433 1097 l 268 1018 l 100 1097 "},"Đ":{"ha":856,"x_min":43,"x_max":799,"o":"m 63 917 l 63 903 l 69 903 q 88 895 79 903 q 102 876 96 888 q 111 853 108 865 q 114 831 114 840 l 114 488 l 43 488 l 43 432 l 114 432 l 114 90 q 111 66 114 79 q 102 42 108 53 q 88 22 96 31 q 69 14 79 14 l 63 14 l 63 0 l 311 0 q 524 40 432 0 q 676 143 615 79 q 768 288 738 207 q 799 454 799 369 q 767 628 799 544 q 674 776 735 711 q 526 878 614 840 q 329 917 439 917 l 63 917 m 704 433 q 666 263 704 335 q 567 142 628 190 q 430 72 506 94 q 279 49 354 49 l 206 49 l 206 432 l 449 432 l 449 488 l 206 488 l 206 868 l 276 868 q 447 833 368 868 q 583 740 525 799 q 672 601 640 681 q 704 433 704 522 "},"∆":{"ha":951,"x_min":18,"x_max":929,"o":"m 474 953 l 18 0 l 929 0 l 474 953 m 457 788 l 793 58 l 115 58 l 457 788 "},"Ĕ":{"ha":674,"x_min":63,"x_max":632,"o":"m 63 14 l 63 0 l 632 0 l 632 163 l 618 163 q 612 128 618 149 q 592 91 606 108 q 560 61 579 74 q 514 49 540 49 l 210 49 l 210 469 l 440 469 q 494 451 474 469 q 515 408 515 433 l 529 408 l 529 582 l 515 582 q 494 536 515 556 q 440 517 472 517 l 210 517 l 210 868 l 489 868 q 558 844 536 868 q 583 788 581 819 l 597 788 l 597 917 l 63 917 l 63 903 l 69 903 q 89 895 81 903 q 103 876 97 888 q 113 853 110 865 q 117 831 117 840 l 117 88 q 113 64 117 76 q 103 40 110 51 q 89 22 97 29 q 69 14 81 14 l 63 14 m 492 1104 l 483 1104 q 474 1081 481 1096 q 450 1051 467 1067 q 406 1025 433 1036 q 336 1014 379 1014 q 267 1025 294 1014 q 222 1051 239 1036 q 198 1081 206 1067 q 189 1104 190 1096 l 181 1104 q 193 1053 181 1079 q 226 1007 206 1028 q 276 973 247 986 q 338 960 304 960 q 401 974 372 960 q 449 1009 429 988 q 481 1056 469 1031 q 492 1104 492 1082 "},"Ě":{"ha":674,"x_min":63,"x_max":632,"o":"m 63 14 l 63 0 l 632 0 l 632 163 l 618 163 q 612 128 618 149 q 592 91 606 108 q 560 61 579 74 q 514 49 540 49 l 210 49 l 210 469 l 440 469 q 494 451 474 469 q 515 408 515 433 l 529 408 l 529 582 l 515 582 q 494 536 515 556 q 440 517 472 517 l 210 517 l 210 868 l 489 868 q 558 844 536 868 q 583 788 581 819 l 597 788 l 597 917 l 63 917 l 63 903 l 69 903 q 89 895 81 903 q 103 876 97 888 q 113 853 110 865 q 117 831 117 840 l 117 88 q 113 64 117 76 q 103 40 110 51 q 89 22 97 29 q 69 14 81 14 l 63 14 m 169 1097 l 165 1092 l 338 947 l 506 1092 l 503 1097 l 338 1018 l 169 1097 "},"Ė":{"ha":674,"x_min":63,"x_max":632,"o":"m 63 14 l 63 0 l 632 0 l 632 163 l 618 163 q 612 128 618 149 q 592 91 606 108 q 560 61 579 74 q 514 49 540 49 l 210 49 l 210 469 l 440 469 q 494 451 474 469 q 515 408 515 433 l 529 408 l 529 582 l 515 582 q 494 536 515 556 q 440 517 472 517 l 210 517 l 210 868 l 489 868 q 558 844 536 868 q 583 788 581 819 l 597 788 l 597 917 l 63 917 l 63 903 l 69 903 q 89 895 81 903 q 103 876 97 888 q 113 853 110 865 q 117 831 117 840 l 117 88 q 113 64 117 76 q 103 40 110 51 q 89 22 97 29 q 69 14 81 14 l 63 14 m 283 1029 q 298 991 283 1006 q 336 976 313 976 q 375 991 360 976 q 390 1029 390 1006 q 375 1067 390 1053 q 336 1082 360 1082 q 298 1067 313 1082 q 283 1029 283 1053 "},"Ē":{"ha":674,"x_min":63,"x_max":632,"o":"m 63 14 l 63 0 l 632 0 l 632 163 l 618 163 q 612 128 618 149 q 592 91 606 108 q 560 61 579 74 q 514 49 540 49 l 210 49 l 210 469 l 440 469 q 494 451 474 469 q 515 408 515 433 l 529 408 l 529 582 l 515 582 q 494 536 515 556 q 440 517 472 517 l 210 517 l 210 868 l 489 868 q 558 844 536 868 q 583 788 581 819 l 597 788 l 597 917 l 63 917 l 63 903 l 69 903 q 89 895 81 903 q 103 876 97 888 q 113 853 110 865 q 117 831 117 840 l 117 88 q 113 64 117 76 q 103 40 110 51 q 89 22 97 29 q 69 14 81 14 l 63 14 m 197 1046 l 197 990 l 475 990 l 475 1046 l 197 1046 "},"Ŋ":{"ha":872,"x_min":63,"x_max":803,"o":"m 208 14 q 189 22 197 14 q 174 42 181 31 q 165 66 168 53 q 163 90 163 79 l 163 797 l 665 0 q 638 -138 665 -78 q 578 -243 610 -199 q 490 -333 539 -294 l 497 -343 q 624 -261 568 -310 q 670 -214 647 -240 q 710 -155 693 -187 q 739 -83 728 -122 q 750 1 750 -44 l 750 831 q 753 853 750 840 q 762 876 756 865 q 776 895 768 888 q 796 903 785 903 l 803 903 l 803 917 l 649 917 l 649 903 l 656 903 q 675 895 667 903 q 690 876 683 888 q 699 853 696 865 q 703 831 703 840 l 703 122 l 199 917 l 63 917 l 63 903 l 69 903 q 94 895 85 903 q 108 876 103 888 q 114 853 113 865 q 115 831 115 840 l 115 90 q 112 66 115 79 q 103 42 108 53 q 88 22 97 31 q 69 14 79 14 l 63 14 l 63 0 l 215 0 l 215 14 l 208 14 "},"Ę":{"ha":674,"x_min":63,"x_max":632,"o":"m 63 14 l 63 0 l 493 0 q 437 -51 461 -21 q 413 -115 413 -82 q 441 -170 413 -147 q 532 -193 469 -193 q 588 -187 561 -193 q 632 -171 614 -182 l 629 -164 q 572 -174 606 -174 q 499 -153 519 -174 q 479 -106 479 -132 q 497 -49 479 -78 q 539 0 515 -21 l 632 0 l 632 172 l 618 172 q 612 133 618 154 q 592 92 606 111 q 560 61 579 74 q 514 49 540 49 l 210 49 l 210 469 l 440 469 q 494 451 474 469 q 515 408 515 433 l 529 408 l 529 582 l 515 582 q 494 536 515 556 q 440 517 472 517 l 210 517 l 210 868 l 494 868 q 562 844 540 868 q 583 788 583 819 l 597 788 l 597 917 l 63 917 l 63 903 l 69 903 q 88 895 79 903 q 103 876 97 888 q 113 853 110 865 q 117 831 117 840 l 117 88 q 113 64 117 76 q 103 40 110 51 q 88 22 97 29 q 69 14 79 14 l 63 14 "},"Ğ":{"ha":913,"x_min":51,"x_max":858,"o":"m 660 483 l 660 469 l 667 469 q 686 462 678 469 q 701 443 694 454 q 710 419 707 432 q 713 397 713 407 l 713 71 q 635 42 674 49 q 569 36 596 36 q 395 74 474 36 q 261 174 317 113 q 175 315 206 236 q 144 474 144 393 q 168 619 144 546 q 240 750 192 692 q 365 845 289 808 q 546 882 442 882 q 612 877 576 882 q 679 858 647 872 q 735 818 711 844 q 768 749 760 792 l 782 749 l 782 896 l 769 896 q 747 899 760 896 q 715 907 733 903 q 642 922 683 914 q 551 931 600 931 q 328 890 422 931 q 173 782 235 849 q 81 631 111 715 q 51 460 51 546 q 81 289 51 374 q 172 137 111 204 q 326 28 233 69 q 544 -14 419 -14 q 611 -11 575 -14 q 682 -3 647 -8 q 749 8 717 1 q 806 25 781 15 l 806 397 q 809 419 806 407 q 818 443 813 432 q 832 462 824 454 q 851 469 840 469 l 858 469 l 858 483 l 660 483 m 678 1104 l 669 1104 q 660 1081 667 1096 q 636 1051 653 1067 q 592 1025 619 1036 q 522 1014 565 1014 q 453 1025 481 1014 q 408 1051 425 1036 q 384 1081 392 1067 q 375 1104 376 1096 l 367 1104 q 379 1053 367 1079 q 413 1007 392 1028 q 462 973 433 986 q 524 960 490 960 q 587 974 558 960 q 635 1009 615 988 q 667 1056 656 1031 q 678 1104 678 1082 "},"Ĝ":{"ha":913,"x_min":51,"x_max":858,"o":"m 660 483 l 660 469 l 667 469 q 686 462 678 469 q 701 443 694 454 q 710 419 707 432 q 713 397 713 407 l 713 71 q 635 42 674 49 q 569 36 596 36 q 395 74 474 36 q 261 174 317 113 q 175 315 206 236 q 144 474 144 393 q 168 619 144 546 q 240 750 192 692 q 365 845 289 808 q 546 882 442 882 q 612 877 576 882 q 679 858 647 872 q 735 818 711 844 q 768 749 760 792 l 782 749 l 782 896 l 769 896 q 747 899 760 896 q 715 907 733 903 q 642 922 683 914 q 551 931 600 931 q 328 890 422 931 q 173 782 235 849 q 81 631 111 715 q 51 460 51 546 q 81 289 51 374 q 172 137 111 204 q 326 28 233 69 q 544 -14 419 -14 q 611 -11 575 -14 q 682 -3 647 -8 q 749 8 717 1 q 806 25 781 15 l 806 397 q 809 419 806 407 q 818 443 813 432 q 832 462 824 454 q 851 469 840 469 l 858 469 l 858 483 l 660 483 m 713 951 l 714 958 l 544 1101 l 375 958 l 378 951 l 544 1033 l 713 951 "},"Ġ":{"ha":913,"x_min":51,"x_max":858,"o":"m 660 483 l 660 469 l 667 469 q 686 462 678 469 q 701 443 694 454 q 710 419 707 432 q 713 397 713 407 l 713 71 q 635 42 674 49 q 569 36 596 36 q 395 74 474 36 q 261 174 317 113 q 175 315 206 236 q 144 474 144 393 q 168 619 144 546 q 240 750 192 692 q 365 845 289 808 q 546 882 442 882 q 612 877 576 882 q 679 858 647 872 q 735 818 711 844 q 768 749 760 792 l 782 749 l 782 896 l 769 896 q 747 899 760 896 q 715 907 733 903 q 642 922 683 914 q 551 931 600 931 q 328 890 422 931 q 173 782 235 849 q 81 631 111 715 q 51 460 51 546 q 81 289 51 374 q 172 137 111 204 q 326 28 233 69 q 544 -14 419 -14 q 611 -11 575 -14 q 682 -3 647 -8 q 749 8 717 1 q 806 25 781 15 l 806 397 q 809 419 806 407 q 818 443 813 432 q 832 462 824 454 q 851 469 840 469 l 858 469 l 858 483 l 660 483 m 488 1029 q 502 991 488 1006 q 540 976 517 976 q 579 991 564 976 q 594 1029 594 1006 q 579 1067 594 1053 q 540 1082 564 1082 q 502 1067 517 1082 q 488 1029 488 1053 "},"Ħ":{"ha":864,"x_min":39,"x_max":813,"o":"m 63 917 l 63 903 l 69 903 q 89 895 81 903 q 103 876 97 888 q 111 853 108 865 q 114 831 114 840 l 114 706 l 39 706 l 39 661 l 114 661 l 114 90 q 111 66 114 79 q 102 41 108 53 q 88 22 96 29 q 69 14 79 14 l 63 14 l 63 0 l 257 0 l 257 14 l 250 14 q 232 22 240 14 q 218 42 224 31 q 210 66 213 53 q 207 90 207 79 l 207 469 l 651 469 l 651 90 q 649 66 651 79 q 640 41 646 53 q 626 22 635 29 q 608 14 618 14 l 601 14 l 601 0 l 796 0 l 796 14 l 789 14 q 772 22 779 14 q 758 42 764 31 q 748 66 751 53 q 744 90 744 79 l 744 661 l 813 661 l 813 706 l 744 706 l 744 831 q 747 853 744 840 q 756 876 750 865 q 769 895 761 888 q 789 903 778 903 l 796 903 l 796 917 l 601 917 l 601 903 l 608 903 q 626 895 618 903 q 640 876 635 888 q 649 853 646 865 q 651 831 651 840 l 651 706 l 207 706 l 207 831 q 210 853 207 840 q 217 876 213 865 q 231 895 222 888 q 250 903 239 903 l 257 903 l 257 917 l 63 917 m 651 517 l 207 517 l 207 661 l 651 661 l 651 517 "},"Ĥ":{"ha":864,"x_min":72,"x_max":804,"o":"m 610 14 l 610 0 l 804 0 l 804 14 l 797 14 q 780 22 788 14 q 767 42 772 31 q 758 66 761 53 q 754 90 754 79 l 754 831 q 757 853 754 840 q 765 876 760 865 q 778 895 769 888 q 797 903 786 903 l 804 903 l 804 917 l 610 917 l 610 903 l 617 903 q 636 895 628 903 q 650 876 644 888 q 658 853 656 865 q 661 831 661 840 l 661 517 l 217 517 l 217 831 q 219 853 217 840 q 227 876 222 865 q 240 895 232 888 q 260 903 249 903 l 267 903 l 267 917 l 72 917 l 72 903 l 79 903 q 99 895 90 903 q 113 876 107 888 q 121 853 118 865 q 124 831 124 840 l 124 90 q 121 66 124 79 q 112 41 118 53 q 97 22 106 29 q 79 14 89 14 l 72 14 l 72 0 l 267 0 l 267 14 l 260 14 q 241 22 249 14 q 228 42 233 31 q 219 66 222 53 q 217 90 217 79 l 217 468 l 661 468 l 661 90 q 658 66 661 79 q 649 41 656 53 q 635 22 643 29 q 617 14 626 14 l 610 14 m 599 951 l 600 958 l 431 1101 l 261 958 l 264 951 l 431 1033 l 599 951 "},"Ĭ":{"ha":338,"x_min":13,"x_max":324,"o":"m 68 917 l 68 903 l 75 903 q 94 895 86 903 q 109 876 103 888 q 118 853 115 865 q 121 831 121 840 l 121 90 q 118 66 121 79 q 109 41 115 53 q 94 22 103 29 q 75 14 86 14 l 68 14 l 68 0 l 267 0 l 267 14 l 260 14 q 241 22 249 14 q 227 42 233 31 q 218 66 221 53 q 215 90 215 79 l 215 831 q 219 853 215 840 q 228 877 222 867 q 242 895 233 888 q 260 903 250 903 l 267 903 l 267 917 l 68 917 m 324 1104 l 315 1104 q 306 1081 313 1096 q 282 1051 299 1067 q 238 1025 265 1036 q 168 1014 211 1014 q 99 1025 126 1014 q 54 1051 71 1036 q 30 1081 38 1067 q 21 1104 22 1096 l 13 1104 q 25 1053 13 1079 q 58 1007 38 1028 q 108 973 79 986 q 169 960 136 960 q 233 974 204 960 q 281 1009 261 988 q 313 1056 301 1031 q 324 1104 324 1082 "},"İ":{"ha":338,"x_min":68,"x_max":267,"o":"m 68 917 l 68 903 l 75 903 q 94 895 86 903 q 109 876 103 888 q 118 853 115 865 q 121 831 121 840 l 121 90 q 118 66 121 79 q 109 41 115 53 q 94 22 103 29 q 75 14 86 14 l 68 14 l 68 0 l 267 0 l 267 14 l 260 14 q 241 22 249 14 q 227 42 233 31 q 218 66 221 53 q 215 90 215 79 l 215 831 q 219 853 215 840 q 228 877 222 867 q 242 895 233 888 q 260 903 250 903 l 267 903 l 267 917 l 68 917 m 115 1029 q 130 991 115 1006 q 168 976 144 976 q 207 991 192 976 q 222 1029 222 1006 q 207 1067 222 1053 q 168 1082 192 1082 q 130 1067 144 1082 q 115 1029 115 1053 "},"Ī":{"ha":338,"x_min":29,"x_max":307,"o":"m 68 917 l 68 903 l 75 903 q 94 895 86 903 q 109 876 103 888 q 118 853 115 865 q 121 831 121 840 l 121 90 q 118 66 121 79 q 109 41 115 53 q 94 22 103 29 q 75 14 86 14 l 68 14 l 68 0 l 267 0 l 267 14 l 260 14 q 241 22 249 14 q 227 42 233 31 q 218 66 221 53 q 215 90 215 79 l 215 831 q 219 853 215 840 q 228 877 222 867 q 242 895 233 888 q 260 903 250 903 l 267 903 l 267 917 l 68 917 m 29 1046 l 29 990 l 307 990 l 307 1046 l 29 1046 "},"Į":{"ha":338,"x_min":60,"x_max":279,"o":"m 68 14 l 68 0 l 140 0 q 84 -51 108 -21 q 60 -115 60 -82 q 88 -170 60 -147 q 179 -193 117 -193 q 235 -187 208 -193 q 279 -171 261 -182 l 276 -164 q 219 -174 251 -174 q 147 -153 167 -174 q 126 -106 126 -132 q 144 -49 126 -78 q 186 0 163 -21 l 267 0 l 267 14 l 260 14 q 241 22 249 14 q 227 42 233 31 q 218 66 221 53 q 215 90 215 79 l 215 831 q 219 853 215 840 q 228 877 222 867 q 242 895 233 888 q 260 903 250 903 l 267 903 l 267 917 l 68 917 l 68 903 l 75 903 q 94 895 86 903 q 109 876 103 888 q 118 853 115 865 q 121 831 121 840 l 121 90 q 118 66 121 79 q 109 41 115 53 q 94 22 103 29 q 75 14 86 14 l 68 14 "},"Ĩ":{"ha":338,"x_min":10,"x_max":326,"o":"m 68 917 l 68 903 l 75 903 q 94 895 86 903 q 109 876 103 888 q 118 853 115 865 q 121 831 121 840 l 121 90 q 118 66 121 79 q 109 41 115 53 q 94 22 103 29 q 75 14 86 14 l 68 14 l 68 0 l 267 0 l 267 14 l 260 14 q 241 22 249 14 q 227 42 233 31 q 218 66 221 53 q 215 90 215 79 l 215 831 q 219 853 215 840 q 228 877 222 867 q 242 895 233 888 q 260 903 250 903 l 267 903 l 267 917 l 68 917 m 326 1065 l 321 1067 q 294 1033 310 1047 q 257 1018 279 1018 q 221 1026 240 1018 q 183 1045 201 1035 q 144 1064 164 1056 q 108 1072 125 1072 q 55 1048 81 1072 q 10 965 29 1024 l 17 964 q 49 1004 35 989 q 85 1019 64 1019 q 124 1010 103 1019 q 168 991 146 1001 q 211 972 190 981 q 249 964 232 964 q 294 983 278 964 q 326 1065 310 1003 "},"Ĵ":{"ha":375,"x_min":-18,"x_max":369,"o":"m 104 917 l 104 903 l 111 903 q 129 895 121 903 q 144 876 138 888 q 153 851 150 864 q 156 829 156 839 l 156 35 q 128 -100 156 -42 q 68 -199 100 -158 q -18 -281 31 -246 l -11 -292 q 119 -206 63 -257 q 167 -156 144 -183 q 209 -97 190 -129 q 239 -26 228 -64 q 250 56 250 11 l 250 829 q 253 851 250 839 q 263 876 257 864 q 278 895 269 888 q 297 903 286 903 l 304 903 l 304 917 l 104 917 m 368 951 l 369 958 l 200 1101 l 31 958 l 33 951 l 200 1033 l 368 951 "},"Ĺ":{"ha":646,"x_min":47,"x_max":632,"o":"m 63 14 l 63 0 l 632 0 l 632 175 l 618 175 q 612 135 618 157 q 592 95 606 114 q 560 64 579 76 q 514 51 540 51 l 210 51 l 210 831 q 213 853 210 840 q 222 876 217 865 q 236 895 228 888 q 256 903 244 903 l 263 903 l 263 917 l 63 917 l 63 903 l 69 903 q 89 895 81 903 q 103 876 97 888 q 113 853 110 865 q 117 831 117 840 l 117 88 q 113 64 117 76 q 103 40 110 51 q 89 22 97 29 q 69 14 81 14 l 63 14 m 47 956 l 51 947 l 281 1042 l 244 1104 l 47 956 "},"Ľ":{"ha":646,"x_min":63,"x_max":632,"o":"m 63 14 l 63 0 l 632 0 l 632 175 l 618 175 q 612 135 618 157 q 592 95 606 114 q 560 64 579 76 q 514 51 540 51 l 210 51 l 210 831 q 213 853 210 840 q 222 876 217 865 q 236 895 228 888 q 256 903 244 903 l 263 903 l 263 917 l 63 917 l 63 903 l 69 903 q 89 895 81 903 q 103 876 97 888 q 113 853 110 865 q 117 831 117 840 l 117 88 q 113 64 117 76 q 103 40 110 51 q 89 22 97 29 q 69 14 81 14 l 63 14 m 325 915 q 285 899 301 915 q 268 856 268 882 q 279 823 268 832 q 301 807 290 814 q 317 796 311 801 q 324 779 324 790 q 322 750 324 764 q 311 720 319 736 q 287 685 303 704 q 243 639 271 665 l 251 626 q 330 674 300 649 q 376 726 360 700 q 397 778 392 753 q 403 825 403 803 q 384 888 403 861 q 325 915 365 915 "},"Ŀ":{"ha":646,"x_min":63,"x_max":632,"o":"m 63 14 l 63 0 l 632 0 l 632 175 l 618 175 q 612 135 618 157 q 592 95 606 114 q 560 64 579 76 q 514 51 540 51 l 210 51 l 210 831 q 213 853 210 840 q 222 876 217 865 q 236 895 228 888 q 256 903 244 903 l 263 903 l 263 917 l 63 917 l 63 903 l 69 903 q 89 895 81 903 q 103 876 97 888 q 113 853 110 865 q 117 831 117 840 l 117 88 q 113 64 117 76 q 103 40 110 51 q 89 22 97 29 q 69 14 81 14 l 63 14 m 257 267 q 276 220 257 239 q 322 201 294 201 q 369 220 350 201 q 389 267 389 239 q 369 314 389 294 q 322 333 350 333 q 276 314 294 333 q 257 267 257 294 "},"Ł":{"ha":646,"x_min":36,"x_max":632,"o":"m 63 917 l 63 903 l 69 903 q 89 895 81 903 q 103 876 97 888 q 113 853 110 865 q 117 831 117 840 l 117 286 l 36 229 l 68 188 q 92 206 81 196 q 117 224 104 215 l 117 88 q 113 64 117 76 q 103 40 110 51 q 89 22 97 29 q 69 14 81 14 l 63 14 l 63 0 l 632 0 l 632 175 l 618 175 q 612 135 618 157 q 592 95 606 114 q 560 64 579 76 q 514 51 540 51 l 210 51 l 210 289 l 365 401 l 335 443 q 272 398 306 421 q 210 353 239 375 l 210 831 q 213 853 210 840 q 222 876 217 865 q 236 895 228 888 q 256 903 244 903 l 263 903 l 263 917 l 63 917 "},"Ń":{"ha":872,"x_min":58,"x_max":804,"o":"m 208 14 q 189 22 197 14 q 174 42 181 31 q 165 66 168 53 q 163 90 163 79 l 163 797 l 665 0 l 751 0 l 751 831 q 754 853 751 840 q 763 876 757 865 q 778 895 769 888 q 797 903 786 903 l 804 903 l 804 917 l 649 917 l 649 903 l 656 903 q 675 895 667 903 q 690 876 683 888 q 699 853 696 865 q 703 831 703 840 l 703 122 l 199 917 l 58 917 l 58 903 l 65 903 q 89 895 79 903 q 104 876 99 888 q 112 853 110 865 q 114 831 114 840 l 114 90 q 110 66 114 79 q 101 42 107 53 q 87 22 96 31 q 68 14 78 14 l 61 14 l 61 0 l 215 0 l 215 14 l 208 14 m 318 956 l 322 947 l 551 1042 l 515 1104 l 318 956 "},"Ň":{"ha":872,"x_min":58,"x_max":804,"o":"m 208 14 q 189 22 197 14 q 174 42 181 31 q 165 66 168 53 q 163 90 163 79 l 163 797 l 665 0 l 751 0 l 751 831 q 754 853 751 840 q 763 876 757 865 q 778 895 769 888 q 797 903 786 903 l 804 903 l 804 917 l 649 917 l 649 903 l 656 903 q 675 895 667 903 q 690 876 683 888 q 699 853 696 865 q 703 831 703 840 l 703 122 l 199 917 l 58 917 l 58 903 l 65 903 q 89 895 79 903 q 104 876 99 888 q 112 853 110 865 q 114 831 114 840 l 114 90 q 110 66 114 79 q 101 42 107 53 q 87 22 96 31 q 68 14 78 14 l 61 14 l 61 0 l 215 0 l 215 14 l 208 14 m 268 1097 l 264 1092 l 436 947 l 604 1092 l 601 1097 l 436 1018 l 268 1097 "},"Ŏ":{"ha":1057,"x_min":51,"x_max":997,"o":"m 531 931 q 328 889 417 931 q 177 779 239 847 q 83 624 115 711 q 51 449 51 538 q 83 275 51 358 q 174 128 115 192 q 319 25 233 64 q 511 -14 404 -14 q 699 22 611 -14 q 854 119 788 57 q 959 269 921 182 q 997 461 997 357 q 965 640 997 554 q 872 790 932 725 q 725 892 811 854 q 531 931 639 931 m 529 35 q 376 74 446 35 q 254 175 306 113 q 174 315 203 238 q 144 468 144 392 q 169 613 144 539 q 242 746 194 686 q 358 844 290 806 q 513 882 426 882 q 673 842 601 882 q 796 740 744 803 q 875 599 847 676 q 903 444 903 521 q 880 304 903 375 q 810 174 857 233 q 692 77 763 115 q 529 35 622 39 m 683 1104 l 675 1104 q 665 1081 672 1096 q 642 1051 658 1067 q 598 1025 625 1036 q 528 1014 571 1014 q 458 1025 486 1014 q 414 1051 431 1036 q 390 1081 397 1067 q 381 1104 382 1096 l 372 1104 q 385 1053 372 1079 q 418 1007 397 1028 q 467 973 439 986 q 529 960 496 960 q 592 974 564 960 q 641 1009 621 988 q 672 1056 661 1031 q 683 1104 683 1082 "},"Ő":{"ha":1057,"x_min":51,"x_max":997,"o":"m 531 931 q 328 889 417 931 q 177 779 239 847 q 83 624 115 711 q 51 449 51 538 q 83 275 51 358 q 174 128 115 192 q 319 25 233 64 q 511 -14 404 -14 q 699 22 611 -14 q 854 119 788 57 q 959 269 921 182 q 997 461 997 357 q 965 640 997 554 q 872 790 932 725 q 725 892 811 854 q 531 931 639 931 m 529 35 q 376 74 446 35 q 254 175 306 113 q 174 315 203 238 q 144 468 144 392 q 169 613 144 539 q 242 746 194 686 q 358 844 290 806 q 513 882 426 882 q 673 842 601 882 q 796 740 744 803 q 875 599 847 676 q 903 444 903 521 q 880 304 903 375 q 810 174 857 233 q 692 77 763 115 q 529 35 622 39 m 358 964 l 374 953 l 544 1144 l 474 1189 l 358 964 m 486 965 l 501 951 l 697 1115 l 635 1169 l 486 965 "},"Ō":{"ha":1057,"x_min":51,"x_max":997,"o":"m 531 931 q 328 889 417 931 q 177 779 239 847 q 83 624 115 711 q 51 449 51 538 q 83 275 51 358 q 174 128 115 192 q 319 25 233 64 q 511 -14 404 -14 q 699 22 611 -14 q 854 119 788 57 q 959 269 921 182 q 997 461 997 357 q 965 640 997 554 q 872 790 932 725 q 725 892 811 854 q 531 931 639 931 m 529 35 q 376 74 446 35 q 254 175 306 113 q 174 315 203 238 q 144 468 144 392 q 169 613 144 539 q 242 746 194 686 q 358 844 290 806 q 513 882 426 882 q 673 842 601 882 q 796 740 744 803 q 875 599 847 676 q 903 444 903 521 q 880 304 903 375 q 810 174 857 233 q 692 77 763 115 q 529 35 622 39 m 389 1046 l 389 990 l 667 990 l 667 1046 l 389 1046 "},"Ǿ":{"ha":1057,"x_min":51,"x_max":997,"o":"m 531 931 q 328 889 417 931 q 177 779 239 847 q 83 624 115 711 q 51 449 51 538 q 83 275 51 358 q 174 128 115 192 q 319 25 233 64 q 511 -14 404 -14 q 699 22 611 -14 q 854 119 788 57 q 959 269 921 182 q 997 461 997 357 q 965 640 997 554 q 872 790 932 725 q 725 892 811 854 q 531 931 639 931 m 529 35 q 376 74 446 35 q 254 175 306 113 q 174 315 203 238 q 144 468 144 392 q 169 613 144 539 q 242 746 194 686 q 358 844 290 806 q 513 882 426 882 q 673 842 601 882 q 796 740 744 803 q 875 599 847 676 q 903 444 903 521 q 880 304 903 375 q 810 174 857 233 q 692 77 763 115 q 529 35 622 39 m 357 -85 l 749 978 l 697 992 l 306 -68 l 357 -85 m 411 956 l 415 947 l 644 1042 l 608 1104 l 411 956 "},"Ŕ":{"ha":750,"x_min":63,"x_max":729,"o":"m 251 14 q 233 22 240 14 q 219 42 225 31 q 210 66 213 53 q 207 90 207 79 l 207 471 q 240 466 222 468 q 272 463 257 464 q 395 276 333 371 q 519 90 457 182 q 578 27 543 54 q 669 0 614 0 l 729 0 l 729 14 q 699 22 714 14 q 672 42 685 29 q 647 69 658 54 q 625 99 635 85 q 551 209 589 156 q 478 318 514 263 l 378 471 q 462 497 422 479 q 531 542 501 514 q 577 610 560 571 q 594 703 594 650 q 519 863 594 808 q 304 917 443 917 l 63 917 l 63 903 l 69 903 q 88 895 79 903 q 102 876 96 888 q 111 853 108 865 q 114 831 114 840 l 114 90 q 111 66 114 79 q 102 42 108 53 q 88 22 96 31 q 69 14 79 14 l 63 14 l 63 0 l 258 0 l 258 14 l 251 14 m 207 869 l 228 869 q 338 863 288 869 q 423 836 388 856 q 478 783 458 817 q 499 697 499 750 q 480 610 499 644 q 433 553 461 575 q 372 523 404 532 q 310 514 339 514 q 249 515 274 514 q 214 517 225 515 l 207 517 l 207 869 m 257 956 l 261 947 l 490 1042 l 454 1104 l 257 956 "},"Ř":{"ha":750,"x_min":63,"x_max":729,"o":"m 251 14 q 233 22 240 14 q 219 42 225 31 q 210 66 213 53 q 207 90 207 79 l 207 471 q 240 466 222 468 q 272 463 257 464 q 395 276 333 371 q 519 90 457 182 q 578 27 543 54 q 669 0 614 0 l 729 0 l 729 14 q 699 22 714 14 q 672 42 685 29 q 647 69 658 54 q 625 99 635 85 q 551 209 589 156 q 478 318 514 263 l 378 471 q 462 497 422 479 q 531 542 501 514 q 577 610 560 571 q 594 703 594 650 q 519 863 594 808 q 304 917 443 917 l 63 917 l 63 903 l 69 903 q 88 895 79 903 q 102 876 96 888 q 111 853 108 865 q 114 831 114 840 l 114 90 q 111 66 114 79 q 102 42 108 53 q 88 22 96 31 q 69 14 79 14 l 63 14 l 63 0 l 258 0 l 258 14 l 251 14 m 207 869 l 228 869 q 338 863 288 869 q 423 836 388 856 q 478 783 458 817 q 499 697 499 750 q 480 610 499 644 q 433 553 461 575 q 372 523 404 532 q 310 514 339 514 q 249 515 274 514 q 214 517 225 515 l 207 517 l 207 869 m 207 1097 l 203 1092 l 375 947 l 543 1092 l 540 1097 l 375 1018 l 207 1097 "},"Ś":{"ha":681,"x_min":50,"x_max":625,"o":"m 625 246 q 601 354 625 310 q 538 429 576 399 q 451 481 500 460 q 356 519 403 501 q 276 551 314 535 q 208 589 238 568 q 162 638 179 610 q 144 704 144 665 q 152 759 144 728 q 181 817 160 790 q 237 863 201 844 q 328 882 272 882 q 478 856 424 882 q 535 758 532 831 l 549 758 l 549 901 q 506 905 528 901 q 460 914 483 908 q 399 926 431 921 q 331 931 367 931 q 227 916 278 931 q 137 872 176 901 q 74 798 97 843 q 50 692 50 753 q 72 594 50 633 q 131 526 94 554 q 213 478 167 497 q 306 440 258 458 q 388 407 347 424 q 459 367 428 390 q 510 312 490 343 q 529 235 529 281 q 516 164 529 199 q 475 101 503 129 q 404 55 447 72 q 301 38 361 38 q 249 42 285 38 q 176 64 213 47 q 113 112 140 81 q 86 196 86 143 l 72 196 l 72 38 q 108 33 90 38 q 149 21 126 28 q 222 0 182 11 q 318 -11 263 -11 q 427 3 372 -11 q 526 47 482 17 q 597 127 569 78 q 625 246 625 176 m 222 956 l 226 947 l 456 1042 l 419 1104 l 222 956 "},"Ş":{"ha":681,"x_min":50,"x_max":625,"o":"m 328 -69 l 363 -8 q 458 13 411 -4 q 542 60 506 29 q 602 138 579 92 q 625 246 625 183 q 601 354 625 310 q 538 429 576 399 q 451 481 500 460 q 356 519 403 501 q 276 551 314 535 q 208 589 238 568 q 162 638 179 610 q 144 704 144 665 q 152 759 144 728 q 181 817 160 790 q 237 863 201 844 q 328 882 272 882 q 478 856 424 882 q 535 758 532 831 l 549 758 l 549 901 q 506 905 528 901 q 460 914 483 908 q 399 926 431 921 q 331 931 367 931 q 227 916 278 931 q 137 872 176 901 q 74 798 97 843 q 50 692 50 753 q 72 594 50 633 q 131 526 94 554 q 213 478 167 497 q 306 440 258 458 q 388 407 347 424 q 459 367 428 390 q 510 312 490 343 q 529 235 529 281 q 516 164 529 199 q 475 101 503 129 q 404 55 447 72 q 301 38 361 38 q 249 42 285 38 q 176 64 213 47 q 113 112 140 81 q 86 196 86 143 l 72 196 l 72 38 q 109 33 90 38 q 156 18 128 28 q 226 -2 188 7 q 315 -11 264 -11 l 271 -85 q 350 -113 322 -92 q 378 -158 378 -135 q 367 -187 378 -174 q 340 -210 357 -200 q 299 -227 322 -221 q 249 -233 275 -233 l 233 -233 l 233 -244 q 243 -245 238 -244 q 256 -246 249 -246 q 272 -248 264 -247 q 289 -249 281 -249 q 404 -218 364 -249 q 444 -151 444 -187 q 417 -99 444 -122 q 328 -69 389 -76 "},"Ŝ":{"ha":681,"x_min":50,"x_max":625,"o":"m 625 246 q 601 354 625 310 q 538 429 576 399 q 451 481 500 460 q 356 519 403 501 q 276 551 314 535 q 208 589 238 568 q 162 638 179 610 q 144 704 144 665 q 152 759 144 728 q 181 817 160 790 q 237 863 201 844 q 328 882 272 882 q 478 856 424 882 q 535 758 532 831 l 549 758 l 549 901 q 506 905 528 901 q 460 914 483 908 q 399 926 431 921 q 331 931 367 931 q 227 916 278 931 q 137 872 176 901 q 74 798 97 843 q 50 692 50 753 q 72 594 50 633 q 131 526 94 554 q 213 478 167 497 q 306 440 258 458 q 388 407 347 424 q 459 367 428 390 q 510 312 490 343 q 529 235 529 281 q 516 164 529 199 q 475 101 503 129 q 404 55 447 72 q 301 38 361 38 q 249 42 285 38 q 176 64 213 47 q 113 112 140 81 q 86 196 86 143 l 72 196 l 72 38 q 108 33 90 38 q 149 21 126 28 q 222 0 182 11 q 318 -11 263 -11 q 427 3 372 -11 q 526 47 482 17 q 597 127 569 78 q 625 246 625 176 m 507 951 l 508 958 l 339 1101 l 169 958 l 172 951 l 339 1033 l 507 951 "},"Ŧ":{"ha":650,"x_min":13,"x_max":636,"o":"m 414 14 q 395 22 403 14 q 381 42 388 31 q 372 66 375 53 q 369 90 369 79 l 369 596 l 539 596 l 539 647 l 369 647 l 369 865 l 533 865 q 572 856 556 865 q 600 831 589 846 q 617 799 611 817 q 622 765 622 782 l 636 765 l 636 917 l 13 917 l 13 765 l 26 765 q 32 799 26 782 q 49 831 38 817 q 76 856 60 846 q 115 865 93 865 l 276 865 l 276 647 l 118 647 l 118 596 l 276 596 l 276 90 q 274 66 276 79 q 265 42 271 53 q 250 22 258 31 q 231 14 242 14 l 224 14 l 224 0 l 421 0 l 421 14 l 414 14 "},"Ť":{"ha":650,"x_min":13,"x_max":636,"o":"m 414 14 q 395 22 403 14 q 381 42 388 31 q 372 66 375 53 q 369 90 369 79 l 369 865 l 533 865 q 572 856 556 865 q 600 831 589 846 q 617 799 611 817 q 622 765 622 782 l 636 765 l 636 917 l 13 917 l 13 765 l 26 765 q 32 799 26 782 q 49 831 38 817 q 76 856 60 846 q 115 865 93 865 l 276 865 l 276 90 q 274 66 276 79 q 265 42 271 53 q 250 22 258 31 q 231 14 242 14 l 224 14 l 224 0 l 421 0 l 421 14 l 414 14 m 160 1097 l 156 1092 l 328 947 l 496 1092 l 493 1097 l 328 1018 l 160 1097 "},"Ŭ":{"ha":811,"x_min":63,"x_max":742,"o":"m 63 917 l 63 903 l 69 903 q 88 895 79 903 q 102 876 96 888 q 111 853 108 865 q 114 831 114 840 l 114 282 q 136 137 114 194 q 197 46 158 79 q 290 -1 236 13 q 406 -14 343 -14 q 516 -1 464 -14 q 607 44 568 11 q 668 135 646 78 q 690 283 690 193 l 690 831 q 693 853 690 840 q 702 876 696 865 q 716 895 708 888 q 735 903 724 903 l 742 903 l 742 917 l 590 917 l 590 903 l 597 903 q 615 895 607 903 q 630 876 624 888 q 639 853 636 865 q 642 831 642 840 l 642 279 q 635 192 642 236 q 606 112 628 147 q 542 54 583 76 q 431 32 500 32 q 325 51 368 32 q 256 103 282 69 q 218 182 229 136 q 207 282 207 228 l 207 831 q 210 853 207 840 q 219 876 213 865 q 233 895 225 888 q 253 903 242 903 l 260 903 l 260 917 l 63 917 m 560 1104 l 551 1104 q 542 1081 549 1096 q 518 1051 535 1067 q 474 1025 501 1036 q 404 1014 447 1014 q 335 1025 363 1014 q 290 1051 307 1036 q 266 1081 274 1067 q 257 1104 258 1096 l 249 1104 q 261 1053 249 1079 q 294 1007 274 1028 q 344 973 315 986 q 406 960 372 960 q 469 974 440 960 q 517 1009 497 988 q 549 1056 538 1031 q 560 1104 560 1082 "},"Ű":{"ha":811,"x_min":63,"x_max":742,"o":"m 63 917 l 63 903 l 69 903 q 88 895 79 903 q 102 876 96 888 q 111 853 108 865 q 114 831 114 840 l 114 282 q 136 137 114 194 q 197 46 158 79 q 290 -1 236 13 q 406 -14 343 -14 q 516 -1 464 -14 q 607 44 568 11 q 668 135 646 78 q 690 283 690 193 l 690 831 q 693 853 690 840 q 702 876 696 865 q 716 895 708 888 q 735 903 724 903 l 742 903 l 742 917 l 590 917 l 590 903 l 597 903 q 615 895 607 903 q 630 876 624 888 q 639 853 636 865 q 642 831 642 840 l 642 279 q 635 192 642 236 q 606 112 628 147 q 542 54 583 76 q 431 32 500 32 q 325 51 368 32 q 256 103 282 69 q 218 182 229 136 q 207 282 207 228 l 207 831 q 210 853 207 840 q 219 876 213 865 q 233 895 225 888 q 253 903 242 903 l 260 903 l 260 917 l 63 917 m 236 964 l 251 953 l 422 1144 l 351 1189 l 236 964 m 364 965 l 379 951 l 575 1115 l 513 1169 l 364 965 "},"Ū":{"ha":811,"x_min":63,"x_max":742,"o":"m 63 917 l 63 903 l 69 903 q 88 895 79 903 q 102 876 96 888 q 111 853 108 865 q 114 831 114 840 l 114 282 q 136 137 114 194 q 197 46 158 79 q 290 -1 236 13 q 406 -14 343 -14 q 516 -1 464 -14 q 607 44 568 11 q 668 135 646 78 q 690 283 690 193 l 690 831 q 693 853 690 840 q 702 876 696 865 q 716 895 708 888 q 735 903 724 903 l 742 903 l 742 917 l 590 917 l 590 903 l 597 903 q 615 895 607 903 q 630 876 624 888 q 639 853 636 865 q 642 831 642 840 l 642 279 q 635 192 642 236 q 606 112 628 147 q 542 54 583 76 q 431 32 500 32 q 325 51 368 32 q 256 103 282 69 q 218 182 229 136 q 207 282 207 228 l 207 831 q 210 853 207 840 q 219 876 213 865 q 233 895 225 888 q 253 903 242 903 l 260 903 l 260 917 l 63 917 m 265 1046 l 265 990 l 543 990 l 543 1046 l 265 1046 "},"Ų":{"ha":811,"x_min":63,"x_max":742,"o":"m 63 917 l 63 903 l 69 903 q 88 895 79 903 q 102 876 96 888 q 111 853 108 865 q 114 831 114 840 l 114 282 q 133 143 114 199 q 188 54 153 88 q 270 6 222 21 q 375 -12 318 -10 q 330 -60 347 -33 q 313 -115 313 -87 q 340 -170 313 -147 q 431 -193 368 -193 q 486 -187 460 -193 q 531 -171 513 -182 l 528 -164 q 471 -174 504 -174 q 399 -153 418 -174 q 379 -106 379 -132 q 392 -58 379 -82 q 424 -14 404 -33 q 526 2 478 -12 q 612 50 575 17 q 669 140 649 83 q 690 283 690 197 l 690 831 q 693 853 690 840 q 702 876 696 865 q 716 895 708 888 q 735 903 724 903 l 742 903 l 742 917 l 590 917 l 590 903 l 597 903 q 615 895 607 903 q 630 876 624 888 q 639 853 636 865 q 642 831 642 840 l 642 279 q 635 191 642 235 q 606 112 628 147 q 542 54 583 76 q 431 32 500 32 q 325 51 368 32 q 256 103 282 69 q 218 182 229 136 q 207 282 207 228 l 207 831 q 210 853 207 840 q 219 876 213 865 q 233 895 225 888 q 253 903 242 903 l 260 903 l 260 917 l 63 917 "},"Ů":{"ha":811,"x_min":63,"x_max":742,"o":"m 63 917 l 63 903 l 69 903 q 88 895 79 903 q 102 876 96 888 q 111 853 108 865 q 114 831 114 840 l 114 282 q 136 137 114 194 q 197 46 158 79 q 290 -1 236 13 q 406 -14 343 -14 q 516 -1 464 -14 q 607 44 568 11 q 668 135 646 78 q 690 283 690 193 l 690 831 q 693 853 690 840 q 702 876 696 865 q 716 895 708 888 q 735 903 724 903 l 742 903 l 742 917 l 590 917 l 590 903 l 597 903 q 615 895 607 903 q 630 876 624 888 q 639 853 636 865 q 642 831 642 840 l 642 279 q 635 192 642 236 q 606 112 628 147 q 542 54 583 76 q 431 32 500 32 q 325 51 368 32 q 256 103 282 69 q 218 182 229 136 q 207 282 207 228 l 207 831 q 210 853 207 840 q 219 876 213 865 q 233 895 225 888 q 253 903 242 903 l 260 903 l 260 917 l 63 917 m 304 1040 q 333 981 304 1004 q 404 958 361 958 q 476 981 447 958 q 506 1040 506 1004 q 476 1100 506 1076 q 404 1124 447 1124 q 333 1100 361 1124 q 304 1040 304 1076 m 343 1049 q 358 1087 343 1071 q 396 1103 374 1103 q 446 1082 424 1103 q 468 1036 468 1061 q 453 995 468 1011 q 414 979 438 979 q 364 999 385 979 q 343 1049 343 1019 "},"Ũ":{"ha":811,"x_min":63,"x_max":742,"o":"m 63 917 l 63 903 l 69 903 q 88 895 79 903 q 102 876 96 888 q 111 853 108 865 q 114 831 114 840 l 114 282 q 136 137 114 194 q 197 46 158 79 q 290 -1 236 13 q 406 -14 343 -14 q 516 -1 464 -14 q 607 44 568 11 q 668 135 646 78 q 690 283 690 193 l 690 831 q 693 853 690 840 q 702 876 696 865 q 716 895 708 888 q 735 903 724 903 l 742 903 l 742 917 l 590 917 l 590 903 l 597 903 q 615 895 607 903 q 630 876 624 888 q 639 853 636 865 q 642 831 642 840 l 642 279 q 635 192 642 236 q 606 112 628 147 q 542 54 583 76 q 431 32 500 32 q 325 51 368 32 q 256 103 282 69 q 218 182 229 136 q 207 282 207 228 l 207 831 q 210 853 207 840 q 219 876 213 865 q 233 895 225 888 q 253 903 242 903 l 260 903 l 260 917 l 63 917 m 563 1065 l 557 1067 q 531 1033 546 1047 q 493 1018 515 1018 q 457 1026 476 1018 q 419 1045 438 1035 q 381 1064 400 1056 q 344 1072 361 1072 q 291 1048 317 1072 q 246 965 265 1024 l 253 964 q 285 1004 271 989 q 321 1019 300 1019 q 360 1010 339 1019 q 404 991 382 1001 q 447 972 426 981 q 485 964 468 964 q 530 983 514 964 q 563 1065 546 1003 "},"Ẃ":{"ha":1119,"x_min":21,"x_max":1099,"o":"m 1099 903 l 1099 917 l 947 917 l 947 903 q 969 891 958 903 q 981 860 981 879 q 978 845 981 854 q 976 833 976 836 l 793 246 l 581 925 l 360 244 l 179 833 q 176 851 176 844 q 188 888 176 874 q 218 903 200 903 l 218 917 l 21 917 l 21 903 q 60 878 43 903 q 85 826 78 853 l 339 -7 l 556 678 l 772 -6 l 1025 828 q 1051 879 1032 856 q 1099 903 1071 903 m 442 956 l 446 947 l 675 1042 l 639 1104 l 442 956 "},"Ŵ":{"ha":1119,"x_min":21,"x_max":1099,"o":"m 1099 903 l 1099 917 l 947 917 l 947 903 q 969 891 958 903 q 981 860 981 879 q 978 845 981 854 q 976 833 976 836 l 793 246 l 581 925 l 360 244 l 179 833 q 176 851 176 844 q 188 888 176 874 q 218 903 200 903 l 218 917 l 21 917 l 21 903 q 60 878 43 903 q 85 826 78 853 l 339 -7 l 556 678 l 772 -6 l 1025 828 q 1051 879 1032 856 q 1099 903 1071 903 m 726 951 l 728 958 l 558 1101 l 389 958 l 392 951 l 558 1033 l 726 951 "},"Ẅ":{"ha":1119,"x_min":21,"x_max":1099,"o":"m 1099 903 l 1099 917 l 947 917 l 947 903 q 969 891 958 903 q 981 860 981 879 q 978 845 981 854 q 976 833 976 836 l 793 246 l 581 925 l 360 244 l 179 833 q 176 851 176 844 q 188 888 176 874 q 218 903 200 903 l 218 917 l 21 917 l 21 903 q 60 878 43 903 q 85 826 78 853 l 339 -7 l 556 678 l 772 -6 l 1025 828 q 1051 879 1032 856 q 1099 903 1071 903 m 683 997 q 671 1029 683 1017 q 642 1042 658 1042 q 609 1029 622 1042 q 596 997 596 1017 q 609 965 596 978 q 642 953 622 953 q 671 965 658 953 q 683 997 683 978 m 524 997 q 511 1029 524 1017 q 479 1042 499 1042 q 447 1029 460 1042 q 435 997 435 1017 q 447 965 435 978 q 479 953 460 953 q 511 965 499 953 q 524 997 524 978 "},"Ẁ":{"ha":1119,"x_min":21,"x_max":1099,"o":"m 1099 903 l 1099 917 l 947 917 l 947 903 q 969 891 958 903 q 981 860 981 879 q 978 845 981 854 q 976 833 976 836 l 793 246 l 581 925 l 360 244 l 179 833 q 176 851 176 844 q 188 888 176 874 q 218 903 200 903 l 218 917 l 21 917 l 21 903 q 60 878 43 903 q 85 826 78 853 l 339 -7 l 556 678 l 772 -6 l 1025 828 q 1051 879 1032 856 q 1099 903 1071 903 m 672 947 l 675 956 l 478 1104 l 442 1042 l 672 947 "},"Ŷ":{"ha":735,"x_min":4,"x_max":708,"o":"m 4 917 l 4 903 l 11 903 q 35 894 22 903 q 58 872 47 885 q 79 846 69 860 q 96 821 89 832 l 319 438 l 319 90 q 317 66 319 79 q 308 41 314 53 q 293 22 301 29 q 274 14 285 14 l 267 14 l 267 0 l 465 0 l 465 14 l 458 14 q 439 22 447 14 q 425 42 431 31 q 416 67 419 54 q 413 90 413 79 l 413 450 l 629 825 q 666 877 644 851 q 708 903 688 903 l 708 917 l 560 917 l 560 903 q 576 897 563 903 q 592 869 589 892 q 590 856 592 861 q 582 839 588 850 l 382 493 l 174 858 q 169 874 169 867 q 178 894 169 888 q 196 903 186 901 l 196 917 l 4 917 m 535 951 l 536 958 l 367 1101 l 197 958 l 200 951 l 367 1033 l 535 951 "},"Ỳ":{"ha":735,"x_min":4,"x_max":708,"o":"m 4 917 l 4 903 l 11 903 q 35 894 22 903 q 58 872 47 885 q 79 846 69 860 q 96 821 89 832 l 319 438 l 319 90 q 317 66 319 79 q 308 41 314 53 q 293 22 301 29 q 274 14 285 14 l 267 14 l 267 0 l 465 0 l 465 14 l 458 14 q 439 22 447 14 q 425 42 431 31 q 416 67 419 54 q 413 90 413 79 l 413 450 l 629 825 q 666 877 644 851 q 708 903 688 903 l 708 917 l 560 917 l 560 903 q 576 897 563 903 q 592 869 589 892 q 590 856 592 861 q 582 839 588 850 l 382 493 l 174 858 q 169 874 169 867 q 178 894 169 888 q 196 903 186 901 l 196 917 l 4 917 m 481 947 l 483 956 l 286 1104 l 250 1042 l 481 947 "},"Ź":{"ha":653,"x_min":24,"x_max":619,"o":"m 24 0 l 618 0 l 618 157 l 604 157 q 599 122 604 140 q 582 86 593 103 q 554 59 571 69 q 515 49 538 49 l 158 49 l 619 917 l 60 917 l 60 761 l 74 761 q 79 797 74 778 q 96 831 85 815 q 124 858 107 847 q 163 868 140 868 l 485 868 l 24 0 m 208 956 l 213 947 l 442 1042 l 406 1104 l 208 956 "},"Ż":{"ha":653,"x_min":24,"x_max":619,"o":"m 24 0 l 618 0 l 618 157 l 604 157 q 599 122 604 140 q 582 86 593 103 q 554 59 571 69 q 515 49 538 49 l 158 49 l 619 917 l 60 917 l 60 761 l 74 761 q 79 797 74 778 q 96 831 85 815 q 124 858 107 847 q 163 868 140 868 l 485 868 l 24 0 m 272 1029 q 287 991 272 1006 q 325 976 301 976 q 364 991 349 976 q 379 1029 379 1006 q 364 1067 379 1053 q 325 1082 349 1082 q 287 1067 301 1082 q 272 1029 272 1053 "},"ă":{"ha":635,"x_min":50,"x_max":564,"o":"m 429 0 l 564 0 l 564 14 q 531 38 543 14 q 518 90 518 63 l 518 365 q 510 449 518 408 q 476 522 501 490 q 403 574 450 554 q 279 593 356 593 q 178 577 214 593 q 121 553 142 561 q 97 542 107 547 q 76 535 88 536 l 76 433 l 89 433 q 111 472 97 451 q 145 509 125 492 q 192 538 165 526 q 256 549 219 549 q 306 542 276 549 q 361 517 335 536 q 407 465 388 499 q 429 378 426 432 q 269 333 339 356 q 150 282 199 310 q 76 218 101 254 q 50 135 50 182 q 60 79 50 106 q 93 33 71 53 q 150 1 115 13 q 233 -10 185 -10 q 342 10 297 -10 q 422 64 388 29 l 429 71 l 429 0 m 429 132 l 414 115 q 350 63 385 83 q 269 43 315 43 q 175 72 211 43 q 139 146 139 101 q 169 217 139 186 q 243 269 200 247 q 334 306 286 292 q 415 328 382 319 l 429 331 l 429 132 m 472 771 l 464 771 q 454 748 461 763 q 431 718 447 733 q 387 692 414 703 q 317 681 360 681 q 247 692 275 681 q 203 718 219 703 q 178 748 186 733 q 169 771 171 763 l 161 771 q 174 720 161 746 q 207 674 186 694 q 256 640 228 653 q 318 626 285 626 q 381 640 353 626 q 430 676 410 654 q 461 723 450 697 q 472 771 472 749 "},"́":{"ha":308,"x_min":33,"x_max":267,"o":"m 33 622 l 38 614 l 267 708 l 231 771 l 33 622 "},"ǽ":{"ha":1054,"x_min":63,"x_max":996,"o":"m 758 39 q 665 58 704 39 q 597 108 625 76 q 551 182 568 140 q 529 269 535 224 l 529 282 l 996 282 q 981 407 996 350 q 935 506 967 464 q 854 571 904 547 q 735 594 804 594 q 599 565 656 594 q 506 493 542 536 q 433 566 482 538 q 290 594 383 594 q 185 580 224 594 q 132 554 147 565 q 110 542 121 547 q 89 536 100 538 l 89 435 l 101 435 q 124 473 110 453 q 157 510 138 493 q 203 539 176 528 q 267 550 231 550 q 317 544 289 550 q 372 519 346 538 q 418 467 399 500 q 440 379 438 433 q 280 334 350 357 q 161 283 210 311 q 88 219 113 256 q 63 136 63 183 q 73 81 63 107 q 105 34 83 54 q 161 3 126 14 q 244 -8 196 -8 q 355 11 310 -8 q 433 65 400 31 q 459 92 444 76 q 485 118 474 107 q 592 23 525 54 q 739 -8 658 -8 q 864 10 817 -8 q 939 46 911 29 q 963 60 953 54 q 983 65 974 65 l 983 169 l 969 169 q 938 115 961 139 q 886 74 915 90 q 823 48 857 57 q 758 39 789 39 m 729 549 q 810 530 776 549 q 865 481 843 511 q 898 411 888 450 q 910 332 908 372 l 529 332 l 529 344 q 549 419 535 382 q 588 484 564 456 q 648 531 613 513 q 729 549 683 549 m 467 154 l 425 114 q 361 65 394 86 q 281 44 328 44 q 186 73 222 44 q 150 146 150 101 q 181 218 150 188 q 255 271 211 249 q 346 307 299 293 q 426 329 393 321 l 442 335 q 440 317 440 326 q 440 300 440 308 q 467 154 440 219 m 425 653 l 429 644 l 658 739 l 622 801 l 425 653 "},"ā":{"ha":635,"x_min":50,"x_max":564,"o":"m 429 0 l 564 0 l 564 14 q 531 38 543 14 q 518 90 518 63 l 518 365 q 510 449 518 408 q 476 522 501 490 q 403 574 450 554 q 279 593 356 593 q 178 577 214 593 q 121 553 142 561 q 97 542 107 547 q 76 535 88 536 l 76 433 l 89 433 q 111 472 97 451 q 145 509 125 492 q 192 538 165 526 q 256 549 219 549 q 306 542 276 549 q 361 517 335 536 q 407 465 388 499 q 429 378 426 432 q 269 333 339 356 q 150 282 199 310 q 76 218 101 254 q 50 135 50 182 q 60 79 50 106 q 93 33 71 53 q 150 1 115 13 q 233 -10 185 -10 q 342 10 297 -10 q 422 64 388 29 l 429 71 l 429 0 m 429 132 l 414 115 q 350 63 385 83 q 269 43 315 43 q 175 72 211 43 q 139 146 139 101 q 169 217 139 186 q 243 269 200 247 q 334 306 286 292 q 415 328 382 319 l 429 331 l 429 132 m 178 713 l 178 657 l 456 657 l 456 713 l 178 713 "},"ą":{"ha":635,"x_min":50,"x_max":578,"o":"m 518 -172 q 445 -152 465 -172 q 425 -106 425 -132 q 443 -49 425 -78 q 485 0 461 -21 l 564 0 l 564 14 q 531 38 543 14 q 518 90 518 63 l 518 365 q 510 449 518 408 q 476 522 501 490 q 403 574 450 554 q 279 593 356 593 q 178 579 214 593 q 121 553 143 565 q 98 541 108 546 q 76 535 88 536 l 76 433 l 89 433 q 111 472 97 451 q 145 509 125 492 q 192 538 165 526 q 256 549 219 549 q 306 542 276 549 q 361 517 335 536 q 407 465 388 499 q 429 378 426 432 q 269 333 339 356 q 150 282 199 310 q 76 218 101 254 q 50 135 50 182 q 60 79 50 106 q 93 33 71 53 q 150 1 115 13 q 233 -10 185 -10 q 342 10 297 -10 q 422 64 388 29 l 429 71 l 429 0 l 439 0 q 383 -51 407 -21 q 358 -115 358 -82 q 387 -169 358 -146 q 478 -192 415 -192 q 533 -186 507 -192 q 578 -169 560 -181 l 575 -162 q 518 -172 550 -172 m 429 132 l 414 115 q 350 63 385 83 q 269 43 315 43 q 175 72 211 43 q 139 146 139 101 q 169 217 139 186 q 243 269 200 247 q 334 306 286 292 q 415 328 382 319 l 429 331 l 429 132 "},"˘":{"ha":390,"x_min":39,"x_max":350,"o":"m 350 771 l 342 771 q 332 748 339 763 q 308 718 325 733 q 265 692 292 703 q 194 681 238 681 q 125 692 153 681 q 81 718 97 703 q 56 748 64 733 q 47 771 49 763 l 39 771 q 51 720 39 746 q 85 674 64 694 q 134 640 106 653 q 196 626 163 626 q 259 640 231 626 q 308 676 288 654 q 339 723 328 697 q 350 771 350 749 "},"ć":{"ha":606,"x_min":50,"x_max":575,"o":"m 575 50 l 575 158 l 561 158 q 544 117 558 139 q 508 78 531 96 q 452 49 485 60 q 381 38 419 38 q 281 61 325 38 q 205 124 236 85 q 157 212 174 163 q 140 313 140 261 q 154 399 140 357 q 196 473 168 440 q 267 526 224 506 q 367 546 310 546 q 421 539 393 546 q 472 518 449 532 q 514 484 496 504 q 539 438 532 464 l 553 438 l 553 543 q 528 547 540 543 q 504 558 517 551 q 450 581 482 569 q 367 593 418 593 q 233 568 292 593 q 133 501 174 543 q 72 406 93 460 q 50 292 50 351 q 74 173 50 228 q 142 77 99 118 q 247 13 186 36 q 378 -10 307 -10 q 472 5 436 -10 q 532 33 508 19 q 554 45 544 40 q 575 50 564 50 m 224 657 l 228 649 l 457 743 l 421 806 l 224 657 "},"ˇ":{"ha":417,"x_min":17,"x_max":357,"o":"m 21 764 l 17 758 l 189 614 l 357 758 l 354 764 l 189 685 l 21 764 "},"č":{"ha":606,"x_min":50,"x_max":575,"o":"m 575 50 l 575 158 l 561 158 q 544 117 558 139 q 508 78 531 96 q 452 49 485 60 q 381 38 419 38 q 281 61 325 38 q 205 124 236 85 q 157 212 174 163 q 140 313 140 261 q 154 399 140 357 q 196 473 168 440 q 267 526 224 506 q 367 546 310 546 q 421 539 393 546 q 472 518 449 532 q 514 484 496 504 q 539 438 532 464 l 553 438 l 553 543 q 528 547 540 543 q 504 558 517 551 q 450 581 482 569 q 367 593 418 593 q 233 568 292 593 q 133 501 174 543 q 72 406 93 460 q 50 292 50 351 q 74 173 50 228 q 142 77 99 118 q 247 13 186 36 q 378 -10 307 -10 q 472 5 436 -10 q 532 33 508 19 q 554 45 544 40 q 575 50 564 50 m 185 783 l 181 778 l 353 633 l 521 778 l 518 783 l 353 704 l 185 783 "},"ĉ":{"ha":606,"x_min":50,"x_max":575,"o":"m 575 50 l 575 158 l 561 158 q 544 117 558 139 q 508 78 531 96 q 452 49 485 60 q 381 38 419 38 q 281 61 325 38 q 205 124 236 85 q 157 212 174 163 q 140 313 140 261 q 154 399 140 357 q 196 473 168 440 q 267 526 224 506 q 367 546 310 546 q 421 539 393 546 q 472 518 449 532 q 514 484 496 504 q 539 438 532 464 l 553 438 l 553 543 q 528 547 540 543 q 504 558 517 551 q 450 581 482 569 q 367 593 418 593 q 233 568 292 593 q 133 501 174 543 q 72 406 93 460 q 50 292 50 351 q 74 173 50 228 q 142 77 99 118 q 247 13 186 36 q 378 -10 307 -10 q 472 5 436 -10 q 532 33 508 19 q 554 45 544 40 q 575 50 564 50 m 513 644 l 514 651 l 344 794 l 175 651 l 178 644 l 344 726 l 513 644 "},"ċ":{"ha":606,"x_min":50,"x_max":575,"o":"m 575 50 l 575 158 l 561 158 q 544 117 558 139 q 508 78 531 96 q 452 49 485 60 q 381 38 419 38 q 281 61 325 38 q 205 124 236 85 q 157 212 174 163 q 140 313 140 261 q 154 399 140 357 q 196 473 168 440 q 267 526 224 506 q 367 546 310 546 q 421 539 393 546 q 472 518 449 532 q 514 484 496 504 q 539 438 532 464 l 553 438 l 553 543 q 528 547 540 543 q 504 558 517 551 q 450 581 482 569 q 367 593 418 593 q 233 568 292 593 q 133 501 174 543 q 72 406 93 460 q 50 292 50 351 q 74 173 50 228 q 142 77 99 118 q 247 13 186 36 q 378 -10 307 -10 q 472 5 436 -10 q 532 33 508 19 q 554 45 544 40 q 575 50 564 50 m 308 714 q 323 676 308 690 q 361 661 338 661 q 400 676 385 661 q 415 714 415 690 q 400 752 415 738 q 361 767 385 767 q 323 752 338 767 q 308 714 308 738 "},"ď":{"ha":800,"x_min":51,"x_max":800,"o":"m 504 0 l 640 0 l 640 14 q 621 22 629 14 q 607 42 613 31 q 599 66 601 53 q 596 90 596 79 l 596 925 l 457 882 l 457 868 q 497 846 490 867 q 504 801 504 825 l 504 531 q 432 576 478 558 q 339 593 386 593 q 214 567 268 593 q 124 497 160 540 q 69 399 88 454 q 51 289 51 344 q 69 178 51 232 q 122 83 86 125 q 213 16 158 42 q 342 -10 268 -10 q 441 13 401 -10 q 504 61 481 35 l 504 0 m 351 36 q 261 63 300 38 q 195 126 222 88 q 154 212 168 164 q 140 308 140 260 q 153 392 140 350 q 190 469 165 435 q 251 524 215 503 q 333 546 288 546 q 391 534 361 546 q 446 500 421 522 q 488 447 471 478 q 504 376 504 415 l 504 186 q 491 127 504 154 q 457 80 478 100 q 408 48 436 60 q 351 36 381 36 m 722 921 q 682 904 699 921 q 665 861 665 888 q 676 828 665 838 q 699 813 688 819 q 715 801 708 807 q 721 785 721 796 q 719 756 721 769 q 708 726 717 742 q 684 690 700 710 q 640 644 668 671 l 649 632 q 727 680 697 654 q 773 732 757 706 q 794 783 789 758 q 800 831 800 808 q 781 894 800 867 q 722 921 763 921 "},"đ":{"ha":713,"x_min":51,"x_max":694,"o":"m 275 739 l 275 689 l 504 689 l 504 531 q 432 576 478 558 q 339 593 386 593 q 214 567 268 593 q 124 497 160 540 q 69 399 88 454 q 51 289 51 344 q 69 178 51 232 q 122 83 86 125 q 213 16 158 42 q 342 -10 268 -10 q 441 13 401 -10 q 504 61 481 35 l 504 0 l 640 0 l 640 14 q 622 22 629 14 q 608 42 614 31 q 599 66 601 53 q 596 90 596 79 l 596 689 l 694 689 l 694 739 l 596 739 l 596 925 l 457 882 l 457 868 q 497 846 490 867 q 504 801 504 825 l 504 739 l 275 739 m 351 36 q 261 63 300 38 q 195 126 222 88 q 154 212 168 164 q 140 308 140 260 q 153 392 140 350 q 190 469 165 435 q 251 524 215 503 q 333 546 288 546 q 391 534 361 546 q 446 500 421 522 q 488 447 471 478 q 504 376 504 415 l 504 186 q 491 127 504 154 q 457 80 478 100 q 408 48 436 60 q 351 36 381 36 "},"˙":{"ha":183,"x_min":38,"x_max":144,"o":"m 38 696 q 52 658 38 672 q 90 643 67 643 q 129 658 114 643 q 144 696 144 672 q 129 734 144 719 q 90 749 114 749 q 52 734 67 749 q 38 696 38 719 "},"ı":{"ha":349,"x_min":79,"x_max":263,"o":"m 82 0 l 263 0 l 263 14 q 243 22 251 14 q 229 42 235 31 q 221 66 224 53 q 218 90 218 79 l 218 600 l 79 556 l 79 543 q 119 520 113 542 q 126 475 126 499 l 126 90 q 124 66 126 79 q 115 42 121 53 q 101 22 110 31 q 82 14 93 14 l 82 0 "},"ĕ":{"ha":674,"x_min":51,"x_max":621,"o":"m 139 281 l 621 281 q 604 406 621 349 q 553 504 588 463 q 467 569 519 546 q 346 593 415 593 q 213 567 268 593 q 122 498 157 540 q 69 403 86 456 q 51 299 51 350 q 77 160 51 218 q 146 64 103 101 q 245 8 189 26 q 364 -10 301 -10 q 489 9 442 -10 q 564 44 536 28 q 588 58 578 53 q 607 64 599 64 l 607 168 l 594 168 q 563 113 586 138 q 511 72 540 89 q 448 47 482 56 q 383 38 414 38 q 283 58 326 38 q 210 111 240 78 q 163 188 181 144 q 139 281 144 232 m 340 547 q 424 528 388 547 q 483 479 460 510 q 520 410 507 449 q 535 331 533 371 l 139 331 q 157 408 143 369 q 196 478 171 447 q 256 528 221 508 q 340 547 292 547 m 504 815 l 496 815 q 486 792 493 807 q 463 763 479 778 q 419 736 446 747 q 349 725 392 725 q 279 736 307 725 q 235 763 251 747 q 210 792 218 778 q 201 815 203 807 l 193 815 q 206 765 193 790 q 239 718 218 739 q 288 684 260 697 q 350 671 317 671 q 413 685 385 671 q 462 720 442 699 q 493 767 482 742 q 504 815 504 793 "},"ě":{"ha":674,"x_min":51,"x_max":621,"o":"m 139 281 l 621 281 q 604 406 621 349 q 553 504 588 463 q 467 569 519 546 q 346 593 415 593 q 213 567 268 593 q 122 498 157 540 q 69 403 86 456 q 51 299 51 350 q 77 160 51 218 q 146 64 103 101 q 245 8 189 26 q 364 -10 301 -10 q 489 9 442 -10 q 564 44 536 28 q 588 58 578 53 q 607 64 599 64 l 607 168 l 594 168 q 563 113 586 138 q 511 72 540 89 q 448 47 482 56 q 383 38 414 38 q 283 58 326 38 q 210 111 240 78 q 163 188 181 144 q 139 281 144 232 m 340 547 q 424 528 388 547 q 483 479 460 510 q 520 410 507 449 q 535 331 533 371 l 139 331 q 157 408 143 369 q 196 478 171 447 q 256 528 221 508 q 340 547 292 547 m 186 810 l 182 804 l 354 660 l 522 804 l 519 810 l 354 731 l 186 810 "},"ė":{"ha":674,"x_min":51,"x_max":621,"o":"m 139 281 l 621 281 q 604 406 621 349 q 553 504 588 463 q 467 569 519 546 q 346 593 415 593 q 213 567 268 593 q 122 498 157 540 q 69 403 86 456 q 51 299 51 350 q 77 160 51 218 q 146 64 103 101 q 245 8 189 26 q 364 -10 301 -10 q 489 9 442 -10 q 564 44 536 28 q 588 58 578 53 q 607 64 599 64 l 607 168 l 594 168 q 563 113 586 138 q 511 72 540 89 q 448 47 482 56 q 383 38 414 38 q 283 58 326 38 q 210 111 240 78 q 163 188 181 144 q 139 281 144 232 m 340 547 q 424 528 388 547 q 483 479 460 510 q 520 410 507 449 q 535 331 533 371 l 139 331 q 157 408 143 369 q 196 478 171 447 q 256 528 221 508 q 340 547 292 547 m 300 739 q 315 701 300 715 q 353 686 329 686 q 392 701 376 686 q 407 739 407 715 q 392 777 407 763 q 353 792 376 792 q 315 777 329 792 q 300 739 300 763 "},"ē":{"ha":674,"x_min":51,"x_max":621,"o":"m 139 281 l 621 281 q 604 406 621 349 q 553 504 588 463 q 467 569 519 546 q 346 593 415 593 q 213 567 268 593 q 122 498 157 540 q 69 403 86 456 q 51 299 51 350 q 77 160 51 218 q 146 64 103 101 q 245 8 189 26 q 364 -10 301 -10 q 489 9 442 -10 q 564 44 536 28 q 588 58 578 53 q 607 64 599 64 l 607 168 l 594 168 q 563 113 586 138 q 511 72 540 89 q 448 47 482 56 q 383 38 414 38 q 283 58 326 38 q 210 111 240 78 q 163 188 181 144 q 139 281 144 232 m 340 547 q 424 528 388 547 q 483 479 460 510 q 520 410 507 449 q 535 331 533 371 l 139 331 q 157 408 143 369 q 196 478 171 447 q 256 528 221 508 q 340 547 292 547 m 197 713 l 197 657 l 475 657 l 475 713 l 197 713 "},"ŋ":{"ha":739,"x_min":61,"x_max":621,"o":"m 621 4 l 621 358 q 608 441 621 399 q 565 519 594 483 q 490 576 536 554 q 379 599 444 599 q 312 591 340 599 q 262 572 283 583 q 225 547 240 560 q 200 522 210 533 l 200 599 l 61 554 l 61 542 q 101 519 94 540 q 108 474 108 497 l 108 90 q 106 66 108 79 q 97 42 103 53 q 82 22 90 31 q 64 14 74 14 l 64 0 l 244 0 l 244 14 q 226 22 233 14 q 212 42 218 31 q 203 66 206 53 q 200 90 200 79 l 200 399 q 215 455 200 428 q 252 502 229 482 q 305 535 275 522 q 365 547 335 547 q 426 535 396 547 q 479 499 456 524 q 517 436 503 474 q 531 349 531 399 l 531 -17 q 503 -151 531 -92 q 443 -250 475 -210 q 357 -332 406 -297 l 364 -343 q 492 -256 436 -307 q 539 -206 515 -233 q 581 -147 563 -179 q 610 -77 599 -115 q 621 4 621 -39 "},"ę":{"ha":674,"x_min":51,"x_max":621,"o":"m 432 -172 q 359 -152 379 -172 q 339 -106 339 -132 q 353 -55 339 -82 q 388 -8 368 -28 q 494 12 453 -6 q 561 44 535 29 q 586 58 576 53 q 607 64 596 64 l 607 168 l 594 168 q 563 113 586 138 q 511 72 540 89 q 448 47 482 56 q 383 38 414 38 q 283 58 326 38 q 210 111 240 78 q 163 188 181 144 q 139 281 144 232 l 621 281 q 604 406 621 349 q 553 504 588 463 q 467 569 519 546 q 346 593 415 593 q 213 567 268 593 q 122 498 157 540 q 69 403 86 456 q 51 299 51 350 q 74 165 51 221 q 137 71 97 108 q 228 14 176 33 q 339 -8 281 -6 q 292 -58 311 -31 q 274 -115 274 -86 q 302 -169 274 -146 q 392 -192 331 -192 q 447 -186 421 -192 q 492 -169 474 -181 l 489 -162 q 432 -172 464 -172 m 340 547 q 424 528 388 547 q 483 479 460 510 q 520 410 507 449 q 535 331 533 371 l 139 331 q 157 408 143 369 q 196 478 171 447 q 256 528 221 508 q 340 547 292 547 "},"⁄":{"ha":669,"x_min":7,"x_max":653,"o":"m 76 -14 l 653 915 l 582 915 l 7 -14 l 76 -14 "},"₣":{"ha":639,"x_min":63,"x_max":597,"o":"m 63 317 l 63 263 l 115 263 l 115 88 q 113 64 115 76 q 103 40 110 51 q 89 22 97 29 q 69 14 81 14 l 69 0 l 256 0 l 256 14 q 236 22 244 14 q 222 40 228 29 q 213 64 215 51 q 210 88 210 76 l 210 263 l 529 263 l 529 317 l 210 317 l 210 468 l 440 468 q 494 450 474 468 q 515 408 515 432 l 529 408 l 529 581 l 515 581 q 494 535 515 554 q 440 515 472 515 l 210 515 l 210 867 l 494 867 q 562 842 540 867 q 583 786 583 818 l 597 786 l 597 915 l 69 915 l 69 901 q 89 894 81 901 q 103 875 97 886 q 113 851 110 864 q 115 829 115 839 l 115 317 l 63 317 "},"ğ":{"ha":688,"x_min":51,"x_max":628,"o":"m 351 -258 q 272 -250 308 -258 q 208 -225 235 -242 q 165 -185 181 -208 q 149 -133 149 -162 q 161 -85 149 -112 q 206 -32 174 -57 l 276 -44 q 383 -63 332 -54 q 474 -85 435 -72 q 535 -114 513 -97 q 558 -154 558 -131 q 542 -196 558 -176 q 497 -229 525 -215 q 431 -251 468 -243 q 351 -258 393 -258 m 428 19 l 254 47 q 151 81 192 57 q 111 150 111 106 q 117 180 111 165 q 138 204 122 194 q 224 160 175 175 q 324 144 272 144 q 428 162 379 144 q 515 209 478 179 q 572 278 551 239 q 593 363 593 318 q 583 422 593 393 q 564 471 574 450 l 628 471 l 628 521 l 528 521 q 439 573 492 553 q 328 593 386 593 q 224 575 272 593 q 139 525 175 557 q 82 450 103 493 q 61 357 61 407 q 71 297 61 325 q 104 242 81 269 q 64 194 76 219 q 51 142 51 168 q 77 55 51 97 q 151 -12 103 13 q 79 -77 101 -44 q 57 -146 57 -110 q 79 -217 57 -186 q 139 -269 101 -249 q 225 -301 176 -290 q 326 -311 274 -311 q 433 -300 381 -311 q 526 -266 485 -289 q 592 -208 567 -243 q 618 -126 618 -174 q 610 -77 618 -100 q 579 -35 601 -54 q 520 -3 557 -17 q 428 19 483 11 m 311 544 q 381 531 346 544 q 442 494 415 518 q 486 435 469 469 q 503 358 503 400 q 492 294 503 325 q 460 241 481 264 q 410 205 439 218 q 347 192 382 192 q 280 204 315 192 q 215 240 244 217 q 167 300 186 264 q 149 382 149 336 q 162 449 149 419 q 197 500 175 479 q 249 533 219 521 q 311 544 278 544 m 483 829 l 475 829 q 465 806 472 821 q 442 776 458 792 q 398 750 425 761 q 328 739 371 739 q 258 750 286 739 q 214 776 231 761 q 190 806 197 792 q 181 829 182 821 l 172 829 q 185 778 172 804 q 218 732 197 753 q 267 698 239 711 q 329 685 296 685 q 392 699 364 685 q 441 734 421 713 q 472 781 461 756 q 483 829 483 807 "},"ĝ":{"ha":688,"x_min":51,"x_max":628,"o":"m 351 -258 q 272 -250 308 -258 q 208 -225 235 -242 q 165 -185 181 -208 q 149 -133 149 -162 q 161 -85 149 -112 q 206 -32 174 -57 l 276 -44 q 383 -63 332 -54 q 474 -85 435 -72 q 535 -114 513 -97 q 558 -154 558 -131 q 542 -196 558 -176 q 497 -229 525 -215 q 431 -251 468 -243 q 351 -258 393 -258 m 428 19 l 254 47 q 151 81 192 57 q 111 150 111 106 q 117 180 111 165 q 138 204 122 194 q 224 160 175 175 q 324 144 272 144 q 428 162 379 144 q 515 209 478 179 q 572 278 551 239 q 593 363 593 318 q 583 422 593 393 q 564 471 574 450 l 628 471 l 628 521 l 528 521 q 439 573 492 553 q 328 593 386 593 q 224 575 272 593 q 139 525 175 557 q 82 450 103 493 q 61 357 61 407 q 71 297 61 325 q 104 242 81 269 q 64 194 76 219 q 51 142 51 168 q 77 55 51 97 q 151 -12 103 13 q 79 -77 101 -44 q 57 -146 57 -110 q 79 -217 57 -186 q 139 -269 101 -249 q 225 -301 176 -290 q 326 -311 274 -311 q 433 -300 381 -311 q 526 -266 485 -289 q 592 -208 567 -243 q 618 -126 618 -174 q 610 -77 618 -100 q 579 -35 601 -54 q 520 -3 557 -17 q 428 19 483 11 m 311 544 q 381 531 346 544 q 442 494 415 518 q 486 435 469 469 q 503 358 503 400 q 492 294 503 325 q 460 241 481 264 q 410 205 439 218 q 347 192 382 192 q 280 204 315 192 q 215 240 244 217 q 167 300 186 264 q 149 382 149 336 q 162 449 149 419 q 197 500 175 479 q 249 533 219 521 q 311 544 278 544 m 500 657 l 501 664 l 332 807 l 163 664 l 165 657 l 332 739 l 500 657 "},"ġ":{"ha":688,"x_min":51,"x_max":628,"o":"m 351 -258 q 272 -250 308 -258 q 208 -225 235 -242 q 165 -185 181 -208 q 149 -133 149 -162 q 161 -85 149 -112 q 206 -32 174 -57 l 276 -44 q 383 -63 332 -54 q 474 -85 435 -72 q 535 -114 513 -97 q 558 -154 558 -131 q 542 -196 558 -176 q 497 -229 525 -215 q 431 -251 468 -243 q 351 -258 393 -258 m 428 19 l 254 47 q 151 81 192 57 q 111 150 111 106 q 117 180 111 165 q 138 204 122 194 q 224 160 175 175 q 324 144 272 144 q 428 162 379 144 q 515 209 478 179 q 572 278 551 239 q 593 363 593 318 q 583 422 593 393 q 564 471 574 450 l 628 471 l 628 521 l 528 521 q 439 573 492 553 q 328 593 386 593 q 224 575 272 593 q 139 525 175 557 q 82 450 103 493 q 61 357 61 407 q 71 297 61 325 q 104 242 81 269 q 64 194 76 219 q 51 142 51 168 q 77 55 51 97 q 151 -12 103 13 q 79 -77 101 -44 q 57 -146 57 -110 q 79 -217 57 -186 q 139 -269 101 -249 q 225 -301 176 -290 q 326 -311 274 -311 q 433 -300 381 -311 q 526 -266 485 -289 q 592 -208 567 -243 q 618 -126 618 -174 q 610 -77 618 -100 q 579 -35 601 -54 q 520 -3 557 -17 q 428 19 483 11 m 311 544 q 381 531 346 544 q 442 494 415 518 q 486 435 469 469 q 503 358 503 400 q 492 294 503 325 q 460 241 481 264 q 410 205 439 218 q 347 192 382 192 q 280 204 315 192 q 215 240 244 217 q 167 300 186 264 q 149 382 149 336 q 162 449 149 419 q 197 500 175 479 q 249 533 219 521 q 311 544 278 544 m 281 738 q 295 699 281 714 q 333 685 310 685 q 372 699 357 685 q 388 738 388 714 q 372 776 388 761 q 333 790 357 790 q 295 776 310 790 q 281 738 281 761 "},"̀":{"ha":308,"x_min":33,"x_max":267,"o":"m 264 614 l 267 622 l 69 771 l 33 708 l 264 614 "},"≥":{"ha":649,"x_min":49,"x_max":593,"o":"m 49 328 l 593 544 l 593 619 l 49 836 l 49 753 l 492 582 l 49 411 l 49 328 m 49 185 l 593 185 l 593 258 l 49 258 l 49 185 "},"ħ":{"ha":739,"x_min":28,"x_max":665,"o":"m 28 739 l 28 689 l 108 689 l 108 90 q 106 66 108 79 q 97 42 103 53 q 82 22 90 31 q 64 14 74 14 l 64 0 l 244 0 l 244 14 q 226 22 233 14 q 212 42 218 31 q 203 66 206 53 q 200 90 200 79 l 200 386 q 215 452 200 422 q 252 503 229 482 q 305 535 275 524 q 365 547 335 547 q 426 535 396 547 q 479 499 456 524 q 517 436 503 474 q 531 349 531 399 l 531 90 q 528 66 531 79 q 519 42 525 53 q 504 22 513 31 q 486 14 496 14 l 486 0 l 665 0 l 665 14 q 647 22 654 14 q 633 42 639 31 q 624 66 626 53 q 621 90 621 79 l 621 358 q 608 441 621 399 q 565 519 594 483 q 490 576 536 554 q 379 599 444 599 q 312 591 340 599 q 262 572 283 583 q 225 547 240 560 q 200 522 210 533 l 200 689 l 447 689 l 447 739 l 200 739 l 200 924 l 61 881 l 61 867 q 101 844 94 865 q 108 800 108 824 l 108 739 l 28 739 "},"ĥ":{"ha":739,"x_min":61,"x_max":665,"o":"m 621 90 l 621 358 q 608 441 621 399 q 565 519 594 483 q 490 576 536 554 q 379 599 444 599 q 312 591 340 599 q 262 572 283 583 q 225 547 240 560 q 200 522 210 533 l 200 924 l 61 881 l 61 867 q 101 844 94 865 q 108 800 108 824 l 108 90 q 106 66 108 79 q 97 42 103 53 q 82 22 90 31 q 64 14 74 14 l 64 0 l 244 0 l 244 14 q 226 22 233 14 q 212 42 218 31 q 203 66 206 53 q 200 90 200 79 l 200 386 q 215 452 200 422 q 252 503 229 482 q 305 535 275 524 q 365 547 335 547 q 426 535 396 547 q 479 499 456 524 q 517 436 503 474 q 531 349 531 399 l 531 90 q 528 66 531 79 q 519 42 525 53 q 504 22 513 31 q 486 14 496 14 l 486 0 l 665 0 l 665 14 q 647 22 654 14 q 633 42 639 31 q 624 66 626 53 q 621 90 621 79 m 589 676 l 590 683 l 421 826 l 251 683 l 254 676 l 421 758 l 589 676 "},"˝":{"ha":386,"x_min":31,"x_max":369,"o":"m 31 631 l 46 619 l 217 811 l 146 856 l 31 631 m 158 632 l 174 618 l 369 782 l 307 836 l 158 632 "},"ĭ":{"ha":349,"x_min":18,"x_max":329,"o":"m 82 0 l 263 0 l 263 14 q 243 22 251 14 q 229 42 235 31 q 221 66 224 53 q 218 90 218 79 l 218 600 l 79 556 l 79 543 q 119 520 113 542 q 126 475 126 499 l 126 90 q 124 66 126 79 q 115 42 121 53 q 101 22 110 31 q 82 14 93 14 l 82 0 m 329 772 l 321 772 q 311 749 318 764 q 288 719 304 735 q 244 693 271 704 q 174 682 217 682 q 104 693 132 682 q 60 719 76 704 q 35 749 43 735 q 26 772 28 764 l 18 772 q 31 722 18 747 q 64 675 43 696 q 113 641 85 654 q 175 628 142 628 q 238 642 210 628 q 287 677 267 656 q 318 724 307 699 q 329 772 329 750 "},"ī":{"ha":349,"x_min":35,"x_max":313,"o":"m 82 0 l 263 0 l 263 14 q 243 22 251 14 q 229 42 235 31 q 221 66 224 53 q 218 90 218 79 l 218 600 l 79 556 l 79 543 q 119 520 113 542 q 126 475 126 499 l 126 90 q 124 66 126 79 q 115 42 121 53 q 101 22 110 31 q 82 14 93 14 l 82 0 m 35 714 l 35 658 l 313 658 l 313 714 l 35 714 "},"į":{"ha":349,"x_min":69,"x_max":288,"o":"m 229 -172 q 156 -152 176 -172 q 136 -106 136 -132 q 154 -49 136 -78 q 196 0 172 -21 l 263 0 l 263 14 q 244 22 251 14 q 230 42 236 31 q 221 66 224 53 q 218 90 218 79 l 218 600 l 79 556 l 79 543 q 119 520 113 542 q 126 475 126 499 l 126 90 q 124 66 126 79 q 115 42 121 53 q 101 22 110 31 q 82 14 93 14 l 82 0 l 150 0 q 94 -51 118 -21 q 69 -115 69 -82 q 98 -169 69 -146 q 189 -192 126 -192 q 244 -186 218 -192 q 288 -169 269 -181 l 285 -162 q 229 -172 260 -172 m 89 733 q 108 688 89 706 q 154 669 126 669 q 201 688 182 669 q 221 733 221 706 q 201 781 221 761 q 154 800 182 800 q 108 781 126 800 q 89 733 89 761 "},"ĩ":{"ha":349,"x_min":15,"x_max":332,"o":"m 82 0 l 263 0 l 263 14 q 243 22 251 14 q 229 42 235 31 q 221 66 224 53 q 218 90 218 79 l 218 600 l 79 556 l 79 543 q 119 520 113 542 q 126 475 126 499 l 126 90 q 124 66 126 79 q 115 42 121 53 q 101 22 110 31 q 82 14 93 14 l 82 0 m 332 733 l 326 735 q 300 701 315 715 q 263 686 285 686 q 226 694 246 686 q 188 713 207 703 q 150 732 169 724 q 114 740 131 740 q 60 716 86 740 q 15 633 35 692 l 22 632 q 55 672 40 657 q 90 688 69 688 q 130 678 108 688 q 174 659 151 669 q 217 640 196 649 q 254 632 238 632 q 299 651 283 632 q 332 733 315 671 "},"ĵ":{"ha":290,"x_min":-32,"x_max":314,"o":"m 211 599 l 72 554 l 72 542 q 113 519 106 540 q 119 474 119 497 l 119 8 q 95 -120 119 -67 q 43 -208 71 -174 q -32 -276 10 -250 l -26 -289 q 92 -215 39 -261 q 135 -172 114 -196 q 174 -117 157 -147 q 201 -50 190 -86 q 211 29 211 -14 l 211 599 m 313 619 l 314 626 l 144 769 l -25 626 l -22 619 l 144 701 l 313 619 "},"ĸ":{"ha":626,"x_min":72,"x_max":607,"o":"m 483 108 l 415 233 q 351 304 389 282 q 253 326 313 326 q 378 434 315 379 q 503 542 440 489 q 525 556 514 550 q 544 565 535 561 q 561 569 554 569 l 561 583 l 440 583 l 440 569 q 447 563 447 569 q 446 560 447 561 q 444 557 444 558 q 326 455 385 504 q 208 353 268 406 l 208 496 q 211 519 208 506 q 219 543 214 532 q 233 562 225 554 q 250 569 240 569 l 250 583 l 72 583 l 72 569 q 93 562 85 569 q 106 543 101 554 q 114 519 111 532 q 117 496 117 506 l 117 88 q 114 64 117 76 q 106 40 111 51 q 92 22 100 29 q 74 14 83 14 l 74 0 l 251 0 l 251 14 q 232 22 240 14 q 218 40 224 29 q 210 64 213 51 q 208 88 208 76 l 208 285 q 279 260 249 282 q 321 218 310 239 l 390 88 q 450 26 410 51 q 554 0 490 0 l 607 0 l 607 14 q 572 23 590 14 q 537 46 554 32 q 506 76 519 60 q 483 108 492 93 "},"ĺ":{"ha":321,"x_min":26,"x_max":260,"o":"m 68 0 l 250 0 l 250 14 q 231 22 239 14 q 217 42 224 31 q 208 66 211 53 q 206 90 206 79 l 206 925 l 65 882 l 65 868 q 107 846 100 867 q 114 801 114 825 l 114 90 q 111 66 114 79 q 102 42 108 53 q 88 22 96 31 q 68 14 79 14 l 68 0 m 26 954 l 31 946 l 260 1040 l 224 1103 l 26 954 "},"ľ":{"ha":415,"x_min":65,"x_max":415,"o":"m 68 0 l 250 0 l 250 14 q 231 22 239 14 q 217 42 224 31 q 208 66 211 53 q 206 90 206 79 l 206 925 l 65 882 l 65 868 q 107 846 100 867 q 114 801 114 825 l 114 90 q 111 66 114 79 q 102 42 108 53 q 88 22 96 31 q 68 14 79 14 l 68 0 m 338 921 q 297 904 314 921 q 281 861 281 888 q 292 828 281 838 q 314 813 303 819 q 330 801 324 807 q 336 785 336 796 q 334 756 336 769 q 324 726 332 742 q 299 690 315 710 q 256 644 283 671 l 264 632 q 342 680 313 654 q 388 732 372 706 q 410 783 404 758 q 415 831 415 808 q 397 894 415 867 q 338 921 378 921 "},"ŀ":{"ha":374,"x_min":65,"x_max":374,"o":"m 68 0 l 250 0 l 250 14 q 231 22 239 14 q 217 42 224 31 q 208 66 211 53 q 206 90 206 79 l 206 925 l 65 882 l 65 868 q 107 846 100 867 q 114 801 114 825 l 114 90 q 111 66 114 79 q 102 42 108 53 q 88 22 96 31 q 68 14 79 14 l 68 0 m 242 267 q 260 220 242 239 q 307 201 279 201 q 354 220 335 201 q 374 267 374 239 q 354 314 374 294 q 307 333 335 333 q 260 314 279 333 q 242 267 242 294 "},"≤":{"ha":649,"x_min":49,"x_max":593,"o":"m 49 544 l 593 328 l 593 411 l 149 582 l 593 753 l 593 836 l 49 619 l 49 544 m 49 185 l 593 185 l 593 258 l 49 258 l 49 185 "},"₤":{"ha":646,"x_min":72,"x_max":568,"o":"m 325 431 l 482 431 l 482 476 l 326 476 l 326 536 l 483 536 l 483 583 l 326 583 l 326 715 q 351 834 326 794 q 408 874 376 874 q 459 851 432 874 q 501 781 486 828 l 515 781 l 515 882 q 488 894 507 882 q 450 914 472 904 q 396 924 428 924 q 282 864 328 924 q 236 696 236 804 l 236 583 l 129 583 l 129 536 l 236 536 l 236 476 l 129 476 l 129 431 l 236 431 q 208 215 233 297 q 151 88 182 132 q 72 11 115 33 l 79 -3 l 103 11 q 176 42 143 31 q 232 54 208 54 q 282 45 258 54 q 324 28 306 36 q 332 24 328 24 q 376 5 351 14 q 425 -4 400 -4 q 506 22 469 -4 q 568 101 542 49 l 556 110 q 474 58 511 58 q 429 67 450 58 q 389 89 408 76 q 342 112 365 101 q 296 122 319 122 q 263 117 281 122 q 231 107 246 113 q 292 235 265 151 q 325 431 319 318 "},"◊":{"ha":496,"x_min":15,"x_max":478,"o":"m 247 -42 l 478 454 l 247 949 l 15 454 l 247 -42 m 247 806 l 410 454 l 247 104 l 85 454 l 247 806 "},"ł":{"ha":325,"x_min":-3,"x_max":325,"o":"m -3 251 l 29 210 q 73 242 49 225 q 118 275 97 260 l 118 90 q 115 66 118 79 q 106 42 113 53 q 92 22 100 31 q 72 14 83 14 l 72 0 l 254 0 l 254 14 q 235 22 243 14 q 222 42 228 31 q 213 66 215 53 q 210 90 210 79 l 210 340 l 325 425 l 294 465 l 210 404 l 210 925 l 69 882 l 71 868 q 112 846 106 867 q 118 801 118 825 l 118 339 l -3 251 "},"ń":{"ha":739,"x_min":61,"x_max":665,"o":"m 621 90 l 621 358 q 608 441 621 399 q 565 519 594 483 q 490 576 536 554 q 379 599 444 599 q 312 591 340 599 q 262 572 283 583 q 225 547 240 560 q 200 522 210 533 l 200 599 l 61 554 l 61 542 q 101 519 94 540 q 108 474 108 497 l 108 90 q 106 66 108 79 q 97 42 103 53 q 82 22 90 31 q 64 14 74 14 l 64 0 l 244 0 l 244 14 q 226 22 233 14 q 212 42 218 31 q 203 66 206 53 q 200 90 200 79 l 200 399 q 215 455 200 428 q 252 502 229 482 q 305 535 275 522 q 365 547 335 547 q 426 535 396 547 q 479 499 456 524 q 517 436 503 474 q 531 349 531 399 l 531 90 q 528 66 531 79 q 519 42 525 53 q 504 22 513 31 q 486 14 496 14 l 486 0 l 665 0 l 665 14 q 647 22 654 14 q 633 42 639 31 q 624 66 626 53 q 621 90 621 79 m 251 694 l 256 686 l 485 781 l 449 843 l 251 694 "},"ŉ":{"ha":739,"x_min":63,"x_max":667,"o":"m 156 918 q 115 901 132 918 q 99 858 99 885 q 107 831 99 840 q 126 816 115 822 q 145 803 136 810 q 154 782 154 796 q 152 754 154 768 q 142 724 150 740 q 119 688 135 707 q 75 642 103 668 l 82 629 q 160 677 131 651 q 206 729 190 703 q 228 781 222 756 q 233 826 233 806 q 215 890 233 863 q 156 918 196 918 m 622 92 l 622 360 q 609 442 622 400 q 567 520 596 485 q 492 578 538 556 q 381 600 446 600 q 313 592 342 600 q 263 573 285 585 q 226 548 242 561 q 201 524 211 535 l 201 600 l 63 556 l 63 543 q 103 520 96 542 q 110 475 110 499 l 110 92 q 107 67 110 81 q 98 43 104 54 q 83 24 92 32 q 65 15 75 15 l 65 1 l 246 1 l 246 15 q 227 24 235 15 q 213 43 219 32 q 204 67 207 54 q 201 92 201 81 l 201 400 q 216 456 201 429 q 253 503 231 483 q 306 536 276 524 q 367 549 336 549 q 427 537 397 549 q 481 500 457 525 q 518 438 504 475 q 532 350 532 400 l 532 92 q 529 67 532 81 q 520 43 526 54 q 506 24 514 32 q 488 15 497 15 l 488 1 l 667 1 l 667 15 q 648 24 656 15 q 634 43 640 32 q 625 67 628 54 q 622 92 622 81 "},"ň":{"ha":739,"x_min":61,"x_max":665,"o":"m 621 90 l 621 358 q 608 441 621 399 q 565 519 594 483 q 490 576 536 554 q 379 599 444 599 q 312 591 340 599 q 262 572 283 583 q 225 547 240 560 q 200 522 210 533 l 200 599 l 61 554 l 61 542 q 101 519 94 540 q 108 474 108 497 l 108 90 q 106 66 108 79 q 97 42 103 53 q 82 22 90 31 q 64 14 74 14 l 64 0 l 244 0 l 244 14 q 226 22 233 14 q 212 42 218 31 q 203 66 206 53 q 200 90 200 79 l 200 399 q 215 455 200 428 q 252 502 229 482 q 305 535 275 522 q 365 547 335 547 q 426 535 396 547 q 479 499 456 524 q 517 436 503 474 q 531 349 531 399 l 531 90 q 528 66 531 79 q 519 42 525 53 q 504 22 513 31 q 486 14 496 14 l 486 0 l 665 0 l 665 14 q 647 22 654 14 q 633 42 639 31 q 624 66 626 53 q 621 90 621 79 m 201 821 l 197 815 l 369 671 l 538 815 l 535 821 l 369 742 l 201 821 "},"≠":{"ha":649,"x_min":49,"x_max":590,"o":"m 444 597 l 526 728 l 454 728 l 372 597 l 49 597 l 49 528 l 331 528 q 288 457 311 492 q 243 386 265 422 l 49 386 l 49 319 l 201 319 l 117 182 l 188 182 q 230 251 207 215 q 274 319 253 286 l 590 319 l 590 386 l 313 386 q 356 457 333 422 q 401 528 379 492 l 590 528 l 590 597 l 444 597 "},"ŏ":{"ha":726,"x_min":51,"x_max":665,"o":"m 354 -10 q 488 17 431 -10 q 585 86 546 43 q 645 185 625 129 q 665 301 665 242 q 643 419 665 365 q 581 511 621 472 q 485 572 540 550 q 363 593 429 593 q 239 571 296 593 q 140 508 182 549 q 75 412 99 468 q 51 288 51 356 q 73 169 51 224 q 134 76 94 115 q 229 13 174 36 q 354 -10 285 -10 m 346 547 q 448 524 404 547 q 521 462 492 500 q 564 377 550 424 q 578 285 578 331 q 565 196 578 240 q 525 116 551 151 q 459 58 499 81 q 368 36 419 36 q 275 58 317 36 q 203 118 233 81 q 158 203 174 156 q 142 303 142 251 q 155 390 142 347 q 194 467 168 433 q 258 523 219 501 q 346 547 296 544 m 518 826 l 510 826 q 500 803 507 818 q 476 774 493 789 q 433 747 460 758 q 363 736 406 736 q 293 747 321 736 q 249 774 265 758 q 224 803 232 789 q 215 826 217 818 l 207 826 q 219 776 207 801 q 253 729 232 750 q 302 695 274 708 q 364 682 331 682 q 427 696 399 682 q 476 731 456 710 q 507 778 496 753 q 518 826 518 804 "},"˛":{"ha":274,"x_min":36,"x_max":254,"o":"m 196 -172 q 123 -152 143 -172 q 103 -106 103 -132 q 123 -45 103 -75 q 172 7 143 -15 l 131 7 q 65 -47 93 -14 q 36 -115 36 -81 q 65 -169 36 -146 q 156 -192 93 -192 q 210 -186 185 -192 q 254 -169 236 -181 l 251 -162 q 196 -172 226 -172 "},"ő":{"ha":726,"x_min":51,"x_max":665,"o":"m 354 -10 q 488 17 431 -10 q 585 86 546 43 q 645 185 625 129 q 665 301 665 242 q 643 419 665 365 q 581 511 621 472 q 485 572 540 550 q 363 593 429 593 q 239 571 296 593 q 140 508 182 549 q 75 412 99 468 q 51 288 51 356 q 73 169 51 224 q 134 76 94 115 q 229 13 174 36 q 354 -10 285 -10 m 346 547 q 448 524 404 547 q 521 462 492 500 q 564 377 550 424 q 578 285 578 331 q 565 196 578 240 q 525 116 551 151 q 459 58 499 81 q 368 36 419 36 q 275 58 317 36 q 203 118 233 81 q 158 203 174 156 q 142 303 142 251 q 155 390 142 347 q 194 467 168 433 q 258 523 219 501 q 346 547 296 544 m 193 650 l 208 639 l 379 831 l 308 875 l 193 650 m 321 651 l 336 638 l 532 801 l 469 856 l 321 651 "},"ō":{"ha":726,"x_min":51,"x_max":665,"o":"m 354 -10 q 488 17 431 -10 q 585 86 546 43 q 645 185 625 129 q 665 301 665 242 q 643 419 665 365 q 581 511 621 472 q 485 572 540 550 q 363 593 429 593 q 239 571 296 593 q 140 508 182 549 q 75 412 99 468 q 51 288 51 356 q 73 169 51 224 q 134 76 94 115 q 229 13 174 36 q 354 -10 285 -10 m 346 547 q 448 524 404 547 q 521 462 492 500 q 564 377 550 424 q 578 285 578 331 q 565 196 578 240 q 525 116 551 151 q 459 58 499 81 q 368 36 419 36 q 275 58 317 36 q 203 118 233 81 q 158 203 174 156 q 142 303 142 251 q 155 390 142 347 q 194 467 168 433 q 258 523 219 501 q 346 547 296 544 m 224 713 l 224 657 l 501 657 l 501 713 l 224 713 "},"ǿ":{"ha":726,"x_min":51,"x_max":665,"o":"m 354 -10 q 488 17 431 -10 q 585 86 546 43 q 645 185 625 129 q 665 301 665 242 q 632 438 665 376 q 547 539 599 500 l 583 597 l 513 597 l 493 567 q 431 585 465 578 q 363 593 397 593 q 239 571 296 593 q 140 508 182 549 q 75 412 99 468 q 51 288 51 356 q 81 151 51 213 q 164 49 111 89 l 125 -14 l 196 -14 q 206 3 201 -7 q 217 19 211 13 q 282 -2 247 6 q 354 -10 317 -10 m 578 285 q 565 196 578 240 q 525 116 551 151 q 459 58 499 81 q 368 36 419 36 q 251 74 304 36 q 379 275 314 174 q 507 476 444 376 q 560 385 543 438 q 578 285 578 333 m 346 547 q 407 539 378 547 q 460 517 436 531 q 333 316 397 418 q 207 115 269 214 q 159 201 176 151 q 142 303 142 251 q 155 390 142 347 q 194 467 168 433 q 258 523 219 501 q 346 547 296 544 m 246 689 l 250 681 l 479 775 l 443 838 l 246 689 "}}}
